<svg width="154" height="64" viewBox="0 0 154 64" fill="none" xmlns="http://www.w3.org/2000/svg">
<path d="M28.1387 8.15211C26.3338 10.2879 23.446 11.9725 20.5581 11.7318C20.1972 8.84398 21.611 5.77566 23.2655 3.88052C25.0704 1.68457 28.229 0.120326 30.7859 0C31.0867 3.00816 29.9135 5.95615 28.1387 8.15211ZM30.7558 12.3034C26.5745 12.0627 22.9948 14.6798 21.0094 14.6798C18.9939 14.6798 15.9557 12.4237 12.6467 12.4839C8.34503 12.544 4.34418 14.9806 2.14823 18.8611C-2.36401 26.6222 0.975048 38.1133 5.33688 44.4305C7.47267 47.559 10.0296 50.9883 13.3987 50.8679C16.5874 50.7476 17.8508 48.7923 21.7013 48.7923C25.5818 48.7923 26.6948 50.8679 30.0639 50.8078C33.5534 50.7476 35.7493 47.6793 37.8851 44.5508C40.3217 41.0012 41.3144 37.5418 41.3746 37.3613C41.3144 37.3011 34.6363 34.7442 34.5762 27.0433C34.516 20.6059 39.8404 17.5376 40.0811 17.3571C37.0729 12.905 32.3802 12.4237 30.7558 12.3034ZM54.9113 3.57971V50.4769H62.191V34.4434H72.2684C81.4733 34.4434 87.9409 28.1263 87.9409 18.9815C87.9409 9.83667 81.5937 3.57971 72.509 3.57971H54.9113ZM62.191 9.71635H70.5838C76.9009 9.71635 80.5107 13.0855 80.5107 19.0116C80.5107 24.9376 76.9009 28.3368 70.5537 28.3368H62.191V9.71635ZM101.237 50.8378C105.809 50.8378 110.051 48.5216 111.976 44.8516H112.126V50.4769H118.865V27.1336C118.865 20.3652 113.45 16.0034 105.117 16.0034C97.3865 16.0034 91.671 20.4254 91.4604 26.5019H98.0182C98.5597 23.614 101.237 21.7189 104.907 21.7189C109.359 21.7189 111.856 23.7945 111.856 27.6149V30.2019L102.771 30.7434C94.3182 31.2547 89.7458 34.7141 89.7458 40.7304C89.7458 46.8069 94.4686 50.8378 101.237 50.8378ZM103.192 45.2728C99.3117 45.2728 96.845 43.4077 96.845 40.55C96.845 37.602 99.2215 35.8873 103.764 35.6166L111.856 35.1052V37.7524C111.856 42.1443 108.126 45.2728 103.192 45.2728ZM127.859 63.2315C134.958 63.2315 138.297 60.5241 141.215 52.3118L154 16.4546H146.6L138.027 44.1597H137.876L129.303 16.4546H121.692L134.026 50.5972L133.364 52.6728C132.251 56.1924 130.446 57.546 127.227 57.546C126.656 57.546 125.543 57.4859 125.092 57.4257V63.051C125.513 63.1713 127.318 63.2315 127.859 63.2315Z" fill="white"/>
</svg>
