<svg width="25" height="55" viewBox="0 0 25 55" fill="none" xmlns="http://www.w3.org/2000/svg">
<path d="M23.5987 27.857L24.0981 27.8326L23.5987 27.857ZM0.784746 50.108C0.596813 50.3103 0.608479 50.6267 0.810804 50.8146L4.10788 53.8772C4.3102 54.0651 4.62657 54.0534 4.81451 53.8511C5.00244 53.6488 4.99077 53.3324 4.78845 53.1445L1.85771 50.4222L4.57999 47.4915C4.76793 47.2891 4.75626 46.9728 4.55394 46.7848C4.35161 46.5969 4.03524 46.6086 3.84731 46.8109L0.784746 50.108ZM4.99985 1.00016C4.85939 1.48002 4.8592 1.47997 4.85907 1.47993C4.85911 1.47994 4.85905 1.47992 4.85914 1.47995C4.85932 1.48 4.85976 1.48013 4.86047 1.48034C4.86188 1.48076 4.86434 1.4815 4.86784 1.48256C4.87484 1.48467 4.88597 1.48807 4.9011 1.4928C4.93138 1.50226 4.97766 1.51702 5.03894 1.53745C5.16149 1.57829 5.34393 1.64175 5.578 1.73059C6.04621 1.90829 6.72049 2.18735 7.53492 2.58981C9.16444 3.39507 11.3505 4.69218 13.5692 6.65634C17.9974 10.5765 22.5751 17.1692 23.0993 27.8814L24.0981 27.8326C23.5593 16.8205 18.8376 9.98479 14.2321 5.90759C11.9339 3.87308 9.66962 2.52928 7.97795 1.6933C7.13178 1.27515 6.42776 0.983504 5.93283 0.795661C5.68533 0.701724 5.48998 0.633698 5.35514 0.588755C5.28772 0.566283 5.23541 0.549576 5.19926 0.538284C5.18118 0.532637 5.16715 0.528344 5.15728 0.525359C5.15234 0.523867 5.14845 0.522702 5.14561 0.521859C5.14419 0.521437 5.14304 0.521095 5.14216 0.520834C5.14171 0.520703 5.14125 0.520566 5.14103 0.520501C5.14063 0.520385 5.1403 0.520288 4.99985 1.00016ZM23.0993 27.8814C23.3604 33.2167 22.1131 37.2378 20.1215 40.2778C18.1264 43.3232 15.3631 45.4161 12.5462 46.8539C9.72828 48.2922 6.8711 49.0674 4.71358 49.4824C3.63609 49.6896 2.73642 49.8064 2.1079 49.8712C1.79372 49.9036 1.54754 49.9231 1.38105 49.9344C1.29781 49.94 1.23452 49.9436 1.19263 49.9458C1.17168 49.9469 1.15609 49.9476 1.14603 49.948C1.14101 49.9483 1.13736 49.9484 1.13513 49.9485C1.13401 49.9486 1.13324 49.9486 1.13283 49.9486C1.13262 49.9486 1.13258 49.9486 1.13248 49.9486C1.13253 49.9486 1.13266 49.9486 1.15109 50.4483C1.16951 50.9479 1.16983 50.9479 1.17023 50.9479C1.17049 50.9479 1.17098 50.9479 1.17149 50.9478C1.17251 50.9478 1.17389 50.9478 1.17561 50.9477C1.17907 50.9475 1.18395 50.9473 1.19021 50.9471C1.20275 50.9465 1.22087 50.9457 1.24437 50.9444C1.29139 50.942 1.35998 50.9381 1.44868 50.9321C1.62606 50.9201 1.88395 50.8996 2.21057 50.8659C2.86363 50.7985 3.79242 50.6778 4.90244 50.4644C7.11994 50.0379 10.074 49.2385 13.0008 47.7446C15.9287 46.2501 18.8438 44.053 20.9579 40.8258C23.0756 37.5933 24.3685 33.3594 24.0981 27.8326L23.0993 27.8814Z" fill="white"/>
</svg>
