<svg width="25" height="17" viewBox="0 0 25 17" fill="none" xmlns="http://www.w3.org/2000/svg">
<path d="M12.3035 16.0973C12.6285 15.9219 12.8311 15.5885 12.8311 15.2259V9.57946H23.9801C24.5431 9.57946 25 9.13316 25 8.58326C25 8.03336 24.5431 7.58706 23.9801 7.58706H12.8311V1.94061C12.8311 1.57666 12.6285 1.24327 12.3035 1.06926C11.9785 0.892605 11.5815 0.904559 11.2673 1.09716L0.475931 7.73981C0.179494 7.92311 0 8.24057 0 8.58326C0 8.92595 0.179494 9.24341 0.475931 9.42671L11.2673 16.0694C11.4332 16.1703 11.6222 16.2221 11.8113 16.2221C11.9799 16.2221 12.1498 16.1796 12.3035 16.0973Z" fill="white"/>
</svg>
