<svg width="60" height="60" viewBox="0 0 60 60" fill="none" xmlns="http://www.w3.org/2000/svg">
<path d="M24.05 40L27.8 43.75L35.925 36.25" stroke="white" stroke-width="2.5" stroke-linecap="round" stroke-linejoin="round"/>
<path d="M22.025 5L12.975 14.075M37.975 5L47.025 14.075" stroke="white" stroke-width="2.5" stroke-miterlimit="10" stroke-linecap="round" stroke-linejoin="round"/>
<path d="M5 19.625C5 15 7.475 14.625 10.55 14.625H49.45C52.525 14.625 55 15 55 19.625C55 25 52.525 24.625 49.45 24.625H10.55C7.475 24.625 5 25 5 19.625Z" stroke="white" stroke-width="2.5"/>
<path d="M8.75 25L12.275 46.6C13.075 51.45 15 55 22.15 55H37.225C45 55 46.15 51.6 47.05 46.9L51.25 25" stroke="white" stroke-width="2.5" stroke-linecap="round"/>
</svg>
