<svg width="122" height="30" viewBox="0 0 122 30" fill="none" xmlns="http://www.w3.org/2000/svg">
<path d="M14.7609 21.756L15.6969 16.716C17.4249 16.716 19.0809 16.632 20.6649 16.464C22.2729 16.296 23.7969 15.96 25.2369 15.456C26.7009 14.952 28.0689 14.208 29.3409 13.224C30.6129 12.24 31.7649 10.92 32.7969 9.264L36.8289 11.1C36.6849 11.556 36.5649 12 36.4689 12.432C36.3729 12.84 36.3249 13.176 36.3249 13.44C36.3249 13.992 36.4569 14.472 36.7209 14.88C37.0089 15.288 37.4889 15.6 38.1609 15.816C38.8329 16.032 39.7569 16.14 40.9329 16.14C41.8449 16.14 42.4929 16.38 42.8769 16.86C43.2609 17.316 43.4529 17.892 43.4529 18.588C43.4529 19.332 43.2009 19.956 42.6969 20.46C42.2169 20.94 41.5089 21.18 40.5729 21.18C38.9169 21.18 37.4769 20.952 36.2529 20.496C35.0529 20.04 34.1049 19.404 33.4089 18.588C32.7369 17.748 32.3409 16.788 32.2209 15.708L33.6609 15.852C32.7969 16.884 31.7169 17.772 30.4209 18.516C29.1489 19.26 27.6969 19.872 26.0649 20.352C24.4569 20.832 22.6929 21.18 20.7729 21.396C18.8769 21.636 16.8729 21.756 14.7609 21.756ZM14.7249 21.756C12.1329 21.756 9.93694 21.552 8.13694 21.144C6.36094 20.76 4.90894 20.208 3.78094 19.488C2.67694 18.744 1.87294 17.88 1.36894 16.896C0.864938 15.912 0.612938 14.832 0.612938 13.656C0.612938 12.888 0.672938 12.12 0.792938 11.352C0.936938 10.56 1.10494 9.792 1.29694 9.048C1.51294 8.304 1.70494 7.632 1.87294 7.032L6.37294 8.076C6.27694 8.508 6.16894 8.976 6.04894 9.48C5.92894 9.984 5.83294 10.476 5.76094 10.956C5.68894 11.412 5.65294 11.832 5.65294 12.216C5.65294 13.104 5.96494 13.896 6.58894 14.592C7.23694 15.264 8.29294 15.792 9.75694 16.176C11.2209 16.536 13.1889 16.716 15.6609 16.716L16.3809 20.604L14.7249 21.756ZM21.4209 5.304C20.7249 5.304 20.1249 5.064 19.6209 4.584C19.1409 4.08 18.9009 3.492 18.9009 2.82C18.9009 2.124 19.1409 1.524 19.6209 1.02C20.1249 0.515999 20.7249 0.263999 21.4209 0.263999C22.0929 0.263999 22.6689 0.515999 23.1489 1.02C23.6289 1.524 23.8689 2.124 23.8689 2.82C23.8689 3.492 23.6289 4.08 23.1489 4.584C22.6689 5.064 22.0929 5.304 21.4209 5.304ZM15.1929 5.268C14.4969 5.268 13.8969 5.028 13.3929 4.548C12.9129 4.044 12.6729 3.456 12.6729 2.784C12.6729 2.088 12.9129 1.488 13.3929 0.983998C13.8969 0.479999 14.4969 0.227999 15.1929 0.227999C15.8649 0.227999 16.4409 0.479999 16.9209 0.983998C17.4009 1.488 17.6409 2.088 17.6409 2.784C17.6409 3.456 17.4009 4.044 16.9209 4.548C16.4409 5.028 15.8649 5.268 15.1929 5.268ZM40.5586 21.18L40.9186 16.14C41.7106 16.14 42.3586 16.08 42.8626 15.96C43.3666 15.816 43.7746 15.516 44.0866 15.06C44.4226 14.58 44.7106 13.872 44.9506 12.936C45.2146 11.976 45.5026 10.68 45.8146 9.048L50.4946 9.912C50.4226 10.272 50.3386 10.692 50.2426 11.172C50.1466 11.652 50.0626 12.144 49.9906 12.648C49.9186 13.128 49.8826 13.56 49.8826 13.944C49.8826 14.616 50.0986 15.156 50.5306 15.564C50.9626 15.948 51.7786 16.14 52.9786 16.14C53.5786 16.14 54.0946 16.08 54.5266 15.96C54.9826 15.816 55.3666 15.516 55.6786 15.06C56.0146 14.58 56.3026 13.848 56.5426 12.864C56.8066 11.856 57.0586 10.5 57.2986 8.796L62.0506 9.552C61.9546 10.104 61.8586 10.692 61.7626 11.316C61.6666 11.94 61.5826 12.516 61.5106 13.044C61.4386 13.572 61.4026 14.004 61.4026 14.34C61.4026 14.652 61.4866 14.952 61.6546 15.24C61.8466 15.504 62.1826 15.72 62.6626 15.888C63.1666 16.056 63.8746 16.14 64.7866 16.14C65.4346 16.14 65.9866 16.056 66.4426 15.888C66.9226 15.72 67.2826 15.444 67.5226 15.06C67.7866 14.676 67.9186 14.172 67.9186 13.548C67.9186 12.66 67.7146 11.496 67.3066 10.056C66.8986 8.616 66.4186 7.104 65.8666 5.52L70.9426 4.008C71.3266 5.04 71.6626 6.144 71.9506 7.32C72.2626 8.472 72.5026 9.6 72.6706 10.704C72.8626 11.784 72.9586 12.732 72.9586 13.548C72.9586 14.772 72.7666 15.864 72.3826 16.824C71.9986 17.76 71.4586 18.552 70.7626 19.2C70.0666 19.848 69.2386 20.34 68.2786 20.676C67.3186 21.012 66.2626 21.18 65.1106 21.18C63.7186 21.18 62.5786 21.048 61.6906 20.784C60.8026 20.496 60.1186 20.028 59.6386 19.38C59.1826 18.708 58.8826 17.796 58.7386 16.644H59.9626C59.4586 18.06 58.8946 19.092 58.2706 19.74C57.6466 20.364 56.9026 20.76 56.0386 20.928C55.1986 21.096 54.1426 21.18 52.8706 21.18C52.0786 21.18 51.2626 21.096 50.4226 20.928C49.6066 20.736 48.8746 20.304 48.2266 19.632C47.5786 18.96 47.0986 17.916 46.7866 16.5L48.7306 16.428C48.2266 17.844 47.5666 18.888 46.7506 19.56C45.9586 20.232 45.0466 20.676 44.0146 20.892C42.9826 21.084 41.8306 21.18 40.5586 21.18ZM76.8176 29.28L75.7736 24.24C77.4776 24.024 78.9656 23.76 80.2376 23.448C81.5096 23.16 82.5776 22.752 83.4416 22.224C84.3056 21.696 84.9536 20.976 85.3856 20.064C85.8176 19.128 86.0336 17.928 86.0336 16.464C86.0336 15.936 85.9856 15.408 85.8896 14.88C85.7936 14.328 85.6496 13.824 85.4576 13.368C85.2656 12.912 85.0136 12.54 84.7016 12.252C84.4136 11.964 84.0656 11.82 83.6576 11.82C83.2256 11.82 82.8416 11.976 82.5056 12.288C82.1696 12.576 81.9056 12.948 81.7136 13.404C81.5216 13.836 81.4256 14.28 81.4256 14.736C81.4256 15.072 81.5096 15.36 81.6776 15.6C81.8456 15.816 82.0976 15.984 82.4336 16.104C82.7696 16.2 83.1896 16.248 83.6936 16.248C84.2696 16.248 84.8576 16.188 85.4576 16.068C86.0816 15.924 86.6456 15.732 87.1496 15.492L87.2936 19.416C86.7176 19.872 86.0576 20.28 85.3136 20.64C84.5696 20.976 83.6696 21.144 82.6136 21.144C81.7496 21.144 80.9456 21.048 80.2016 20.856C79.4576 20.64 78.7976 20.316 78.2216 19.884C77.6696 19.452 77.2376 18.9 76.9256 18.228C76.6136 17.532 76.4576 16.704 76.4576 15.744C76.4576 14.568 76.6496 13.428 77.0336 12.324C77.4176 11.22 77.9456 10.236 78.6176 9.372C79.3136 8.484 80.1056 7.788 80.9936 7.284C81.9056 6.756 82.8656 6.492 83.8736 6.492C85.0736 6.492 86.1176 6.792 87.0056 7.392C87.9176 7.992 88.6736 8.784 89.2736 9.768C89.8736 10.728 90.3296 11.772 90.6416 12.9C90.9536 14.028 91.1096 15.108 91.1096 16.14C91.1096 18.852 90.5336 21.156 89.3816 23.052C88.2296 24.948 86.5856 26.412 84.4496 27.444C82.3136 28.5 79.7696 29.112 76.8176 29.28ZM94.7473 29.28L93.7033 24.24C95.4073 24.024 96.8953 23.76 98.1673 23.448C99.4393 23.16 100.507 22.752 101.371 22.224C102.235 21.696 102.883 20.976 103.315 20.064C103.747 19.128 103.963 17.928 103.963 16.464C103.963 15.048 103.747 13.92 103.315 13.08C102.883 12.24 102.307 11.82 101.587 11.82C101.083 11.82 100.663 12 100.327 12.36C99.9913 12.696 99.7393 13.104 99.5713 13.584C99.4273 14.04 99.3553 14.448 99.3553 14.808C99.3553 15.024 99.4153 15.252 99.5353 15.492C99.6553 15.732 99.9193 15.936 100.327 16.104C100.735 16.272 101.371 16.368 102.235 16.392C103.123 16.416 104.323 16.332 105.835 16.14H111.883C112.795 16.14 113.443 16.38 113.827 16.86C114.235 17.316 114.439 17.892 114.439 18.588C114.439 19.332 114.187 19.956 113.683 20.46C113.179 20.94 112.459 21.18 111.523 21.18H101.623C100.111 21.18 98.8153 21 97.7353 20.64C96.6553 20.28 95.8273 19.704 95.2513 18.912C94.6753 18.096 94.3873 17.016 94.3873 15.672C94.3873 14.592 94.5673 13.512 94.9273 12.432C95.3113 11.352 95.8393 10.368 96.5113 9.48C97.1833 8.568 97.9633 7.848 98.8513 7.32C99.7633 6.768 100.747 6.492 101.803 6.492C103.243 6.492 104.503 6.936 105.583 7.824C106.663 8.712 107.503 9.888 108.103 11.352C108.727 12.816 109.039 14.412 109.039 16.14C109.039 18.852 108.463 21.156 107.311 23.052C106.159 24.948 104.515 26.412 102.379 27.444C100.243 28.5 97.6993 29.112 94.7473 29.28ZM111.574 21.18L111.934 16.14C112.99 16.14 113.818 16.068 114.418 15.924C115.042 15.78 115.486 15.516 115.75 15.132C116.014 14.724 116.146 14.148 116.146 13.404C116.146 12.732 116.05 11.928 115.858 10.992C115.69 10.056 115.462 9.084 115.174 8.076C114.886 7.068 114.598 6.144 114.31 5.304L119.278 3.936C119.566 4.752 119.854 5.7 120.142 6.78C120.43 7.86 120.67 8.976 120.862 10.128C121.078 11.256 121.186 12.348 121.186 13.404C121.186 14.724 121.018 15.84 120.682 16.752C120.346 17.64 119.878 18.384 119.278 18.984C118.702 19.56 118.006 20.016 117.19 20.352C116.398 20.664 115.522 20.88 114.562 21C113.602 21.12 112.606 21.18 111.574 21.18ZM116.002 29.46C115.306 29.46 114.706 29.22 114.202 28.74C113.722 28.26 113.482 27.672 113.482 26.976C113.482 26.28 113.722 25.668 114.202 25.14C114.706 24.636 115.306 24.384 116.002 24.384C116.698 24.384 117.286 24.636 117.766 25.14C118.27 25.668 118.522 26.28 118.522 26.976C118.522 27.672 118.27 28.26 117.766 28.74C117.286 29.22 116.698 29.46 116.002 29.46Z" fill="#FBF2F2"/>
</svg>
