<svg width="88" height="88" viewBox="0 0 88 88" fill="none" xmlns="http://www.w3.org/2000/svg">
<path fill-rule="evenodd" clip-rule="evenodd" d="M42.3716 8.59854C42.3705 8.59909 42.3694 8.59963 42.3683 8.60018L13.0431 23.2628L13.035 23.2668C12.4241 23.5704 11.91 24.0384 11.5505 24.6181C11.1911 25.1976 11.0005 25.8659 11 26.5478C11 26.5476 11 26.548 11 26.5478V61.4788C10.9953 62.1621 11.1815 62.8332 11.5378 63.4163C11.8936 63.9984 12.4046 64.4697 13.0136 64.7772C13.0126 64.7767 13.0146 64.7777 13.0136 64.7772L42.3398 79.4403C42.8492 79.6953 43.4121 79.8285 43.9817 79.8285C44.5513 79.8285 45.1131 79.6958 45.6225 79.4409L74.9569 64.7737L74.965 64.7696C75.5759 64.4661 76.09 63.9981 76.4495 63.4184C76.809 62.8386 76.9996 62.1701 77 61.488V26.5485C76.9996 25.8664 76.809 25.1978 76.4495 24.6181C76.09 24.0384 75.5759 23.5704 74.965 23.2668L74.9569 23.2628L45.6317 8.60018C45.6306 8.59963 45.6295 8.59909 45.6284 8.59854C45.1222 8.34767 44.565 8.21712 44 8.21712C43.4351 8.21712 42.8778 8.34767 42.3716 8.59854ZM47.2633 5.31657L48.895 2.03295C47.374 1.27712 45.6985 0.883789 44 0.883789C42.3015 0.883789 40.6261 1.27712 39.105 2.03295L39.0969 2.037L9.77168 16.6996C9.77017 16.7004 9.76866 16.7011 9.76716 16.7019C7.93647 17.6126 6.39583 19.0156 5.31822 20.7534C4.23972 22.4926 3.66777 24.4982 3.66668 26.5446L3.66668 61.4418C3.65506 63.4869 4.21384 65.4949 5.2804 67.2402C6.34941 68.9895 7.88598 70.4052 9.71677 71.3277L9.7269 71.3328L39.0592 85.9989C40.5874 86.7637 42.2728 87.1618 43.9817 87.1618C45.6902 87.1618 47.3752 86.7638 48.9031 85.9995C48.9028 85.9996 48.9035 85.9993 48.9031 85.9995L78.2283 71.3369C78.2296 71.3362 78.2308 71.3356 78.232 71.335C80.0631 70.4243 81.604 69.0212 82.6818 67.2831C83.7603 65.5439 84.3323 63.5383 84.3333 61.4918V26.5466C84.3323 24.5001 83.7603 22.4926 82.6818 20.7534C81.6042 19.0156 80.0636 17.6127 78.233 16.702C78.2315 16.7012 78.2299 16.7004 78.2283 16.6996L48.9031 2.037L47.2633 5.31657Z" fill="#C8FE67"/>
<path fill-rule="evenodd" clip-rule="evenodd" d="M5.22711 20.9468C6.13274 19.1355 8.33521 18.4014 10.1465 19.307L44 36.2338L77.8536 19.307C79.6648 18.4014 81.8673 19.1355 82.7729 20.9468C83.6785 22.758 82.9444 24.9605 81.1331 25.8661L45.6398 43.6128C44.6075 44.1289 43.3925 44.1289 42.3602 43.6128L6.8669 25.8661C5.05564 24.9605 4.32149 22.758 5.22711 20.9468Z" fill="#C8FE67"/>
<path fill-rule="evenodd" clip-rule="evenodd" d="M44 36.6666C46.0251 36.6666 47.6667 38.3082 47.6667 40.3332V83.4532C47.6667 85.4783 46.0251 87.1199 44 87.1199C41.975 87.1199 40.3333 85.4783 40.3333 83.4532V40.3332C40.3333 38.3082 41.975 36.6666 44 36.6666Z" fill="#C8FE67"/>
</svg>
