<svg width="42" height="49" viewBox="0 0 42 49" fill="none" xmlns="http://www.w3.org/2000/svg">
<g clip-path="url(#clip0_3_558)">
<path d="M32.1654 20.9315C34.8889 20.7553 37.4369 19.5315 39.2707 17.5186C41.1045 15.5058 42.0802 12.8618 41.9917 10.1456C41.9032 7.42939 40.7574 4.85391 38.7965 2.96368C36.8355 1.07344 34.2132 0.0166016 31.4839 0.0166016C28.7546 0.0166016 26.1323 1.07344 24.1714 2.96368C22.2104 4.85391 21.0646 7.42939 20.9761 10.1456C20.8876 12.8618 21.8633 15.5058 23.6971 17.5186C25.5309 19.5315 28.0789 20.7553 30.8024 20.9315C28.2519 21.0961 25.849 22.1807 24.0437 23.9822C22.2384 25.7838 21.1543 28.1787 20.9946 30.7187C20.8545 28.7041 20.1319 26.7729 18.9139 25.1582C17.696 23.5434 16.0348 22.3141 14.1308 21.6186C12.2268 20.9231 10.1613 20.7911 8.18364 21.2385C6.20594 21.6859 4.40054 22.6936 2.98526 24.14C1.56998 25.5864 0.605306 27.4098 0.207645 29.39C-0.190017 31.3702 -0.00368828 33.4227 0.744171 35.2998C1.49203 37.177 2.76945 38.7985 4.42229 39.9687C6.07514 41.139 8.03278 41.808 10.059 41.895C9.14638 41.999 8.30829 42.4466 7.71656 43.1462C7.12484 43.8458 6.82431 44.7443 6.8766 45.6574C6.92889 46.5706 7.33003 47.4292 7.99779 48.0573C8.66554 48.6853 9.5493 49.0352 10.4679 49.0352C11.3864 49.0352 12.2702 48.6853 12.9379 48.0573C13.6057 47.4292 14.0068 46.5706 14.0591 45.6574C14.1114 44.7443 13.8109 43.8458 13.2192 43.1462C12.6274 42.4466 11.7894 41.999 10.8768 41.895C13.4959 41.8094 15.9886 40.7529 17.8661 38.9326C19.7437 37.1122 20.8709 34.6593 21.0267 32.0545C21.1581 34.063 21.8685 35.9912 23.0727 37.6078C24.277 39.2244 25.9239 40.4608 27.8161 41.1688C29.7083 41.8768 31.7654 42.0264 33.7409 41.5995C35.7163 41.1727 37.5261 40.1876 38.9534 38.7623C40.3807 37.337 41.3648 35.5321 41.7878 33.5639C42.2108 31.5957 42.0547 29.5478 41.3382 27.6657C40.6217 25.7836 39.3753 24.1473 37.7483 22.9528C36.1213 21.7584 34.1829 21.0565 32.1654 20.9315Z" fill="white"/>
</g>
<defs>
<clipPath id="clip0_3_558">
<rect width="42" height="49" fill="white"/>
</clipPath>
</defs>
</svg>
