<svg width="18" height="18" viewBox="0 0 18 18" fill="none" xmlns="http://www.w3.org/2000/svg">
<path d="M9 16.5C13.1422 16.5 16.5 13.1422 16.5 9C16.5 4.85775 13.1422 1.5 9 1.5C4.85775 1.5 1.5 4.85775 1.5 9C1.5 13.1422 4.85775 16.5 9 16.5Z" stroke="#FFB800" stroke-linecap="round" stroke-linejoin="round"/>
<path d="M6.00006 2.25H6.75006C5.28758 6.63118 5.28758 11.3688 6.75006 15.75H6.00006M11.2501 2.25C12.7125 6.63118 12.7125 11.3688 11.2501 15.75" stroke="#FFB800" stroke-linecap="round" stroke-linejoin="round"/>
<path d="M2.25 11.9999V11.2499C6.63118 12.7124 11.3688 12.7124 15.75 11.2499V11.9999M2.25 6.74993C6.63118 5.28746 11.3688 5.28746 15.75 6.74993" stroke="#FFB800" stroke-linecap="round" stroke-linejoin="round"/>
</svg>
