<svg width="131" height="131" viewBox="0 0 131 131" fill="none" xmlns="http://www.w3.org/2000/svg">
<path d="M49.4165 65.7791C49.4165 56.8201 56.6773 49.5555 65.6363 49.5555C74.5953 49.5555 81.8599 56.8201 81.8599 65.7791C81.8599 74.7381 74.5953 82.0027 65.6363 82.0027C56.6773 82.0027 49.4165 74.7381 49.4165 65.7791ZM40.6463 65.7791C40.6463 79.5811 51.8343 90.769 65.6363 90.769C79.4382 90.769 90.6262 79.5811 90.6262 65.7791C90.6262 51.9771 79.4382 40.7892 65.6363 40.7892C51.8343 40.7892 40.6467 51.9764 40.6467 65.7791M85.7759 39.7983C85.7754 40.9534 86.1175 42.0826 86.7588 43.0432C87.4001 44.0039 88.3119 44.7528 89.3789 45.1952C90.4458 45.6377 91.62 45.7538 92.753 45.5289C93.8859 45.304 94.9267 44.7482 95.7438 43.9318C96.5609 43.1154 97.1175 42.075 97.3433 40.9423C97.5691 39.8095 97.4539 38.6352 97.0123 37.5679C96.5707 36.5006 95.8225 35.5882 94.8624 34.9461C93.9023 34.304 92.7733 33.9611 91.6182 33.9606H91.6159C90.0677 33.9613 88.583 34.5765 87.488 35.6711C86.393 36.7656 85.7772 38.2501 85.7759 39.7983ZM45.9748 105.393C41.23 105.177 38.651 104.387 36.9371 103.719C34.665 102.835 33.0438 101.781 31.3393 100.079C29.6347 98.3767 28.5796 96.757 27.699 94.4849C27.0309 92.7718 26.2405 90.192 26.0248 85.4472C25.7889 80.3173 25.7418 78.7763 25.7418 65.7799C25.7418 52.7834 25.7928 51.2467 26.0248 46.1126C26.2409 41.3677 27.0371 38.793 27.699 37.0749C28.5835 34.8027 29.6371 33.1815 31.3393 31.477C33.0414 29.7725 34.6611 28.7174 36.9371 27.8367C38.6502 27.1686 41.23 26.3783 45.9748 26.1626C51.1047 25.9266 52.6457 25.8795 65.6363 25.8795C78.6269 25.8795 80.1694 25.9298 85.3036 26.1634C90.0484 26.3794 92.6231 27.1756 94.3413 27.8375C96.6134 28.7182 98.2346 29.7756 99.9391 31.4778C101.644 33.18 102.695 34.8035 103.579 37.0757C104.248 38.7888 105.038 41.3685 105.254 46.1133C105.49 51.2475 105.537 52.7842 105.537 65.7807C105.537 78.7771 105.49 80.3138 105.254 85.448C105.037 90.1928 104.243 92.7718 103.579 94.4857C102.695 96.7578 101.641 98.379 99.9391 100.08C98.237 101.78 96.6134 102.835 94.3413 103.72C92.6282 104.388 90.0484 105.178 85.3036 105.394C80.1737 105.63 78.6327 105.677 65.6363 105.677C52.6398 105.677 51.1031 105.63 45.9748 105.394M45.5718 17.4068C40.3909 17.6427 36.8507 18.4642 33.759 19.6673C30.559 20.9096 27.8465 22.5764 25.1379 25.2807C22.4293 27.9851 20.7668 30.698 19.5245 33.9018C18.3214 36.9955 17.4999 40.5338 17.264 45.7147C17.0241 50.9037 16.9692 52.5627 16.9692 65.7791C16.9692 78.9955 17.0241 80.6545 17.264 85.8436C17.4999 91.0248 18.3214 94.5627 19.5245 97.6564C20.7668 100.856 22.4297 103.574 25.1379 106.277C27.8461 108.981 30.5551 110.645 33.759 111.891C36.8565 113.094 40.3909 113.915 45.5718 114.151C50.7636 114.387 52.4199 114.446 65.6363 114.446C78.8527 114.446 80.5117 114.391 85.7007 114.151C90.882 113.915 94.4199 113.094 97.5136 111.891C100.714 110.645 103.426 108.982 106.135 106.277C108.843 103.573 110.502 100.856 111.748 97.6564C112.951 94.5627 113.777 91.0245 114.009 85.8436C114.245 80.6506 114.299 78.9955 114.299 65.7791C114.299 52.5627 114.245 50.9037 114.009 45.7147C113.773 40.5334 112.951 36.9935 111.748 33.9018C110.502 30.7018 108.839 27.9893 106.135 25.2807C103.43 22.5721 100.714 20.9096 97.5175 19.6673C94.4199 18.4642 90.8816 17.6388 85.7046 17.4068C80.5148 17.1697 78.8566 17.1121 65.6421 17.1121C52.4277 17.1121 50.7656 17.167 45.5738 17.4068" fill="url(#paint0_radial_1_344)"/>
<path d="M49.4165 65.7791C49.4165 56.8201 56.6773 49.5555 65.6363 49.5555C74.5953 49.5555 81.8599 56.8201 81.8599 65.7791C81.8599 74.7381 74.5953 82.0027 65.6363 82.0027C56.6773 82.0027 49.4165 74.7381 49.4165 65.7791ZM40.6463 65.7791C40.6463 79.5811 51.8343 90.769 65.6363 90.769C79.4382 90.769 90.6262 79.5811 90.6262 65.7791C90.6262 51.9771 79.4382 40.7892 65.6363 40.7892C51.8343 40.7892 40.6467 51.9764 40.6467 65.7791M85.7759 39.7983C85.7754 40.9534 86.1175 42.0826 86.7588 43.0432C87.4001 44.0039 88.3119 44.7528 89.3789 45.1952C90.4458 45.6377 91.62 45.7538 92.753 45.5289C93.8859 45.304 94.9267 44.7482 95.7438 43.9318C96.5609 43.1154 97.1175 42.075 97.3433 40.9423C97.5691 39.8095 97.4539 38.6352 97.0123 37.5679C96.5707 36.5006 95.8225 35.5882 94.8624 34.9461C93.9023 34.304 92.7733 33.9611 91.6182 33.9606H91.6159C90.0677 33.9613 88.583 34.5765 87.488 35.6711C86.393 36.7656 85.7772 38.2501 85.7759 39.7983ZM45.9748 105.393C41.23 105.177 38.651 104.387 36.9371 103.719C34.665 102.835 33.0438 101.781 31.3393 100.079C29.6347 98.3767 28.5796 96.757 27.699 94.4849C27.0309 92.7718 26.2405 90.192 26.0248 85.4472C25.7889 80.3173 25.7418 78.7763 25.7418 65.7799C25.7418 52.7834 25.7928 51.2467 26.0248 46.1126C26.2409 41.3677 27.0371 38.793 27.699 37.0749C28.5835 34.8027 29.6371 33.1815 31.3393 31.477C33.0414 29.7725 34.6611 28.7174 36.9371 27.8367C38.6502 27.1686 41.23 26.3783 45.9748 26.1626C51.1047 25.9266 52.6457 25.8795 65.6363 25.8795C78.6269 25.8795 80.1694 25.9298 85.3036 26.1634C90.0484 26.3794 92.6231 27.1756 94.3413 27.8375C96.6134 28.7182 98.2346 29.7756 99.9391 31.4778C101.644 33.18 102.695 34.8035 103.579 37.0757C104.248 38.7888 105.038 41.3685 105.254 46.1133C105.49 51.2475 105.537 52.7842 105.537 65.7807C105.537 78.7771 105.49 80.3138 105.254 85.448C105.037 90.1928 104.243 92.7718 103.579 94.4857C102.695 96.7578 101.641 98.379 99.9391 100.08C98.237 101.78 96.6134 102.835 94.3413 103.72C92.6282 104.388 90.0484 105.178 85.3036 105.394C80.1737 105.63 78.6327 105.677 65.6363 105.677C52.6398 105.677 51.1031 105.63 45.9748 105.394M45.5718 17.4068C40.3909 17.6427 36.8507 18.4642 33.759 19.6673C30.559 20.9096 27.8465 22.5764 25.1379 25.2807C22.4293 27.9851 20.7668 30.698 19.5245 33.9018C18.3214 36.9955 17.4999 40.5338 17.264 45.7147C17.0241 50.9037 16.9692 52.5627 16.9692 65.7791C16.9692 78.9955 17.0241 80.6545 17.264 85.8436C17.4999 91.0248 18.3214 94.5627 19.5245 97.6564C20.7668 100.856 22.4297 103.574 25.1379 106.277C27.8461 108.981 30.5551 110.645 33.759 111.891C36.8565 113.094 40.3909 113.915 45.5718 114.151C50.7636 114.387 52.4199 114.446 65.6363 114.446C78.8527 114.446 80.5117 114.391 85.7007 114.151C90.882 113.915 94.4199 113.094 97.5136 111.891C100.714 110.645 103.426 108.982 106.135 106.277C108.843 103.573 110.502 100.856 111.748 97.6564C112.951 94.5627 113.777 91.0245 114.009 85.8436C114.245 80.6506 114.299 78.9955 114.299 65.7791C114.299 52.5627 114.245 50.9037 114.009 45.7147C113.773 40.5334 112.951 36.9935 111.748 33.9018C110.502 30.7018 108.839 27.9893 106.135 25.2807C103.43 22.5721 100.714 20.9096 97.5175 19.6673C94.4199 18.4642 90.8816 17.6388 85.7046 17.4068C80.5148 17.1697 78.8566 17.1121 65.6421 17.1121C52.4277 17.1121 50.7656 17.167 45.5738 17.4068" fill="url(#paint1_linear_1_344)"/>
<defs>
<radialGradient id="paint0_radial_1_344" cx="0" cy="0" r="1" gradientUnits="userSpaceOnUse" gradientTransform="translate(22.5 114) rotate(-44.0452) scale(127.297 127.292)">
<stop offset="0.102156" stop-color="#FAB321"/>
<stop offset="0.889214" stop-color="#D82D7E"/>
</radialGradient>
<linearGradient id="paint1_linear_1_344" x1="17" y1="16.9999" x2="157.5" y2="114" gradientUnits="userSpaceOnUse">
<stop stop-color="#8C3AAA"/>
<stop offset="0.273067" stop-color="#8C3AAA" stop-opacity="0"/>
</linearGradient>
</defs>
</svg>
