<svg width="36" height="36" viewBox="0 0 36 36" fill="none" xmlns="http://www.w3.org/2000/svg">
<path d="M22.3691 12.6491C22.175 12.6491 21.9851 12.7067 21.8237 12.8146C21.6622 12.9225 21.5364 13.0758 21.4621 13.2552C21.3878 13.4346 21.3683 13.6321 21.4062 13.8225C21.4441 14.013 21.5376 14.1879 21.6749 14.3252C21.8122 14.4625 21.9871 14.556 22.1776 14.5939C22.3681 14.6318 22.5655 14.6124 22.7449 14.538C22.9243 14.4637 23.0776 14.3379 23.1855 14.1764C23.2934 14.015 23.351 13.8251 23.351 13.631C23.351 13.3706 23.2475 13.1208 23.0634 12.9367C22.8793 12.7526 22.6295 12.6491 22.3691 12.6491V12.6491ZM26.1328 14.6291C26.1169 13.9503 25.9897 13.2787 25.7564 12.641C25.5484 12.0953 25.2246 11.6013 24.8073 11.1928C24.4022 10.7734 23.907 10.4517 23.3591 10.2519C22.7231 10.0115 22.0507 9.88141 21.371 9.86733C20.5037 9.81824 20.2255 9.81824 18.0001 9.81824C15.7746 9.81824 15.4964 9.81824 14.6291 9.86733C13.9494 9.88141 13.277 10.0115 12.641 10.2519C12.0942 10.4537 11.5994 10.7752 11.1928 11.1928C10.7734 11.5979 10.4517 12.0931 10.2519 12.641C10.0115 13.277 9.88141 13.9494 9.86733 14.6291C9.81824 15.4964 9.81824 15.7746 9.81824 18.0001C9.81824 20.2255 9.81824 20.5037 9.86733 21.371C9.88141 22.0507 10.0115 22.7231 10.2519 23.3591C10.4517 23.907 10.7734 24.4022 11.1928 24.8073C11.5994 25.225 12.0942 25.5464 12.641 25.7482C13.277 25.9887 13.9494 26.1187 14.6291 26.1328C15.4964 26.1819 15.7746 26.1819 18.0001 26.1819C20.2255 26.1819 20.5037 26.1819 21.371 26.1328C22.0507 26.1187 22.7231 25.9887 23.3591 25.7482C23.907 25.5485 24.4022 25.2267 24.8073 24.8073C25.2264 24.4003 25.5505 23.9059 25.7564 23.3591C25.9897 22.7215 26.1169 22.0498 26.1328 21.371C26.1328 20.5037 26.1819 20.2255 26.1819 18.0001C26.1819 15.7746 26.1819 15.4964 26.1328 14.6291V14.6291ZM24.6601 21.2728C24.6541 21.7921 24.56 22.3067 24.3819 22.7946C24.2512 23.1507 24.0414 23.4724 23.7682 23.7355C23.5029 24.0059 23.1818 24.2153 22.8273 24.3491C22.3394 24.5273 21.8249 24.6214 21.3055 24.6273C20.4873 24.6682 20.1846 24.6764 18.0328 24.6764C15.881 24.6764 15.5782 24.6764 14.7601 24.6273C14.2208 24.6374 13.6838 24.5544 13.1728 24.3819C12.8339 24.2412 12.5275 24.0323 12.2728 23.7682C12.0012 23.5054 11.794 23.1834 11.6673 22.8273C11.4676 22.3325 11.3568 21.8062 11.3401 21.2728C11.3401 20.4546 11.291 20.1519 11.291 18.0001C11.291 15.8482 11.291 15.5455 11.3401 14.7273C11.3437 14.1964 11.4407 13.6702 11.6264 13.1728C11.7705 12.8274 11.9915 12.5196 12.2728 12.2728C12.5214 11.9915 12.8286 11.768 13.1728 11.6182C13.6715 11.4383 14.1971 11.3442 14.7273 11.3401C15.5455 11.3401 15.8482 11.291 18.0001 11.291C20.1519 11.291 20.4546 11.291 21.2728 11.3401C21.7921 11.346 22.3067 11.4401 22.7946 11.6182C23.1664 11.7562 23.5001 11.9806 23.7682 12.2728C24.0364 12.5241 24.2459 12.8314 24.3819 13.1728C24.5637 13.671 24.6578 14.197 24.6601 14.7273C24.701 15.5455 24.7091 15.8482 24.7091 18.0001C24.7091 20.1519 24.701 20.4546 24.6601 21.2728ZM18.0001 13.8028C17.1703 13.8044 16.3596 14.0519 15.6704 14.5141C14.9812 14.9763 14.4445 15.6324 14.1281 16.3995C13.8117 17.1666 13.7297 18.0103 13.8926 18.8239C14.0555 19.6376 14.4559 20.3847 15.0432 20.9709C15.6305 21.557 16.3784 21.956 17.1924 22.1173C18.0064 22.2786 18.8499 22.195 19.6163 21.877C20.3828 21.5591 21.0379 21.0211 21.4987 20.3311C21.9595 19.641 22.2055 18.8298 22.2055 18.0001C22.2066 17.4479 22.0985 16.9009 21.8874 16.3907C21.6764 15.8804 21.3665 15.4169 20.9757 15.0268C20.5848 14.6367 20.1207 14.3278 19.6101 14.1177C19.0994 13.9077 18.5522 13.8006 18.0001 13.8028V13.8028ZM18.0001 20.7246C17.4612 20.7246 16.9344 20.5648 16.4864 20.2654C16.0383 19.9661 15.6891 19.5405 15.4829 19.0427C15.2767 18.5448 15.2227 17.997 15.3279 17.4685C15.433 16.94 15.6925 16.4545 16.0735 16.0735C16.4545 15.6925 16.94 15.433 17.4685 15.3279C17.997 15.2227 18.5448 15.2767 19.0427 15.4829C19.5405 15.6891 19.9661 16.0383 20.2654 16.4864C20.5648 16.9344 20.7246 17.4612 20.7246 18.0001C20.7246 18.3578 20.6541 18.7121 20.5172 19.0427C20.3803 19.3733 20.1796 19.6736 19.9266 19.9266C19.6736 20.1796 19.3733 20.3803 19.0427 20.5172C18.7121 20.6541 18.3578 20.7246 18.0001 20.7246V20.7246Z" fill="#9D9D9D"/>
<circle cx="18" cy="18" r="17.5" stroke="#9D9D9D"/>
</svg>
