<svg width="17" height="16" viewBox="0 0 17 16" fill="none" xmlns="http://www.w3.org/2000/svg">
<path d="M8.5 0H8.47957C3.79231 0.0115385 0 3.58846 0 8C0 12.4115 3.79231 15.9885 8.47957 16H8.5C13.1954 16 17 12.4192 17 8C17 3.58077 13.1954 0 8.5 0ZM8.83918 4.78846C9.74231 4.76538 10.6168 4.65385 11.4627 4.46154C11.7161 5.40385 11.8755 6.49231 11.9 7.68462H8.83918V4.78846ZM8.83918 4.14615V0.692308C9.75457 0.930769 10.6863 2.08077 11.2748 3.84615C10.4901 4.02308 9.67692 4.12308 8.83918 4.14615ZM8.16082 0.684616V4.15C7.3149 4.12692 6.49351 4.02308 5.70481 3.84231C6.30144 2.06538 7.23726 0.907692 8.16082 0.684616ZM8.16082 4.78846V7.68077H5.07957C5.10409 6.48846 5.26346 5.4 5.51683 4.45769C6.36683 4.65 7.25361 4.76538 8.16082 4.78846ZM4.39303 7.68077H0.690625C0.764183 6.03462 1.41803 4.52692 2.4601 3.33462C3.21611 3.72692 4.02115 4.05 4.86298 4.28846C4.5851 5.30769 4.42163 6.45769 4.39303 7.68077ZM4.39303 8.31923C4.41755 9.53846 4.58101 10.6923 4.85889 11.7115C4.01707 11.9538 3.21611 12.2731 2.45601 12.6654C1.41394 11.4731 0.764183 9.96538 0.686539 8.31923H4.39303ZM5.07957 8.31923H8.16082V11.2077C7.25361 11.2308 6.36683 11.3462 5.51683 11.5423C5.26346 10.6 5.10409 9.51154 5.07957 8.31923ZM8.16082 11.85V15.3192C7.23726 15.0923 6.30144 13.9385 5.70481 12.1615C6.49351 11.9769 7.3149 11.8731 8.16082 11.85ZM8.83918 15.3077V11.8462C9.67692 11.8692 10.4901 11.9731 11.2788 12.15C10.6863 13.9192 9.75865 15.0692 8.83918 15.3077ZM8.83918 11.2077V8.31923H11.9C11.8755 9.50769 11.7161 10.5962 11.4627 11.5385C10.6168 11.3462 9.74231 11.2308 8.83918 11.2077ZM12.5825 8.31923H16.3094C16.2358 9.96538 15.582 11.4692 14.5399 12.6654C13.7757 12.2692 12.9666 11.9462 12.1166 11.7038C12.3945 10.6846 12.5579 9.53846 12.5825 8.31923ZM12.5825 7.68077C12.5579 6.46154 12.3945 5.31154 12.1207 4.29231C12.9707 4.05 13.7798 3.72692 14.5399 3.33462C15.582 4.52692 16.2358 6.03462 16.3094 7.68462H12.5825V7.68077ZM14.074 2.84231C13.3957 3.18077 12.6846 3.46154 11.9368 3.67308C11.5404 2.46923 10.9805 1.48846 10.3226 0.842308C11.7692 1.16923 13.0606 1.87692 14.074 2.84231ZM6.65288 0.85C5.99495 1.49231 5.43918 2.47308 5.04688 3.66923C4.30721 3.45769 3.60024 3.18077 2.93005 2.84231C3.93125 1.88077 5.21442 1.17692 6.65288 0.85ZM2.92596 13.1538C3.59615 12.8154 4.30721 12.5385 5.04279 12.3269C5.43918 13.5269 5.99495 14.5038 6.65288 15.15C5.21442 14.8231 3.93125 14.1192 2.92596 13.1538ZM10.3226 15.1577C10.9846 14.5115 11.5404 13.5308 11.9409 12.3231C12.6887 12.5346 13.3998 12.8154 14.0781 13.1538C13.0647 14.1231 11.7692 14.8308 10.3226 15.1577Z" fill="#9D68C2"/>
</svg>
