<svg width="128" height="128" viewBox="0 0 128 128" fill="none" xmlns="http://www.w3.org/2000/svg">
<g filter="url(#filter0_d_256_5302)">
<path d="M57.3072 13.0266C60.9872 9.87996 67.0139 9.87996 70.7472 13.0266L79.1739 20.28C80.7739 21.6666 83.7606 22.7866 85.8939 22.7866H94.9606C100.614 22.7866 105.254 27.4266 105.254 33.08V42.1466C105.254 44.2266 106.374 47.2666 107.761 48.8666L115.014 57.2933C118.161 60.9733 118.161 67 115.014 70.7333L107.761 79.16C106.374 80.76 105.254 83.7466 105.254 85.88V94.9466C105.254 100.6 100.614 105.24 94.9606 105.24H85.8939C83.8139 105.24 80.7739 106.36 79.1739 107.747L70.7472 115C67.0672 118.147 61.0406 118.147 57.3072 115L48.8806 107.747C47.2806 106.36 44.2939 105.24 42.1606 105.24H32.9339C27.2806 105.24 22.6406 100.6 22.6406 94.9466V85.8266C22.6406 83.7466 21.5206 80.76 20.1872 79.16L12.9872 70.68C9.8939 67 9.8939 61.0266 12.9872 57.3466L20.1872 48.8666C21.5206 47.2666 22.6406 44.28 22.6406 42.2V33.08C22.6406 27.4266 27.2806 22.7866 32.9339 22.7866H42.1606C44.2406 22.7866 47.2806 21.6666 48.8806 20.28L57.3072 13.0266Z" fill="url(#paint0_linear_256_5302)"/>
<path d="M22.876 76.9193L22.8553 76.8947L15.6664 68.4279C15.6648 68.4259 15.6631 68.4239 15.6615 68.422C13.6692 66.0451 13.6692 61.9816 15.6615 59.6046C15.6631 59.6027 15.6648 59.6007 15.6664 59.5987L22.8553 51.1319L22.876 51.1073C23.8709 49.9134 24.6579 48.3826 25.1962 46.9283C25.7328 45.4788 26.1406 43.7862 26.1406 42.2V33.08C26.1406 29.3596 29.2136 26.2866 32.9339 26.2866H42.1606C43.7444 26.2866 45.4505 25.88 46.9197 25.3341C48.3875 24.7887 49.9543 23.9796 51.1684 22.9287C51.1699 22.9274 51.1714 22.9261 51.1728 22.9249L59.5818 15.6867C59.5831 15.6857 59.5843 15.6846 59.5855 15.6836C61.9432 13.6713 66.0394 13.6477 68.4793 15.6925L76.8817 22.9249C76.8836 22.9265 76.8855 22.9282 76.8875 22.9299C78.0925 23.9726 79.6383 24.7825 81.1089 25.3319C82.5821 25.8823 84.2881 26.2866 85.8939 26.2866H94.9606C98.6809 26.2866 101.754 29.3596 101.754 33.08V42.1466C101.754 43.7305 102.161 45.4366 102.706 46.9057C103.252 48.3729 104.06 49.939 105.11 51.1529C105.112 51.1549 105.114 51.1569 105.116 51.1589L112.354 59.5679C112.355 59.569 112.356 59.57 112.357 59.5711C114.369 61.9287 114.393 66.0253 112.348 68.4653L105.116 76.8677C105.114 76.8694 105.113 76.8712 105.111 76.8729C104.068 78.0781 103.258 79.6241 102.709 81.095C102.158 82.5682 101.754 84.2741 101.754 85.88V94.9466C101.754 98.667 98.6809 101.74 94.9606 101.74H85.8939C84.31 101.74 82.6039 102.147 81.1348 102.692C79.6679 103.238 78.1022 104.046 76.8884 105.096C76.8861 105.098 76.8839 105.1 76.8817 105.102L68.4726 112.34C68.4714 112.341 68.4702 112.342 68.469 112.343C66.1112 114.355 62.0147 114.379 59.5749 112.334L51.1728 105.102C51.1708 105.1 51.1689 105.098 51.1669 105.097C49.9618 104.054 48.4161 103.244 46.9455 102.695C45.4724 102.144 43.7664 101.74 42.1606 101.74H32.9339C29.2136 101.74 26.1406 98.667 26.1406 94.9466V85.8266C26.1406 84.2404 25.7328 82.5478 25.1962 81.0983C24.6579 79.644 23.8709 78.1132 22.876 76.9193Z" stroke="white" stroke-opacity="0.3" stroke-width="7" stroke-linecap="round" stroke-linejoin="round"/>
</g>
<g clip-path="url(#clip0_256_5302)">
<path d="M85.2623 56.1338L83.0207 42.8285C82.8953 42.118 82.5007 41.487 81.9229 41.073C81.3451 40.659 80.6309 40.4954 79.9358 40.618C75.4114 46.239 67.5965 53.839 56.8613 55.7127L43.7816 58.0075C43.2641 58.0967 42.7689 58.2896 42.3244 58.575C41.8798 58.8604 41.4946 59.2328 41.1909 59.6709C40.8871 60.1089 40.6708 60.604 40.5542 61.1278C40.4377 61.6516 40.4232 62.1937 40.5117 62.7233L41.869 70.7443C41.956 71.2734 42.1445 71.7796 42.4236 72.2337C42.7027 72.6878 43.067 73.0808 43.4953 73.3901C43.9235 73.6993 44.4074 73.9187 44.919 74.0355C45.4305 74.1523 45.9596 74.1642 46.4757 74.0706L47.8535 73.839C48.2443 78.8285 50.5682 82.5969 52.3369 86.1127C52.5373 86.5063 52.8263 86.8455 53.18 87.1022C54.8434 88.3103 56.9064 88.7948 58.9178 88.4496C60.2125 88.2332 61.4189 87.6397 62.3927 86.7399C63.3664 85.8401 64.0664 84.6722 64.4088 83.3759C64.5895 82.733 64.5319 82.0445 64.2473 81.4423C63.9627 80.8401 63.471 80.3667 62.8664 80.1127C60.3368 79.0601 59.9255 78.7022 60.234 77.8601C60.4231 77.3198 60.4414 76.7322 60.2864 76.1807C60.1314 75.6291 59.8109 75.1413 59.3703 74.7864C59.0932 74.3045 58.983 73.7409 59.0577 73.1869C59.1323 72.6329 59.3874 72.1209 59.7816 71.7338C70.3317 69.9654 80.1826 74.4075 86.2494 78.0496C86.9255 77.9071 87.5199 77.4986 87.9046 76.9118C88.2893 76.3251 88.4334 75.6072 88.306 74.9127L86.0644 61.5022C86.7404 61.3598 87.3349 60.9512 87.7195 60.3645C88.1042 59.7777 88.2483 59.0598 88.1209 58.3654C88.0095 57.6917 87.6524 57.0865 87.1217 56.6723C86.591 56.258 85.9264 56.0655 85.2623 56.1338V56.1338ZM61.8587 82.5338C61.6365 83.2498 61.2483 83.9001 60.7272 84.429C60.206 84.958 59.5676 85.3499 58.8663 85.5713C58.165 85.7926 57.4218 85.8369 56.7001 85.7002C55.9785 85.5635 55.3 85.25 54.7225 84.7864C52.9538 81.2496 50.7739 77.7969 50.4859 73.2706L56.5117 72.218C56.2691 73.0272 56.2563 73.8903 56.4748 74.7066C56.6933 75.523 57.134 76.2589 57.7456 76.8285C56.5939 80.0285 59.1441 81.3969 61.8587 82.5338ZM44.5014 70.1969L43.144 62.1548C43.0844 61.7975 43.1657 61.4306 43.37 61.1346C43.5744 60.8386 43.8851 60.6376 44.234 60.5759L58.6299 58.0496L60.4191 68.7654L46.0232 71.2917C45.8528 71.3249 45.6776 71.3227 45.508 71.2853C45.3385 71.2479 45.1779 71.176 45.036 71.0739C44.8941 70.9718 44.7736 70.8416 44.6818 70.691C44.5899 70.5403 44.5286 70.3723 44.5014 70.1969V70.1969ZM85.6325 74.5338C82.3708 72.69 78.9229 71.2147 75.3497 70.1338C71.3507 68.9103 67.1806 68.3767 63.0104 68.5548L61.1184 57.3338C65.0742 56.0689 68.8037 54.1564 72.162 51.6706C75.1643 49.4172 77.9221 46.8411 80.3883 43.9864L85.6325 74.5338Z" fill="white"/>
</g>
<circle cx="40.9411" cy="59.7647" r="5.17647" fill="#FF0000"/>
<defs>
<filter id="filter0_d_256_5302" x="6.66724" y="10.6666" width="114.707" height="114.693" filterUnits="userSpaceOnUse" color-interpolation-filters="sRGB">
<feFlood flood-opacity="0" result="BackgroundImageFix"/>
<feColorMatrix in="SourceAlpha" type="matrix" values="0 0 0 0 0 0 0 0 0 0 0 0 0 0 0 0 0 0 127 0" result="hardAlpha"/>
<feOffset dy="4"/>
<feGaussianBlur stdDeviation="2"/>
<feComposite in2="hardAlpha" operator="out"/>
<feColorMatrix type="matrix" values="0 0 0 0 0 0 0 0 0 0 0 0 0 0 0 0 0 0 0.35 0"/>
<feBlend mode="normal" in2="BackgroundImageFix" result="effect1_dropShadow_256_5302"/>
<feBlend mode="normal" in="SourceGraphic" in2="effect1_dropShadow_256_5302" result="shape"/>
</filter>
<linearGradient id="paint0_linear_256_5302" x1="64.0206" y1="10.6666" x2="64.0206" y2="117.36" gradientUnits="userSpaceOnUse">
<stop stop-color="#FFB800"/>
<stop offset="1" stop-color="#FF8A00"/>
</linearGradient>
<clipPath id="clip0_256_5302">
<rect width="48" height="48" fill="white" transform="translate(40.4706 40.4706)"/>
</clipPath>
</defs>
</svg>
