<svg width="36" height="36" viewBox="0 0 36 36" fill="none" xmlns="http://www.w3.org/2000/svg">
<path d="M11.7847 13.4719H11.7609C11.5097 13.4877 11.258 13.4513 11.0214 13.3652C10.7849 13.2791 10.5687 13.1451 10.3863 12.9716C10.204 12.7981 10.0594 12.5888 9.96167 12.3568C9.86395 12.1248 9.81517 11.8752 9.81839 11.6235C9.82161 11.3718 9.87675 11.1235 9.98038 10.8941C10.084 10.6647 10.2339 10.4591 10.4206 10.2903C10.6073 10.1215 10.8269 9.99311 11.0656 9.91309C11.3042 9.83308 11.5568 9.80319 11.8076 9.82531C12.0588 9.80776 12.311 9.8423 12.5482 9.92675C12.7855 10.0112 13.0027 10.1437 13.1864 10.3161C13.37 10.4884 13.5161 10.6968 13.6154 10.9283C13.7147 11.1597 13.7652 11.4092 13.7636 11.661C13.762 11.9128 13.7084 12.1616 13.6062 12.3918C13.504 12.6219 13.3553 12.8285 13.1695 12.9985C12.9837 13.1686 12.7648 13.2984 12.5265 13.3798C12.2882 13.4613 12.0357 13.4927 11.7847 13.4719V13.4719ZM10.1598 15.9265H13.4325V25.7447H10.1598V15.9265ZM22.0234 15.9265C21.4719 15.928 20.9279 16.0541 20.4321 16.2954C19.9362 16.5366 19.5013 16.8869 19.1598 17.3199V15.9265H15.887V25.7447H19.1598V21.2447C19.1598 20.8107 19.3322 20.3945 19.639 20.0876C19.9459 19.7807 20.3621 19.6083 20.7961 19.6083C21.2301 19.6083 21.6463 19.7807 21.9532 20.0876C22.2601 20.3945 22.4325 20.8107 22.4325 21.2447V25.7447H25.7052V19.6083C25.7052 18.6318 25.3173 17.6953 24.6268 17.0049C23.9364 16.3144 22.9999 15.9265 22.0234 15.9265Z" fill="#9D9D9D"/>
<circle cx="18" cy="18" r="17.5" stroke="#9D9D9D"/>
</svg>
