<svg width="160" height="54" viewBox="0 0 160 54" fill="none" xmlns="http://www.w3.org/2000/svg">
<path d="M67.6816 30.7661H0V53.3133H67.6816V30.7661Z" fill="#84B740"/>
<path d="M67.6816 0H0V22.5672H67.6816V0Z" fill="#259BD6"/>
<path d="M135.363 48.7316L135.062 48.792C134.017 48.9929 133.635 49.0733 132.871 49.0733C131.102 49.0733 129.013 48.1691 129.013 43.9088C129.013 41.7182 129.374 38.8045 132.67 38.8045H132.69C133.253 38.8446 133.896 38.9051 135.101 39.2667L135.363 39.347L135.363 48.7316ZM135.906 27.4906L135.363 27.5913V35.4686L134.881 35.3278L134.74 35.2876C134.198 35.1269 132.952 34.7653 131.746 34.7653C125.155 34.7653 123.768 39.7492 123.768 43.9287C123.768 49.656 126.983 52.9517 132.59 52.9517C134.961 52.9517 136.71 52.7106 138.478 52.1279C140.106 51.6056 140.689 50.8617 140.689 49.2742V26.6668C139.121 26.9481 137.493 27.2293 135.906 27.4906Z" fill="white"/>
<path d="M154.957 48.8724L154.675 48.9527L153.67 49.214C152.726 49.4551 151.882 49.5959 151.239 49.5959C149.691 49.5959 148.767 48.8322 148.767 47.5262C148.767 46.6821 149.149 45.2553 151.681 45.2553H154.956V48.8724H154.957ZM152.645 34.6647C150.616 34.6647 148.526 35.0263 145.934 35.8302L144.245 36.3326L144.808 40.1506L146.456 39.608C148.185 39.0451 150.335 38.6835 151.942 38.6835C152.666 38.6835 154.877 38.6835 154.877 41.075V42.12H151.802C146.195 42.12 143.603 43.9084 143.603 47.7467C143.603 51.0221 145.994 52.9915 150.013 52.9915C151.259 52.9915 152.987 52.7504 154.474 52.3885L154.555 52.3682L154.635 52.3885L155.138 52.4688C156.705 52.7501 158.333 53.0317 159.92 53.3328V40.793C159.92 36.7344 157.469 34.6647 152.645 34.6647Z" fill="white"/>
<path d="M115.911 48.8724L115.63 48.9527L114.625 49.214C113.68 49.4551 112.856 49.5959 112.193 49.5959C110.646 49.5959 109.721 48.8322 109.721 47.5262C109.721 46.6821 110.103 45.2553 112.615 45.2553H115.89V48.8724H115.911ZM113.62 34.6647C111.57 34.6647 109.5 35.0263 106.908 35.8302L105.22 36.3326L105.782 40.1506L107.43 39.608C109.159 39.0451 111.309 38.6835 112.917 38.6835C113.64 38.6835 115.851 38.6835 115.851 41.075V42.12H112.776C107.169 42.12 104.557 43.9084 104.557 47.7467C104.557 51.0221 106.949 52.9915 110.988 52.9915C112.234 52.9915 113.962 52.7504 115.449 52.3885L115.529 52.3682L115.61 52.3885L116.092 52.4688C117.679 52.7501 119.287 53.0317 120.874 53.3531V40.8133C120.895 36.7145 118.443 34.6647 113.62 34.6647Z" fill="white"/>
<path d="M94.7506 34.7048C92.1984 34.7048 90.0885 35.5489 89.3049 35.9105L89.104 36.0111L88.923 35.8703C87.8379 35.0867 86.2503 34.6846 84.0398 34.6846C82.0907 34.6846 80.262 34.9658 78.2723 35.5486C76.5642 36.0709 75.9011 36.8951 75.9011 38.4424V52.7707H81.2466V39.5276L81.5079 39.4472C82.5931 39.0856 83.2363 39.0252 83.8592 39.0252C85.4066 39.0252 86.1902 39.849 86.1902 41.4569V52.7906H91.4553V41.2357C91.4553 40.5523 91.3145 40.1505 91.2946 40.0702L91.1136 39.7285L91.4752 39.5678C92.2791 39.2062 93.1634 39.0252 94.0875 39.0252C95.1524 39.0252 96.4185 39.4473 96.4185 41.4569V52.7906H101.663V40.9345C101.663 36.7344 99.4127 34.7048 94.7506 34.7048Z" fill="white"/>
<path d="M151.018 14.7097C150.234 14.7097 148.928 14.6294 147.903 14.4285L147.601 14.368V6.63113C147.601 5.98793 147.481 5.58615 147.461 5.52571L147.3 5.20428L147.642 5.06348C147.722 5.0233 147.802 5.00303 147.903 4.96286L147.963 4.92268C148.084 4.8825 148.204 4.84232 148.325 4.80215C148.385 4.78188 148.426 4.76197 148.466 4.76197C149.652 4.44055 150.737 4.48072 151.219 4.44055H151.239C154.515 4.44055 154.896 7.35433 154.896 9.54492C154.876 13.8056 152.766 14.7097 151.018 14.7097ZM150.998 0C150.958 0 150.897 0 150.857 0C147.782 0 144.627 0.84409 143.502 2.49174C142.899 3.29565 142.558 4.30046 142.537 5.48588V13.4639C142.537 14.1472 142.396 14.4082 142.377 14.4687L142.196 14.8104H132.49V9.26403H132.469C132.349 3.41619 128.892 0.20089 123.889 0.20089H123.306H119.005C118.805 1.62774 118.644 2.63254 118.443 4.05939H123.306C125.858 4.05939 127.205 6.22971 127.205 9.56554V15.152L126.863 14.9711C126.802 14.9508 126.381 14.8104 125.717 14.8104H117.317C117.157 15.8753 116.956 17.2619 116.734 18.6486H142.557C143.441 18.4676 144.466 18.3069 145.35 18.1665C146.657 18.8097 149.088 19.151 150.756 19.151C156.363 19.151 160 15.3931 160 9.60572C159.98 3.87841 156.464 0.120534 150.998 0Z" fill="white"/>
<path d="M105.723 21H105.964C111.571 21 114.183 19.1512 114.183 14.5897C114.183 11.314 111.791 8.7017 107.772 8.7017H102.608C101.061 8.7017 100.136 7.81743 100.136 6.33049C100.136 5.32569 100.518 4.07982 103.05 4.07982H114.344C114.585 2.61279 114.705 1.68834 114.926 0.221313H103.19C97.7245 0.221313 94.9714 2.51217 94.9714 6.33049C94.9714 10.1083 97.3629 12.0777 101.382 12.0777H106.546C108.094 12.0777 109.018 13.3037 109.018 14.5897C109.018 15.4338 108.636 17.1821 106.124 17.1821H105.26L88.7214 17.1419H85.707C83.1548 17.1419 81.3664 15.6951 81.3664 12.339V10.0279C81.3664 6.53138 82.753 4.36106 85.707 4.36106H90.6101C90.8313 2.87412 90.9717 1.92941 91.173 0.522828H85.0638H84.481C79.4773 0.522828 76.0209 3.87893 75.9004 9.72641V9.94757V12.339C76.0209 18.1869 79.4773 20.9801 84.481 20.9801H85.0638H89.3643L98.3268 21.0004H103.672L105.723 21Z" fill="white"/>
</svg>
