<svg width="18" height="13" viewBox="0 0 18 13" fill="none" xmlns="http://www.w3.org/2000/svg">
<path d="M16.1171 0H1.88289C1.38369 0.000565844 0.905102 0.19833 0.552114 0.549905C0.199126 0.901481 0.000568117 1.37816 0 1.87536V11.1246C0.000568117 11.6218 0.199126 12.0985 0.552114 12.4501C0.905102 12.8017 1.38369 12.9994 1.88289 13H16.1171C16.6163 12.9994 17.0949 12.8017 17.4479 12.4501C17.8009 12.0985 17.9994 11.6218 18 11.1246V1.87536C17.9995 1.37816 17.8009 0.901476 17.4479 0.549897C17.0949 0.198318 16.6163 0.000555956 16.1171 0ZM12.7694 6.49745L17.2469 2.99735V10.8265L12.7694 6.49745ZM1.88289 0.750144H16.1171C16.4166 0.750482 16.7038 0.86914 16.9156 1.08009C17.1274 1.29103 17.2465 1.57704 17.2468 1.87536V2.04377L10.0011 7.70803C9.73618 7.91402 9.40967 8.02578 9.07359 8.02551C8.7375 8.02524 8.41118 7.91295 8.1466 7.70653L0.753157 2.04234V1.87536C0.753496 1.57704 0.87263 1.29103 1.08442 1.08009C1.29622 0.86914 1.58337 0.750482 1.88289 0.750144ZM5.36391 6.521L0.753157 10.8416V2.98873L5.36391 6.521ZM16.1171 12.2499H1.88289C1.69002 12.2497 1.50039 12.2005 1.33205 12.1067C1.16372 12.013 1.02227 11.8779 0.921186 11.7143L5.96862 6.98459L7.68514 8.2996C8.08212 8.60844 8.57141 8.77614 9.07514 8.77602C9.57887 8.77589 10.0681 8.60793 10.4649 8.29888L12.1715 6.96509L17.0808 11.7113C16.9799 11.8757 16.8383 12.0115 16.6696 12.1059C16.5008 12.2002 16.3106 12.2497 16.1171 12.2499Z" fill="#9D68C2"/>
</svg>
