<svg width="200" height="46" viewBox="0 0 200 46" fill="none" xmlns="http://www.w3.org/2000/svg">
<path d="M98.9755 29.9411V23.1837C98.9755 20.5933 97.3987 18.9039 94.6957 18.9039C93.3442 18.9039 91.8801 19.3544 90.8665 20.8185C90.0781 19.5797 88.9519 18.9039 87.2625 18.9039C86.1363 18.9039 85.01 19.2418 84.109 20.4807V19.1292H81.7439V29.9411H84.109V23.972C84.109 22.0574 85.1226 21.1564 86.6994 21.1564C88.2761 21.1564 89.0645 22.17 89.0645 23.972V29.9411H91.4296V23.972C91.4296 22.0574 92.5559 21.1564 94.02 21.1564C95.5967 21.1564 96.3851 22.17 96.3851 23.972V29.9411H98.9755ZM134.002 19.1292H130.173V15.863H127.807V19.1292H125.668V21.269H127.807V26.2245C127.807 28.7023 128.821 30.1664 131.524 30.1664C132.538 30.1664 133.664 29.8285 134.452 29.378L133.777 27.3508C133.101 27.8013 132.312 27.9139 131.749 27.9139C130.623 27.9139 130.173 27.2381 130.173 26.1119V21.269H134.002V19.1292ZM154.049 18.9039C152.697 18.9039 151.796 19.5797 151.233 20.4807V19.1292H148.868V29.9411H151.233V23.8594C151.233 22.0574 152.022 21.0438 153.486 21.0438C153.936 21.0438 154.499 21.1564 154.95 21.269L155.626 19.0165C155.175 18.9039 154.499 18.9039 154.049 18.9039ZM123.753 20.0302C122.627 19.2418 121.05 18.9039 119.361 18.9039C116.658 18.9039 114.856 20.2554 114.856 22.3953C114.856 24.1973 116.207 25.2109 118.572 25.5488L119.698 25.6614C120.937 25.8866 121.613 26.2245 121.613 26.7876C121.613 27.576 120.712 28.1391 119.135 28.1391C117.559 28.1391 116.32 27.576 115.531 27.0129L114.405 28.8149C115.644 29.7159 117.333 30.1664 119.023 30.1664C122.176 30.1664 123.978 28.7023 123.978 26.675C123.978 24.7604 122.514 23.7468 120.262 23.4089L119.135 23.2963C118.122 23.1837 117.333 22.9584 117.333 22.2827C117.333 21.4943 118.122 21.0438 119.361 21.0438C120.712 21.0438 122.064 21.6069 122.739 21.9448L123.753 20.0302ZM186.597 18.9039C185.246 18.9039 184.345 19.5797 183.782 20.4807V19.1292H181.417V29.9411H183.782V23.8594C183.782 22.0574 184.57 21.0438 186.034 21.0438C186.485 21.0438 187.048 21.1564 187.498 21.269L188.174 19.0165C187.724 18.9039 187.048 18.9039 186.597 18.9039ZM156.414 24.5351C156.414 27.8013 158.667 30.1664 162.158 30.1664C163.735 30.1664 164.861 29.8285 165.987 28.9275L164.861 27.0129C163.96 27.6886 163.059 28.0265 162.045 28.0265C160.131 28.0265 158.779 26.675 158.779 24.5351C158.779 22.5079 160.131 21.1564 162.045 21.0438C163.059 21.0438 163.96 21.3817 164.861 22.0574L165.987 20.1428C164.861 19.2418 163.735 18.9039 162.158 18.9039C158.667 18.9039 156.414 21.269 156.414 24.5351ZM178.263 24.5351V19.1292H175.898V20.4807C175.11 19.467 173.984 18.9039 172.519 18.9039C169.479 18.9039 167.113 21.269 167.113 24.5351C167.113 27.8013 169.479 30.1664 172.519 30.1664C174.096 30.1664 175.222 29.6033 175.898 28.5896V29.9411H178.263V24.5351ZM169.591 24.5351C169.591 22.6205 170.83 21.0438 172.857 21.0438C174.772 21.0438 176.123 22.5079 176.123 24.5351C176.123 26.4498 174.772 28.0265 172.857 28.0265C170.83 27.9139 169.591 26.4498 169.591 24.5351ZM141.322 18.9039C138.169 18.9039 135.916 21.1564 135.916 24.5351C135.916 27.9139 138.169 30.1664 141.435 30.1664C143.012 30.1664 144.588 29.7159 145.827 28.7023L144.701 27.0129C143.8 27.6886 142.674 28.1391 141.548 28.1391C140.083 28.1391 138.619 27.4634 138.281 25.5488H146.278V24.6478C146.39 21.1564 144.363 18.9039 141.322 18.9039ZM141.322 20.9312C142.786 20.9312 143.8 21.8322 144.025 23.5215H138.394C138.619 22.0574 139.633 20.9312 141.322 20.9312ZM200 24.5351V14.8494H197.635V20.4807C196.846 19.467 195.72 18.9039 194.256 18.9039C191.215 18.9039 188.85 21.269 188.85 24.5351C188.85 27.8013 191.215 30.1664 194.256 30.1664C195.833 30.1664 196.959 29.6033 197.635 28.5896V29.9411H200V24.5351ZM191.328 24.5351C191.328 22.6205 192.567 21.0438 194.594 21.0438C196.508 21.0438 197.86 22.5079 197.86 24.5351C197.86 26.4498 196.508 28.0265 194.594 28.0265C192.567 27.9139 191.328 26.4498 191.328 24.5351ZM112.265 24.5351V19.1292H109.9V20.4807C109.112 19.467 107.985 18.9039 106.521 18.9039C103.48 18.9039 101.115 21.269 101.115 24.5351C101.115 27.8013 103.48 30.1664 106.521 30.1664C108.098 30.1664 109.224 29.6033 109.9 28.5896V29.9411H112.265V24.5351ZM103.48 24.5351C103.48 22.6205 104.719 21.0438 106.747 21.0438C108.661 21.0438 110.013 22.5079 110.013 24.5351C110.013 26.4498 108.661 28.0265 106.747 28.0265C104.719 27.9139 103.48 26.4498 103.48 24.5351Z" fill="white"/>
<path d="M46.6059 4.84937H26.7668V40.4966H46.6059V4.84937Z" fill="#FF5F00"/>
<path d="M28.0265 22.6731C28.0265 15.4303 31.4275 9.00628 36.6549 4.84953C32.8131 1.82645 27.9635 0 22.6731 0C10.1399 0 0 10.1399 0 22.6731C0 35.2064 10.1399 45.3463 22.6731 45.3463C27.9635 45.3463 32.8131 43.5198 36.6549 40.4968C31.4275 36.403 28.0265 29.916 28.0265 22.6731Z" fill="#EB001B"/>
<path d="M73.3731 22.6731C73.3731 35.2064 63.2331 45.3463 50.6999 45.3463C45.4095 45.3463 40.56 43.5198 36.7181 40.4968C42.0085 36.34 45.3465 29.916 45.3465 22.6731C45.3465 15.4303 41.9456 9.00628 36.7181 4.84953C40.56 1.82645 45.4095 0 50.6999 0C63.2331 0 73.3731 10.2029 73.3731 22.6731Z" fill="#F79E1B"/>
</svg>
