<svg width="20" height="20" viewBox="0 0 20 20" fill="none" xmlns="http://www.w3.org/2000/svg">
<path d="M1.66663 9.16659V7.49992C1.66663 4.58325 3.33329 3.33325 5.83329 3.33325H14.1666C16.6666 3.33325 18.3333 4.58325 18.3333 7.49992V12.4999C18.3333 15.4166 16.6666 16.6666 14.1666 16.6666H9.99996" stroke="#FFB800" stroke-miterlimit="10" stroke-linecap="round" stroke-linejoin="round"/>
<path d="M15.4166 7.91675V12.0834M1.66663 12.9167H6.11663C6.64996 12.9167 7.08329 13.3501 7.08329 13.8834V14.9501M9.99996 12.0834C10.5525 12.0834 11.0824 11.8639 11.4731 11.4732C11.8638 11.0825 12.0833 10.5526 12.0833 10.0001C12.0833 9.44755 11.8638 8.91764 11.4731 8.52694C11.0824 8.13624 10.5525 7.91675 9.99996 7.91675C9.44742 7.91675 8.91752 8.13624 8.52682 8.52694C8.13612 8.91764 7.91663 9.44755 7.91663 10.0001C7.91663 10.5526 8.13612 11.0825 8.52682 11.4732C8.91752 11.8639 9.44742 12.0834 9.99996 12.0834Z" stroke="#FFB800" stroke-miterlimit="10" stroke-linecap="round" stroke-linejoin="round"/>
<path d="M2.68329 11.8999L1.66663 12.9166L2.68329 13.9332M7.08329 17.3166H2.63329C2.09996 17.3166 1.66663 16.8832 1.66663 16.3499V15.2832" stroke="#FFB800" stroke-miterlimit="10" stroke-linecap="round" stroke-linejoin="round"/>
<path d="M6.0675 18.3334L7.08417 17.3167L6.0675 16.3" stroke="#FFB800" stroke-miterlimit="10" stroke-linecap="round" stroke-linejoin="round"/>
</svg>
