<svg width="69" height="101" viewBox="0 0 69 101" fill="none" xmlns="http://www.w3.org/2000/svg">
<path d="M0 0H69V89L34.5 66L0 89V0Z" fill="#FFB800"/>
<path d="M27.688 85.272H22.504V88.008C22.728 87.7307 23.048 87.5067 23.464 87.336C23.88 87.1547 24.3227 87.064 24.792 87.064C25.6453 87.064 26.344 87.2507 26.888 87.624C27.432 87.9973 27.8267 88.4773 28.072 89.064C28.3173 89.64 28.44 90.2587 28.44 90.92C28.44 92.1467 28.088 93.1333 27.384 93.88C26.6907 94.6267 25.6987 95 24.408 95C23.192 95 22.2213 94.696 21.496 94.088C20.7707 93.48 20.36 92.6853 20.264 91.704H22.44C22.536 92.1307 22.7493 92.472 23.08 92.728C23.4213 92.984 23.8533 93.112 24.376 93.112C25.0053 93.112 25.48 92.9147 25.8 92.52C26.12 92.1253 26.28 91.6027 26.28 90.952C26.28 90.2907 26.1147 89.7893 25.784 89.448C25.464 89.096 24.9893 88.92 24.36 88.92C23.912 88.92 23.5387 89.032 23.24 89.256C22.9413 89.48 22.728 89.7787 22.6 90.152H20.456V83.304H27.688V85.272ZM30.1449 89.016C30.1449 87.1707 30.4755 85.7253 31.1369 84.68C31.8089 83.6347 32.9182 83.112 34.4649 83.112C36.0115 83.112 37.1155 83.6347 37.7769 84.68C38.4489 85.7253 38.7849 87.1707 38.7849 89.016C38.7849 90.872 38.4489 92.328 37.7769 93.384C37.1155 94.44 36.0115 94.968 34.4649 94.968C32.9182 94.968 31.8089 94.44 31.1369 93.384C30.4755 92.328 30.1449 90.872 30.1449 89.016ZM36.5769 89.016C36.5769 88.2267 36.5235 87.5653 36.4169 87.032C36.3209 86.488 36.1182 86.0453 35.8089 85.704C35.5102 85.3627 35.0622 85.192 34.4649 85.192C33.8675 85.192 33.4142 85.3627 33.1049 85.704C32.8062 86.0453 32.6035 86.488 32.4969 87.032C32.4009 87.5653 32.3529 88.2267 32.3529 89.016C32.3529 89.8267 32.4009 90.5093 32.4969 91.064C32.5929 91.608 32.7955 92.0507 33.1049 92.392C33.4142 92.7227 33.8675 92.888 34.4649 92.888C35.0622 92.888 35.5155 92.7227 35.8249 92.392C36.1342 92.0507 36.3369 91.608 36.4329 91.064C36.5289 90.5093 36.5769 89.8267 36.5769 89.016ZM40.4886 89.016C40.4886 87.1707 40.8193 85.7253 41.4806 84.68C42.1526 83.6347 43.262 83.112 44.8086 83.112C46.3553 83.112 47.4593 83.6347 48.1206 84.68C48.7926 85.7253 49.1286 87.1707 49.1286 89.016C49.1286 90.872 48.7926 92.328 48.1206 93.384C47.4593 94.44 46.3553 94.968 44.8086 94.968C43.262 94.968 42.1526 94.44 41.4806 93.384C40.8193 92.328 40.4886 90.872 40.4886 89.016ZM46.9206 89.016C46.9206 88.2267 46.8673 87.5653 46.7606 87.032C46.6646 86.488 46.462 86.0453 46.1526 85.704C45.854 85.3627 45.406 85.192 44.8086 85.192C44.2113 85.192 43.758 85.3627 43.4486 85.704C43.15 86.0453 42.9473 86.488 42.8406 87.032C42.7446 87.5653 42.6966 88.2267 42.6966 89.016C42.6966 89.8267 42.7446 90.5093 42.8406 91.064C42.9366 91.608 43.1393 92.0507 43.4486 92.392C43.758 92.7227 44.2113 92.888 44.8086 92.888C45.406 92.888 45.8593 92.7227 46.1686 92.392C46.478 92.0507 46.6806 91.608 46.7766 91.064C46.8726 90.5093 46.9206 89.8267 46.9206 89.016Z" fill="#FF3232"/>
<path d="M19 89.688H49.9766V90.488H19V89.688Z" fill="#FF3232"/>
<path d="M33.888 28.408H23.904V32.824C24.3307 32.3547 24.928 31.9707 25.696 31.672C26.464 31.3733 27.296 31.224 28.192 31.224C29.792 31.224 31.1147 31.5867 32.16 32.312C33.2267 33.0373 34.0053 33.976 34.496 35.128C34.9867 36.28 35.232 37.528 35.232 38.872C35.232 41.368 34.528 43.352 33.12 44.824C31.712 46.2747 29.728 47 27.168 47C25.4613 47 23.9787 46.712 22.72 46.136C21.4613 45.5387 20.4907 44.7173 19.808 43.672C19.1253 42.6267 18.752 41.4213 18.688 40.056H24.032C24.16 40.7173 24.4693 41.272 24.96 41.72C25.4507 42.1467 26.1227 42.36 26.976 42.36C27.9787 42.36 28.7253 42.04 29.216 41.4C29.7067 40.76 29.952 39.9067 29.952 38.84C29.952 37.7947 29.696 36.9947 29.184 36.44C28.672 35.8853 27.9253 35.608 26.944 35.608C26.2187 35.608 25.6213 35.7893 25.152 36.152C24.6827 36.4933 24.3733 36.952 24.224 37.528H18.944V23.608H33.888V28.408ZM38.2525 35C38.2525 31.3307 38.9565 28.44 40.3645 26.328C41.7938 24.216 44.0872 23.16 47.2445 23.16C50.4018 23.16 52.6845 24.216 54.0925 26.328C55.5218 28.44 56.2365 31.3307 56.2365 35C56.2365 38.712 55.5218 41.624 54.0925 43.736C52.6845 45.848 50.4018 46.904 47.2445 46.904C44.0872 46.904 41.7938 45.848 40.3645 43.736C38.9565 41.624 38.2525 38.712 38.2525 35ZM50.8605 35C50.8605 32.8453 50.6258 31.192 50.1565 30.04C49.6872 28.8667 48.7165 28.28 47.2445 28.28C45.7725 28.28 44.8018 28.8667 44.3325 30.04C43.8632 31.192 43.6285 32.8453 43.6285 35C43.6285 36.4507 43.7138 37.656 43.8845 38.616C44.0552 39.5547 44.3965 40.3227 44.9085 40.92C45.4418 41.496 46.2205 41.784 47.2445 41.784C48.2685 41.784 49.0365 41.496 49.5485 40.92C50.0818 40.3227 50.4338 39.5547 50.6045 38.616C50.7752 37.656 50.8605 36.4507 50.8605 35Z" fill="white"/>
<path d="M48.172 63.098C47.528 63.098 46.9493 62.986 46.436 62.762C45.932 62.5287 45.5353 62.2113 45.246 61.81C44.9567 61.3993 44.8073 60.928 44.798 60.396H46.156C46.2027 60.8533 46.3893 61.2407 46.716 61.558C47.052 61.866 47.5373 62.02 48.172 62.02C48.7787 62.02 49.2547 61.8707 49.6 61.572C49.9547 61.264 50.132 60.872 50.132 60.396C50.132 60.0227 50.0293 59.7193 49.824 59.486C49.6187 59.2527 49.362 59.0753 49.054 58.954C48.746 58.8327 48.3307 58.702 47.808 58.562C47.164 58.394 46.646 58.226 46.254 58.058C45.8713 57.89 45.54 57.6287 45.26 57.274C44.9893 56.91 44.854 56.4247 44.854 55.818C44.854 55.286 44.9893 54.8147 45.26 54.404C45.5307 53.9933 45.9087 53.676 46.394 53.452C46.8887 53.228 47.4533 53.116 48.088 53.116C49.0027 53.116 49.7493 53.3447 50.328 53.802C50.916 54.2593 51.2473 54.866 51.322 55.622H49.922C49.8753 55.2487 49.6793 54.922 49.334 54.642C48.9887 54.3527 48.5313 54.208 47.962 54.208C47.43 54.208 46.996 54.348 46.66 54.628C46.324 54.8987 46.156 55.2813 46.156 55.776C46.156 56.1307 46.254 56.42 46.45 56.644C46.6553 56.868 46.9027 57.0407 47.192 57.162C47.4907 57.274 47.906 57.4047 48.438 57.554C49.082 57.7313 49.6 57.9087 49.992 58.086C50.384 58.254 50.72 58.52 51 58.884C51.28 59.2387 51.42 59.724 51.42 60.34C51.42 60.816 51.294 61.264 51.042 61.684C50.79 62.104 50.4167 62.4447 49.922 62.706C49.4273 62.9673 48.844 63.098 48.172 63.098ZM58.4328 63L56.1088 59.01H54.5688V63H53.2948V53.242H56.4448C57.1821 53.242 57.8028 53.368 58.3068 53.62C58.8201 53.872 59.2028 54.2127 59.4548 54.642C59.7068 55.0713 59.8328 55.5613 59.8328 56.112C59.8328 56.784 59.6368 57.3767 59.2448 57.89C58.8621 58.4033 58.2835 58.744 57.5088 58.912L59.9588 63H58.4328ZM54.5688 57.988H56.4448C57.1355 57.988 57.6535 57.82 57.9988 57.484C58.3441 57.1387 58.5168 56.6813 58.5168 56.112C58.5168 55.5333 58.3441 55.0853 57.9988 54.768C57.6628 54.4507 57.1448 54.292 56.4448 54.292H54.5688V57.988Z" fill="white"/>
</svg>
