<svg width="200" height="49" viewBox="0 0 200 49" fill="none" xmlns="http://www.w3.org/2000/svg">
<path d="M74.8027 10.9365H63.744C63.0108 10.9365 62.3387 11.4863 62.2165 12.2195L57.7564 40.569C57.6953 41.0578 58.0008 41.5465 58.5506 41.6076C58.6117 41.6076 58.6728 41.6076 58.6728 41.6076H63.9273C64.6604 41.6076 65.3325 41.0578 65.4547 40.3246L66.6767 32.6873C66.7989 31.9542 67.4098 31.4043 68.2041 31.4043H71.6867C78.9574 31.4043 83.1731 27.8606 84.2729 20.8954C84.7617 17.8405 84.2729 15.4577 82.8676 13.747C81.2791 11.914 78.4686 10.9365 74.8027 10.9365ZM76.0858 21.262C75.4748 25.2334 72.4199 25.2334 69.4872 25.2334H67.8375L68.9984 17.8405C69.0595 17.4128 69.4261 17.0463 69.9149 17.0463H70.7091C72.7254 17.0463 74.6194 17.0463 75.597 18.2071C76.0858 18.8792 76.269 19.9179 76.0858 21.262ZM107.857 21.1398H102.541C102.113 21.1398 101.686 21.4453 101.625 21.9341L101.38 23.4004L101.014 22.8506C99.8529 21.2009 97.2867 20.651 94.7817 20.651C88.9163 20.651 83.9063 25.1112 82.9287 31.2821C82.4399 34.3981 83.112 37.3308 84.8839 39.4081C86.4724 41.3021 88.7941 42.0964 91.5435 42.0964C96.2481 42.0964 98.8753 39.0415 98.8753 39.0415L98.6309 40.5079C98.5698 40.9967 98.8753 41.4854 99.4252 41.5465C99.4863 41.5465 99.5474 41.5465 99.5474 41.5465H104.313C105.046 41.5465 105.718 40.9967 105.84 40.2635L108.712 22.1174C108.773 21.6286 108.468 21.1398 107.979 21.0787C107.979 21.1398 107.918 21.1398 107.857 21.1398ZM100.464 31.4654C99.975 34.5203 97.5311 36.5365 94.4762 36.5365C92.9488 36.5365 91.7268 36.0477 90.9326 35.1313C90.1383 34.2148 89.8328 32.8706 90.0772 31.4043C90.566 28.4105 93.0099 26.3331 96.0037 26.3331C97.5311 26.3331 98.7531 26.8219 99.5474 27.7995C100.403 28.6549 100.708 29.999 100.464 31.4654ZM136.084 21.1398H130.768C130.28 21.1398 129.791 21.3842 129.485 21.8119L122.154 32.6262L119.038 22.2396C118.854 21.5675 118.243 21.1398 117.571 21.1398H112.317C111.828 21.1398 111.4 21.5675 111.4 22.0563C111.4 22.1785 111.4 22.2396 111.461 22.3618L117.327 39.5914L111.828 47.3508C111.523 47.7785 111.645 48.3284 112.072 48.6339C112.256 48.7561 112.439 48.8172 112.622 48.8172H117.938C118.427 48.8172 118.915 48.5728 119.221 48.1451L136.939 22.6062C137.245 22.1785 137.123 21.6286 136.695 21.3231C136.451 21.2009 136.267 21.1398 136.084 21.1398Z" fill="#253D80"/>
<path d="M153.741 10.9365H142.682C141.949 10.9365 141.277 11.4863 141.155 12.2195L136.695 40.569C136.634 41.0578 136.939 41.5465 137.489 41.6076C137.55 41.6076 137.611 41.6076 137.611 41.6076H143.293C143.843 41.6076 144.271 41.241 144.332 40.6912L145.615 32.6262C145.737 31.8931 146.348 31.3432 147.143 31.3432H150.625C157.896 31.3432 162.112 27.7995 163.211 20.8343C163.7 17.7794 163.211 15.3966 161.806 13.6859C160.218 11.914 157.407 10.9365 153.741 10.9365ZM155.024 21.262C154.413 25.2334 151.358 25.2334 148.426 25.2334H146.776L147.937 17.8405C147.998 17.4128 148.365 17.0463 148.853 17.0463H149.648C151.664 17.0463 153.558 17.0463 154.535 18.2071C155.024 18.8792 155.208 19.9179 155.024 21.262ZM186.795 21.1398H181.48C181.052 21.1398 180.624 21.4453 180.563 21.9341L180.319 23.4004L179.952 22.8506C178.791 21.2009 176.225 20.651 173.72 20.651C167.855 20.651 162.845 25.1112 161.867 31.2821C161.378 34.3981 162.05 37.3308 163.822 39.4081C165.411 41.3021 167.733 42.0964 170.482 42.0964C175.187 42.0964 177.814 39.0415 177.814 39.0415L177.569 40.5079C177.508 40.9967 177.814 41.4854 178.364 41.5465C178.425 41.5465 178.486 41.5465 178.486 41.5465H183.251C183.985 41.5465 184.657 40.9967 184.779 40.2635L187.651 22.1174C187.712 21.6286 187.406 21.1398 186.856 21.0787C186.917 21.1398 186.856 21.1398 186.795 21.1398ZM179.402 31.4654C178.914 34.5203 176.47 36.5365 173.415 36.5365C171.887 36.5365 170.665 36.0477 169.871 35.1313C169.077 34.2148 168.771 32.8706 169.016 31.4043C169.504 28.4105 171.948 26.3331 174.942 26.3331C176.47 26.3331 177.692 26.8219 178.486 27.7995C179.341 28.6549 179.647 29.999 179.402 31.4654ZM193.027 11.6696L188.506 40.569C188.445 41.0578 188.75 41.5465 189.3 41.6076C189.361 41.6076 189.422 41.6076 189.422 41.6076H194.005C194.738 41.6076 195.41 41.0578 195.532 40.3246L199.992 11.9751C200.053 11.4863 199.748 10.9976 199.198 10.9365C199.137 10.9365 199.076 10.9365 199.076 10.9365H193.944C193.516 10.9365 193.088 11.242 193.027 11.6696Z" fill="#189BD7"/>
<path d="M11.7494 47.1676L12.6048 41.791L10.7108 41.7299H1.72937L7.96136 2.07728C8.02246 1.83289 8.20575 1.6496 8.45014 1.6496H23.6024C28.6125 1.6496 32.0951 2.68826 33.928 4.76559C34.7834 5.74316 35.3332 6.72073 35.5776 7.88159C35.8831 9.04245 35.8831 10.4477 35.5776 12.1584V12.2806V13.3804L36.433 13.8692C37.1051 14.1747 37.655 14.6635 38.1437 15.2133C38.8769 16.0687 39.3657 17.1074 39.549 18.3293C39.7323 19.6124 39.6712 21.1398 39.3657 22.8506C38.9991 24.8668 38.327 26.5776 37.4717 27.9828C36.7385 29.2659 35.6998 30.3656 34.539 31.221C33.4392 32.0153 32.0951 32.6263 30.5676 32.9928C29.1623 33.4205 27.5127 33.6038 25.6798 33.6038H24.4578C23.6024 33.6038 22.8082 33.9093 22.1361 34.4592C21.464 35.0091 21.0363 35.7423 20.9141 36.5976L20.853 37.0864L19.3867 46.5566L19.3256 46.9232C19.3256 47.0454 19.2645 47.1065 19.2034 47.1065C19.1423 47.1676 19.0812 47.1676 19.0201 47.1676C19.0812 47.1676 11.7494 47.1676 11.7494 47.1676Z" fill="#253D80"/>
<path d="M37.2884 12.4029C37.2273 12.7084 37.1662 13.0139 37.1051 13.3194C35.15 23.5838 28.307 27.1275 19.57 27.1275H15.1099C14.0101 27.1275 13.1547 27.9218 12.9715 28.9604L10.7108 43.4407L10.0388 47.5342C9.91655 48.1452 10.3442 48.7562 11.0163 48.8173C11.0774 48.8173 11.1385 48.8173 11.1996 48.8173H19.0812C19.9977 48.8173 20.792 48.1452 20.9753 47.2287L21.0364 46.801L22.5027 37.392L22.6249 36.9032C22.7471 35.9867 23.5414 35.3146 24.519 35.3146H25.6798C33.3171 35.3146 39.3047 32.1986 41.0765 23.2172C41.8097 19.4903 41.4431 16.3132 39.488 14.1136C38.877 13.3805 38.1438 12.8306 37.2884 12.4029Z" fill="#189BD7"/>
<path d="M35.2112 11.5475C34.6002 11.3642 33.9282 11.242 33.2561 11.1198C31.973 10.9365 30.6289 10.8143 29.3458 10.8143H17.4317C16.5152 10.8143 15.721 11.4864 15.5377 12.4029L13.0327 28.4105L12.9716 28.8993C13.1549 27.8607 14.0713 27.0664 15.11 27.0664H19.5701C28.3071 27.0664 35.1501 23.5227 37.1663 13.2582C37.2274 12.9528 37.2885 12.6473 37.3496 12.3418C36.7998 12.0363 36.2499 11.853 35.7 11.6697C35.5167 11.6697 35.3945 11.6086 35.2112 11.5475Z" fill="#242E65"/>
<path d="M15.5987 12.464C15.7209 11.5475 16.5152 10.8754 17.4927 10.8754H29.3457C30.751 10.8754 32.0951 10.9976 33.256 11.1809C34.0503 11.3031 34.8445 11.4864 35.6388 11.7308C36.2498 11.9141 36.7997 12.1585 37.2885 12.4029C37.8994 8.61481 37.2885 6.0487 35.2111 3.66588C33.0116 1.09976 28.918 0 23.6636 0H8.51133C7.47266 0 6.55619 0.794273 6.3729 1.83294L0.0187135 41.9132C-0.103482 42.6464 0.385301 43.3184 1.11848 43.3795C1.17957 43.3795 1.24067 43.3795 1.30177 43.3795H10.6498L13.0326 28.4716L15.5987 12.464Z" fill="#253D80"/>
</svg>
