<svg width="13" height="16" viewBox="0 0 13 16" fill="none" xmlns="http://www.w3.org/2000/svg">
<path d="M7.59998 3.45H4.79998M11.8 4.5V11.5C11.8 14.3 11.1 15 8.29998 15H4.09998C1.29998 15 0.599976 14.3 0.599976 11.5V4.5C0.599976 1.7 1.29998 1 4.09998 1H8.29998C11.1 1 11.8 1.7 11.8 4.5Z" stroke="#9D68C2" stroke-linecap="round" stroke-linejoin="round"/>
<path d="M6.19999 12.9699C6.48775 12.9699 6.76372 12.8556 6.9672 12.6521C7.17068 12.4487 7.28499 12.1727 7.28499 11.8849C7.28499 11.5972 7.17068 11.3212 6.9672 11.1177C6.76372 10.9142 6.48775 10.7999 6.19999 10.7999C5.91223 10.7999 5.63626 10.9142 5.43278 11.1177C5.2293 11.3212 5.11499 11.5972 5.11499 11.8849C5.11499 12.1727 5.2293 12.4487 5.43278 12.6521C5.63626 12.8556 5.91223 12.9699 6.19999 12.9699V12.9699Z" stroke="#9D68C2" stroke-linecap="round" stroke-linejoin="round"/>
</svg>
