<svg width="100" height="14" viewBox="0 0 100 14" fill="none" xmlns="http://www.w3.org/2000/svg">
<path d="M96.9792 8.70889C96.7883 8.89383 96.7006 9.16128 96.7441 9.42358L97.3991 13.0486C97.4544 13.3558 97.3247 13.6668 97.0676 13.8443C96.8156 14.0285 96.4803 14.0506 96.2055 13.9033L92.9423 12.2013C92.8288 12.1409 92.7028 12.1085 92.5739 12.1048H92.3742C92.3049 12.1151 92.2372 12.1372 92.1753 12.1711L88.9113 13.8812C88.7499 13.9622 88.5672 13.991 88.3882 13.9622C87.952 13.8797 87.6609 13.4642 87.7324 13.0258L88.3882 9.40074C88.4316 9.13623 88.3439 8.8673 88.1531 8.67942L85.4926 6.10064C85.27 5.88476 85.1927 5.56058 85.2944 5.26807C85.3931 4.9763 85.6451 4.76337 85.9494 4.71547L89.6112 4.18425C89.8897 4.15551 90.1344 3.98605 90.2596 3.73554L91.8732 0.42734C91.9115 0.353661 91.9609 0.285876 92.0205 0.228406L92.0869 0.17683C92.1215 0.138517 92.1613 0.106835 92.2055 0.0810472L92.2858 0.0515755L92.411 0H92.7212C92.9983 0.0287349 93.2421 0.194513 93.3696 0.442076L95.0046 3.73554C95.1224 3.97647 95.3516 4.14372 95.6161 4.18425L99.278 4.71547C99.5874 4.75968 99.846 4.97335 99.9484 5.26807C100.045 5.56352 99.9617 5.88771 99.7348 6.10064L96.9792 8.70889Z" fill="#FFB800"/>
<path d="M75.6665 8.70889C75.4757 8.89383 75.388 9.16128 75.4315 9.42358L76.0865 13.0486C76.1418 13.3558 76.0121 13.6668 75.755 13.8443C75.503 14.0285 75.1677 14.0506 74.8929 13.9033L71.6296 12.2013C71.5162 12.1409 71.3902 12.1085 71.2613 12.1048H71.0616C70.9923 12.1151 70.9245 12.1372 70.8626 12.1711L67.5987 13.8812C67.4373 13.9622 67.2546 13.991 67.0755 13.9622C66.6393 13.8797 66.3483 13.4642 66.4198 13.0258L67.0755 9.40074C67.119 9.13623 67.0313 8.8673 66.8405 8.67942L64.1799 6.10064C63.9574 5.88476 63.8801 5.56058 63.9817 5.26807C64.0805 4.9763 64.3325 4.76337 64.6367 4.71547L68.2986 4.18425C68.5771 4.15551 68.8217 3.98605 68.947 3.73554L70.5606 0.42734C70.5989 0.353661 70.6482 0.285876 70.7079 0.228406L70.7742 0.17683C70.8089 0.138517 70.8486 0.106835 70.8929 0.0810472L70.9732 0.0515755L71.0984 0H71.4086C71.6856 0.0287349 71.9295 0.194513 72.057 0.442076L73.6919 3.73554C73.8098 3.97647 74.039 4.14372 74.3035 4.18425L77.9653 4.71547C78.2748 4.75968 78.5334 4.97335 78.6358 5.26807C78.7323 5.56352 78.6491 5.88771 78.4221 6.10064L75.6665 8.70889Z" fill="#FFB800"/>
<path d="M54.354 8.70889C54.1632 8.89383 54.0755 9.16128 54.119 9.42358L54.774 13.0486C54.8293 13.3558 54.6996 13.6668 54.4425 13.8443C54.1905 14.0285 53.8552 14.0506 53.5804 13.9033L50.3171 12.2013C50.2037 12.1409 50.0777 12.1085 49.9488 12.1048H49.7491C49.6798 12.1151 49.612 12.1372 49.5501 12.1711L46.2862 13.8812C46.1248 13.9622 45.9421 13.991 45.763 13.9622C45.3268 13.8797 45.0358 13.4642 45.1073 13.0258L45.763 9.40074C45.8065 9.13623 45.7188 8.8673 45.528 8.67942L42.8674 6.10064C42.6449 5.88476 42.5676 5.56058 42.6692 5.26807C42.768 4.9763 43.02 4.76337 43.3242 4.71547L46.9861 4.18425C47.2646 4.15551 47.5092 3.98605 47.6345 3.73554L49.2481 0.42734C49.2864 0.353661 49.3357 0.285876 49.3954 0.228406L49.4617 0.17683C49.4964 0.138517 49.5361 0.106835 49.5804 0.0810472L49.6607 0.0515755L49.7859 0H50.0961C50.3731 0.0287349 50.617 0.194513 50.7445 0.442076L52.3794 3.73554C52.4973 3.97647 52.7265 4.14372 52.991 4.18425L56.6528 4.71547C56.9623 4.75968 57.2209 4.97335 57.3233 5.26807C57.4198 5.56352 57.3366 5.88771 57.1096 6.10064L54.354 8.70889Z" fill="#FFB800"/>
<path d="M33.0414 8.70889C32.8506 8.89383 32.7629 9.16128 32.8064 9.42358L33.4614 13.0486C33.5166 13.3558 33.387 13.6668 33.1298 13.8443C32.8778 14.0285 32.5426 14.0506 32.2678 13.9033L29.0045 12.2013C28.8911 12.1409 28.7651 12.1085 28.6361 12.1048H28.4365C28.3672 12.1151 28.2994 12.1372 28.2375 12.1711L24.9735 13.8812C24.8122 13.9622 24.6294 13.991 24.4504 13.9622C24.0142 13.8797 23.7232 13.4642 23.7947 13.0258L24.4504 9.40074C24.4939 9.13623 24.4062 8.8673 24.2154 8.67942L21.5548 6.10064C21.3323 5.88476 21.2549 5.56058 21.3566 5.26807C21.4553 4.9763 21.7073 4.76337 22.0116 4.71547L25.6735 4.18425C25.952 4.15551 26.1966 3.98605 26.3219 3.73554L27.9354 0.42734C27.9738 0.353661 28.0231 0.285876 28.0828 0.228406L28.1491 0.17683C28.1837 0.138517 28.2235 0.106835 28.2677 0.0810472L28.348 0.0515755L28.4733 0H28.7835C29.0605 0.0287349 29.3044 0.194513 29.4319 0.442076L31.0668 3.73554C31.1847 3.97647 31.4138 4.14372 31.6783 4.18425L35.3402 4.71547C35.6497 4.75968 35.9083 4.97335 36.0107 5.26807C36.1072 5.56352 36.024 5.88771 35.797 6.10064L33.0414 8.70889Z" fill="#FFB800"/>
<path d="M11.7289 8.70889C11.5381 8.89383 11.4504 9.16128 11.4939 9.42358L12.1489 13.0486C12.2041 13.3558 12.0745 13.6668 11.8173 13.8443C11.5653 14.0285 11.2301 14.0506 10.9553 13.9033L7.69203 12.2013C7.57856 12.1409 7.45257 12.1085 7.32363 12.1048H7.12396C7.0547 12.1151 6.98692 12.1372 6.92502 12.1711L3.66103 13.8812C3.49967 13.9622 3.31695 13.991 3.13791 13.9622C2.70173 13.8797 2.41069 13.4642 2.48216 13.0258L3.13791 9.40074C3.18138 9.13623 3.0937 8.8673 2.90287 8.67942L0.242313 6.10064C0.0198019 5.88476 -0.0575613 5.56058 0.0441161 5.26807C0.142846 4.9763 0.394829 4.76337 0.699125 4.71547L4.36098 4.18425C4.63949 4.15551 4.88411 3.98605 5.00936 3.73554L6.62294 0.42734C6.66125 0.353661 6.71062 0.285876 6.7703 0.228406L6.83661 0.17683C6.87124 0.138517 6.91103 0.106835 6.95523 0.0810472L7.03554 0.0515755L7.1608 0H7.47099C7.74802 0.0287349 7.9919 0.194513 8.11936 0.442076L9.75431 3.73554C9.8722 3.97647 10.1013 4.14372 10.3658 4.18425L14.0277 4.71547C14.3372 4.75968 14.5958 4.97335 14.6982 5.26807C14.7947 5.56352 14.7115 5.88771 14.4845 6.10064L11.7289 8.70889Z" fill="#FFB800"/>
</svg>
