<svg width="264" height="349" viewBox="0 0 264 349" fill="none" xmlns="http://www.w3.org/2000/svg">
<path style="mix-blend-mode:multiply" opacity="0.5" d="M168 353C217.153 353 257 344.046 257 333C257 321.954 217.153 313 168 313C118.847 313 78.9999 321.954 78.9999 333C78.9999 344.046 118.847 353 168 353Z" fill="url(#paint0_radial_1_357)"/>
<path d="M162.197 267.958C161.588 275.572 149.558 299.949 140.118 306.571C138.707 307.748 136.889 308.318 135.06 308.156C128.28 306.85 125.011 274.3 124.629 255.969C124.525 248.877 124.855 243.946 125.585 243.772C131.791 242.117 162.927 258.897 162.197 267.958Z" fill="url(#paint1_linear_1_357)"/>
<path d="M97.5962 220.998L97.5093 221.085C74.9964 247.118 55.9431 289.686 55.9431 289.686L0 270.99L12.2908 264.769L97.5962 220.998Z" fill="#87B62D"/>
<path d="M162.197 270.449C162.197 270.449 153.87 274.98 140.866 268.445C130.696 263.34 123.916 246.717 125.637 243.772C127.358 240.827 166.908 258.635 162.197 270.449Z" fill="url(#paint2_linear_1_357)"/>
<path style="mix-blend-mode:multiply" opacity="0.3" d="M162.197 267.958C161.588 275.572 149.558 299.949 140.118 306.571C147.194 298.416 147.437 281.775 142.935 274.161C139.458 268.393 129.41 259.82 124.681 256.004C124.577 248.912 124.907 243.981 125.637 243.807C131.791 242.117 162.927 258.897 162.197 267.958Z" fill="url(#paint3_linear_1_357)"/>
<path d="M135.946 198.555C135.946 198.555 100.186 218.889 91.7898 218.071C83.3931 217.252 87.0438 198.119 87.0438 198.119C88.1564 196.795 89.4081 195.436 90.7293 194.024C104.185 179.788 127.115 161.667 140.31 153.041C145.855 149.4 149.68 147.448 150.323 148.18C155.312 153.616 135.946 198.555 135.946 198.555Z" fill="url(#paint4_linear_1_357)"/>
<path d="M87.0438 198.119C87.0438 198.119 91.7203 194.181 97.4745 199.478C103.229 204.775 97.2833 217.461 91.6855 218.105C86.0877 218.75 82.802 206.361 87.0438 198.119Z" fill="url(#paint5_linear_1_357)"/>
<path style="mix-blend-mode:multiply" opacity="0.3" d="M135.946 198.555C135.946 198.555 100.186 218.889 91.7898 218.071C83.3931 217.252 87.0438 198.119 87.0438 198.119C88.1564 196.795 89.4081 195.436 90.7293 194.024C90.7293 194.024 99.4215 199.252 115.589 196.725C131.757 194.199 140.31 153.041 140.31 153.041C145.855 149.4 149.68 147.448 150.323 148.18C155.312 153.616 135.946 198.555 135.946 198.555Z" fill="url(#paint6_linear_1_357)"/>
<path d="M111.069 19.9861C111.069 19.9861 98.9869 32.7584 97.6483 56.3515C96.3097 79.9446 123.569 45.8967 123.569 45.8967L111.069 19.9861Z" fill="url(#paint7_linear_1_357)"/>
<path d="M103.246 45.8619C103.246 45.8619 108.722 16.7974 117.727 10.6291C126.732 4.46073 142.935 10.0366 142.935 10.0366L103.246 45.8619Z" fill="url(#paint8_linear_1_357)"/>
<path d="M242.217 113.836C221.773 146.037 120.526 151.16 103.142 135.059C96.2596 128.496 91.5357 119.986 89.5994 110.664C80.2466 69.8905 111.869 9.28732 164.352 3.36291C199.886 -0.644777 229.596 28.8204 241.991 60.2547C249.78 79.9098 250.788 100.332 242.217 113.836Z" fill="url(#paint9_linear_1_357)"/>
<path d="M222.382 129.326C208.289 135.223 193.53 139.372 178.434 141.68C154.93 144.817 137.633 144.451 127.671 141.924C121.1 140.182 117.71 137.673 117.745 134.571C117.745 132.672 122.16 130.407 129.236 128.107C150.097 121.363 194.045 114.271 218.331 114.69C220.417 114.69 222.364 114.812 224.137 114.968L225.233 115.09H225.441C229.683 115.543 232.76 116.397 234.255 117.721C234.608 118.013 234.888 118.383 235.072 118.802C236.376 121.781 230.831 125.615 222.382 129.326Z" fill="url(#paint10_linear_1_357)"/>
<path style="mix-blend-mode:multiply" opacity="0.3" d="M242.217 113.836C221.773 146.037 120.526 151.16 103.142 135.059C96.2596 128.496 91.5357 119.986 89.5994 110.664C89.5994 110.664 98.0482 122.862 118.701 122.635C139.354 122.409 198.304 111.431 209.083 100.976C219.861 90.5215 209.848 50.2703 209.848 50.2703L242.009 60.307C249.78 79.9098 250.788 100.332 242.217 113.836Z" fill="url(#paint11_linear_1_357)"/>
<path style="mix-blend-mode:multiply" opacity="0.5" d="M222.382 129.326C211.655 126.26 180.555 118.784 157.555 127.305C129.358 137.76 127.671 141.924 127.671 141.924C121.1 140.182 117.71 137.673 117.745 134.571C117.745 132.672 122.16 130.407 129.236 128.107C150.097 121.363 194.045 114.271 218.331 114.69C220.887 114.794 223.181 114.934 225.285 115.09H225.494C229.735 115.543 232.812 116.397 234.307 117.721C234.66 118.013 234.94 118.383 235.124 118.802C236.376 121.781 230.831 125.615 222.382 129.326Z" fill="url(#paint12_linear_1_357)"/>
<path d="M224.12 114.916C219.27 120.98 193.263 129.152 178.069 131.173C150.845 134.798 133.738 132.707 129.219 128.037C151.818 120.788 201.781 113.034 224.12 114.916Z" fill="url(#paint13_linear_1_357)"/>
<path d="M89.6515 112.581C95.5622 124.447 182.484 117.425 201.659 92.7519C220.834 68.0784 190.446 -1.60309 145.664 11.0995C102.968 23.2097 78.9427 91.0791 89.6515 112.581Z" fill="#DFE3FB"/>
<path d="M89.6515 110.664C95.5622 122.531 182.484 115.491 201.659 90.8177C220.834 66.1443 190.446 -3.57209 145.664 9.16539C102.968 21.2756 78.9427 89.1623 89.6515 110.664Z" fill="url(#paint14_linear_1_357)"/>
<path d="M212.89 230.895C206.77 258.775 190.812 270.833 162.197 270.449C134.173 270.066 116.997 239.607 125.985 203.852C131.757 181.026 138.467 160.778 150.41 148.18C157.237 140.799 166.501 136.15 176.487 135.094C185.075 134.083 192.133 138.701 197.87 146.559C212.646 166.999 217.601 209.341 212.89 230.895Z" fill="url(#paint15_linear_1_357)"/>
<path d="M206.005 15.3337C206.005 15.3337 201.294 58.2683 227.736 73.4626C227.736 73.4626 240.705 74.8566 248.25 66.9632C248.25 66.9632 236.498 78.0279 224.12 66.5102C211.742 54.9924 214.715 23.2271 224.12 12.8943C233.525 2.56139 247.102 5.26223 247.102 5.26223L241.765 0.365886C241.765 0.365886 221.669 -3.71151 206.005 15.3337Z" fill="url(#paint16_linear_1_357)"/>
<path style="mix-blend-mode:multiply" opacity="0.3" d="M197.852 178.394C199.5 190.448 200.498 202.581 200.842 214.742C200.842 231.975 190.273 247.135 190.273 247.135L211.725 235.582C214.156 228.238 215.171 220.498 214.715 212.773C213.707 201.221 212.768 195.959 212.768 195.959L197.852 178.394Z" fill="url(#paint17_linear_1_357)"/>
<path d="M241.765 0.365809C241.765 0.365809 227.058 -0.99332 216.784 16.0481C205.866 34.2046 213.794 65.604 227.058 70.3784C240.322 75.1528 253.708 24.3422 253.708 24.3422L246.007 4.12954C245.024 2.45807 243.54 1.14073 241.765 0.365809Z" fill="url(#paint18_linear_1_357)"/>
<path d="M260.68 43.649C258.785 53.4591 254.804 61.4745 249.467 66.5451L247.972 67.8693C245.927 69.6086 243.543 70.9019 240.972 71.6669C238.401 72.4319 235.699 72.6518 233.038 72.3127C215.132 70.03 212.733 44.0497 214.837 29.3258C217.288 12.3193 231.804 2.10839 243.347 3.5895C257.046 5.41909 264.365 24.4469 260.68 43.649Z" fill="url(#paint19_linear_1_357)"/>
<path d="M124.559 208.469C124.559 208.469 131.061 187.351 151.21 187.351C175.357 187.351 191.629 214.098 190.186 232.254C188.743 250.411 183.232 267.4 160.389 268.114C160.389 268.114 117.675 267.156 124.559 208.469Z" fill="url(#paint20_linear_1_357)"/>
<path d="M124.559 210.752C124.559 210.752 131.061 189.633 151.21 189.633C175.357 189.633 191.629 216.38 190.186 234.519C188.743 252.659 183.232 269.665 160.389 270.397C160.389 270.467 117.675 269.508 124.559 210.752Z" fill="url(#paint21_radial_1_357)"/>
<g style="mix-blend-mode:overlay">
<path d="M157.38 226.961C158.937 226.86 160.393 226.161 161.44 225.011C162.488 223.86 163.046 222.35 162.995 220.797C162.945 219.245 162.29 217.774 161.169 216.694C160.049 215.613 158.55 215.009 156.991 215.009C155.431 215.009 153.933 215.613 152.812 216.694C151.692 217.774 151.037 219.245 150.986 220.797C150.936 222.35 151.493 223.86 152.541 225.011C153.589 226.161 155.045 226.86 156.601 226.961C155.144 227.055 153.771 227.675 152.739 228.704C151.708 229.734 151.088 231.102 150.997 232.554C150.917 231.402 150.504 230.299 149.808 229.376C149.112 228.453 148.163 227.751 147.075 227.353C145.987 226.956 144.806 226.881 143.676 227.136C142.546 227.392 141.515 227.968 140.706 228.794C139.897 229.621 139.346 230.663 139.119 231.794C138.891 232.926 138.998 234.099 139.425 235.171C139.853 236.244 140.583 237.171 141.527 237.839C142.471 238.508 143.59 238.89 144.748 238.94C144.226 238.999 143.748 239.255 143.409 239.655C143.071 240.055 142.9 240.568 142.929 241.09C142.959 241.612 143.189 242.102 143.57 242.461C143.952 242.82 144.457 243.02 144.982 243.02C145.507 243.02 146.012 242.82 146.393 242.461C146.775 242.102 147.004 241.612 147.034 241.09C147.064 240.568 146.892 240.055 146.554 239.655C146.216 239.255 145.737 238.999 145.215 238.94C146.712 238.891 148.136 238.287 149.209 237.247C150.282 236.207 150.926 234.805 151.015 233.317C151.09 234.465 151.496 235.566 152.184 236.49C152.873 237.414 153.814 238.12 154.895 238.525C155.976 238.93 157.152 239.015 158.28 238.771C159.409 238.527 160.443 237.964 161.259 237.15C162.075 236.335 162.637 235.304 162.879 234.179C163.12 233.055 163.031 231.884 162.622 230.809C162.212 229.733 161.5 228.798 160.57 228.116C159.641 227.433 158.533 227.032 157.38 226.961Z" fill="white"/>
</g>
<path d="M209.274 201.866C208.213 201.866 207.101 200.977 205.971 199.478C200.912 192.718 195.54 173.237 195.644 162.398C195.644 158.199 196.514 155.307 198.495 154.958C201.712 154.401 208.266 165.308 211.447 180.625C213.272 189.546 213.742 201.866 209.274 201.866Z" fill="url(#paint22_linear_1_357)"/>
<path d="M205.971 199.478C200.912 192.718 195.54 173.237 195.644 162.398C198.826 166.511 202.598 174.875 204.702 185.295C205.696 189.954 206.122 194.716 205.971 199.478Z" fill="#6340A2"/>
<path d="M257.064 242.117C253.795 252.572 241.418 253.739 237.941 251.195C234.812 249.087 226.119 238.806 217.792 220.127C216.575 217.374 215.376 214.44 214.194 211.327C204.945 187.02 197.991 142.221 207.553 143.963C235.316 149.034 260.315 231.662 257.064 242.117Z" fill="url(#paint23_linear_1_357)"/>
<path d="M212.073 316.224C210.178 317.148 207.553 316.224 204.545 313.976C200.582 310.774 197.006 307.119 193.889 303.086C183.632 290.418 173.618 272.854 174.123 268.916C175.861 255.29 194.341 243.476 205.31 238.248C209.587 236.21 212.733 235.199 213.272 235.46C215.167 236.332 221.843 311.467 212.073 316.224Z" fill="url(#paint24_linear_1_357)"/>
<path d="M231.839 244.678C231.839 244.678 231.995 234.99 240.531 231.575C249.067 228.159 257.324 239.608 257.324 239.608C257.333 241.103 257.038 242.585 256.456 243.962C255.875 245.34 255.02 246.584 253.943 247.62C252.866 248.655 251.59 249.46 250.193 249.984C248.796 250.509 247.306 250.743 245.816 250.672C234.255 250.829 231.839 244.678 231.839 244.678Z" fill="url(#paint25_linear_1_357)"/>
<path d="M96.1359 210.212C96.1359 210.212 89.0604 221.364 81.4634 226.818C73.8664 232.272 58.8637 234.589 58.8637 234.589C58.8637 234.589 48.2592 229.693 48.2592 222.392C48.2592 222.392 59.6807 216.589 64.0094 207.407C64.0094 207.407 78.8384 202.179 85.2706 203.835C89.369 205.013 93.1056 207.206 96.1359 210.212Z" fill="url(#paint26_linear_1_357)"/>
<path d="M97.5962 220.998L97.5093 221.085C95.7708 222.967 67.7298 253.408 54.5698 285.87L0 270.989C6.18414 258.719 13.5992 247.113 22.1304 236.349C31.5685 224.155 42.4432 213.15 54.5176 203.573C69.8806 206.486 84.5195 212.407 97.5962 220.998Z" fill="url(#paint27_linear_1_357)"/>
<path d="M74.8574 206.727L86.957 214.742L71.5891 208.104L74.8574 206.727Z" fill="url(#paint28_linear_1_357)"/>
<path d="M87.0439 99.2338C78.765 103.305 71.437 109.082 65.5394 116.188C55.7519 127.985 54.9349 140.234 69.0162 136.418L74.8922 131.191C74.8922 131.191 66.565 134.048 66.0261 125.11C65.4872 116.171 87.0439 100.976 87.0439 100.976V99.2338Z" fill="url(#paint29_linear_1_357)"/>
<path d="M65.0699 129.797C61.593 135.024 70.772 137.359 78.0213 137.168C86.1746 136.941 100.221 133.317 98.2568 125.336C96.2923 117.356 73.1362 117.582 65.0699 129.797Z" fill="url(#paint30_linear_1_357)"/>
<path d="M65.7305 130.598C65.7305 131.957 94.3453 128.351 94.3279 123.193C94.3105 118.035 66.1825 120.143 65.7305 130.598Z" fill="url(#paint31_linear_1_357)"/>
<path d="M99.9431 82.628C101.994 89.3366 115.815 87.507 119.466 77.0173C123.116 66.5276 119.205 53.1628 112.147 52.6227C105.089 52.0825 95.8751 69.3504 99.9431 82.628Z" fill="url(#paint32_linear_1_357)"/>
<path d="M155.869 60.1153C155.417 61.0737 165.743 51.1764 185.909 54.8879C187.874 55.2189 164.735 41.2443 155.869 60.1153Z" fill="url(#paint33_linear_1_357)"/>
<path d="M135.599 96.8292C135.599 96.8292 154.965 91.7412 163.414 76.3203C163.535 76.3203 160.215 97.1777 135.599 96.8292Z" fill="#2F95CD"/>
<path style="mix-blend-mode:screen" opacity="0.5" d="M103.246 53.7205C105.749 56.2645 120.265 44.7642 138.345 43.1262C156.425 41.4883 179.216 55.2016 193.332 50.2181C204.545 46.2627 181.32 7.5972 151.21 9.5662C121.1 11.5352 100.778 51.1765 103.246 53.7205Z" fill="url(#paint34_linear_1_357)"/>
<path style="mix-blend-mode:screen" opacity="0.5" d="M108.809 110.856C121.746 105.158 135.542 101.666 149.628 100.523C172.923 98.6762 177.06 100.384 177.06 102.614C177.06 104.845 161.414 112.477 139.962 114.289C118.51 116.101 108.809 110.856 108.809 110.856Z" fill="url(#paint35_linear_1_357)"/>
<path style="mix-blend-mode:screen" opacity="0.5" d="M89.6514 107.197C89.6514 107.197 84.2101 91.5147 94.3278 65.9352C94.3278 65.9352 96.7616 61.7532 98.4305 62.7639C100.099 63.7745 88.7822 83.116 89.6514 107.197Z" fill="url(#paint36_linear_1_357)"/>
<path style="mix-blend-mode:screen" opacity="0.72" d="M217.705 50.0961C217.705 50.0961 219.6 66.0397 231.282 69.4724C242.965 72.905 252.457 64.4715 255.447 52.5007C255.447 52.5007 251.779 62.8161 236.567 60.1676C221.356 57.519 217.705 50.0961 217.705 50.0961Z" fill="url(#paint37_linear_1_357)"/>
<path style="mix-blend-mode:screen" opacity="0.72" d="M219.861 19.9861C219.983 22.9657 241.435 16.7974 248.25 17.7035C255.064 18.6096 257.968 26.9909 259.045 26.7818C260.123 26.5727 257.307 6.98728 244.564 5.54102C231.821 4.09477 219.757 17.93 219.861 19.9861Z" fill="url(#paint38_linear_1_357)"/>
<path style="mix-blend-mode:multiply" opacity="0.5" d="M197.87 146.525C197.87 146.525 168.316 157.676 157.034 156.404C146.047 155.167 150.167 148.546 150.41 148.18C157.237 140.799 166.501 136.15 176.487 135.094C185.075 134.083 192.202 138.666 197.87 146.525Z" fill="url(#paint39_linear_1_357)"/>
<path style="mix-blend-mode:multiply" opacity="0.3" d="M257.064 242.117C253.795 252.572 241.418 253.739 237.941 251.195C234.811 249.087 226.119 238.806 217.792 220.127C218.609 221.712 224.746 233.073 230.135 233.073C235.994 233.073 247.293 216.746 235.872 182.542C224.815 149.435 208.561 144.207 207.57 143.963C235.316 149.034 260.314 231.662 257.064 242.117Z" fill="url(#paint40_linear_1_357)"/>
<path d="M242.165 236.541C247.033 235.216 254.682 239.12 257.342 243.058C260.002 246.996 266.66 263.549 262.853 284.964C262.853 284.964 255.603 294.583 247.467 292.474C241.279 290.871 239.801 272.418 238.132 259.367C236.463 246.316 234.168 238.632 242.165 236.541Z" fill="url(#paint41_linear_1_357)"/>
<path d="M248.719 293.032C248.719 293.032 251.709 250.115 234.307 243.197C234.307 243.197 234.203 250.167 237.697 266.267C241.192 282.368 244.651 292.039 248.719 293.032Z" fill="url(#paint42_linear_1_357)"/>
<path style="mix-blend-mode:multiply" opacity="0.5" d="M247.467 269.508C247.467 269.508 243.851 276.165 241.052 277.489C239.43 278.279 237.575 278.446 235.837 277.959L244.651 257.799C246.069 261.571 247.015 265.504 247.467 269.508Z" fill="url(#paint43_linear_1_357)"/>
<path d="M244.651 257.799C244.651 257.799 241.174 246.351 233.786 244.225C233.786 244.225 227.893 251.352 232.047 276.321C232.047 276.321 236.185 280.765 240.844 275.415C242.943 269.755 244.225 263.823 244.651 257.799Z" fill="url(#paint44_linear_1_357)"/>
<path d="M240.218 254C242.6 253.756 240.044 264.734 238.775 264.612C237.506 264.49 238.288 254.209 240.218 254Z" fill="white"/>
<path style="mix-blend-mode:screen" opacity="0.72" d="M127.358 209.114C130.401 214.917 141.718 207.494 155.851 209.114C169.985 210.735 177.582 218.245 181.667 216.206C185.753 214.167 172.975 192.962 151.21 192.108C133.878 191.428 126.315 207.145 127.358 209.114Z" fill="url(#paint45_linear_1_357)"/>
<path style="mix-blend-mode:screen" opacity="0.72" d="M142.935 261.598C147.269 265.507 152.84 267.76 158.668 267.958C168.49 268.323 171.758 263.549 171.758 263.549C168.122 262.313 164.213 262.125 160.476 263.009C154.617 264.271 148.518 263.781 142.935 261.598Z" fill="url(#paint46_linear_1_357)"/>
<path style="mix-blend-mode:multiply" opacity="0.3" d="M212.073 316.224C210.178 317.148 207.553 316.224 204.545 313.976L193.889 303.103C194.914 304.044 206.84 314.412 209.083 292.788C211.447 270.136 204.215 239.642 204.215 239.642L205.241 238.196C209.517 236.157 212.664 235.147 213.203 235.408C215.167 236.332 221.843 311.467 212.073 316.224Z" fill="url(#paint47_linear_1_357)"/>
<path d="M212.768 183.064C208.561 185.556 217.236 203.068 219.27 203.503C221.304 203.939 215.689 181.374 212.768 183.064Z" fill="white"/>
<path d="M220.504 206.396C219.635 206.5 220.608 210.595 221.269 211.135C221.607 211.401 222.012 211.567 222.438 211.616C222.864 211.665 223.296 211.595 223.685 211.414C224.068 211.031 221.512 206.291 220.504 206.396Z" fill="white"/>
<path d="M178.903 163.845C177.165 163.845 174.192 180.607 175.565 181.165C176.939 181.723 178.816 178.168 180.172 172.697C181.528 167.225 180.555 163.792 178.903 163.845Z" fill="white"/>
<path d="M103.594 184.615C103.976 185.835 112.39 182.019 112.425 178.377C112.46 174.735 103.055 182.873 103.594 184.615Z" fill="white"/>
<path d="M185.718 268.132C181.98 268.968 187.456 278.116 188.239 278.465C189.021 278.813 189.786 274.98 189.125 272.192C188.552 269.752 187.022 267.853 185.718 268.132Z" fill="white"/>
<path d="M134.486 275.346C132.417 274.858 132.956 280.765 133.304 281.131C133.651 281.497 134.921 279.737 135.251 278.203C135.581 276.67 135.216 275.502 134.486 275.346Z" fill="white"/>
<path d="M189.108 279.545C188.395 280.103 190.081 283.03 190.69 282.35C190.937 281.969 191.068 281.524 191.068 281.07C191.068 280.615 190.937 280.17 190.69 279.789C190.482 279.592 190.219 279.463 189.937 279.42C189.654 279.376 189.365 279.42 189.108 279.545Z" fill="white"/>
<path d="M58.3247 201.343C58.3247 201.343 60.2892 226.905 55.578 241.96C55.578 241.96 18.3927 255.9 1.06042 270.467L57.5772 242.5C57.5772 242.5 61.4192 216.973 58.3247 201.343Z" fill="#BBE074"/>
<path style="mix-blend-mode:multiply" opacity="0.5" d="M46.3469 210.369C46.3469 210.369 50.6061 217.652 63.0012 217.565C75.3963 217.478 78.9427 211.275 78.9427 211.275L71.5891 208.104L52.275 205.229L46.3469 210.369Z" fill="url(#paint48_linear_1_357)"/>
<path style="mix-blend-mode:multiply" opacity="0.5" d="M44.7996 240.548C44.7996 245.009 51.6143 251.665 58.2552 249.801C66.5302 247.501 67.1908 235.6 62.3753 233.579C57.5598 231.557 56.256 234.554 53.6831 234.711C51.1102 234.868 44.7475 235.147 44.7996 240.548Z" fill="url(#paint49_linear_1_357)"/>
<path d="M44.7996 238.928C44.7996 243.389 51.6143 250.028 58.2552 248.181C66.5302 245.863 67.1908 233.962 62.3753 231.958C57.5598 229.954 56.256 232.916 53.6831 233.073C51.1102 233.23 44.7475 233.404 44.7996 238.928Z" fill="url(#paint50_radial_1_357)"/>
<path d="M91.7029 200.628C91.7029 200.628 84.1059 192.63 77.7953 192.125C71.4848 191.62 55.1956 198.642 50.3105 207.807C50.3105 207.807 51.0407 210.003 56.6037 211.292C62.1667 212.582 74.8748 206.727 74.8748 206.727L96.1533 210.334C95.8301 206.681 94.258 203.253 91.7029 200.628Z" fill="url(#paint51_linear_1_357)"/>
<path d="M74.8748 206.727C74.8748 206.727 85.149 203.608 86.2963 195.958L87.9305 197.196C87.9305 197.196 86.4528 205.141 74.8748 206.727Z" fill="url(#paint52_linear_1_357)"/>
<path d="M56.7602 203.503C56.8645 205.106 68.1644 199.862 68.1644 197.962C68.1644 196.063 56.5689 200.803 56.7602 203.503Z" fill="white"/>
<path style="mix-blend-mode:multiply" opacity="0.5" d="M55.7518 245.602C55.0448 245.56 54.3449 245.437 53.6657 245.236C51.4344 244.486 49.4705 243.099 48.0157 241.245C45.9818 239.085 45.4255 237.342 47.1465 235.913C49.7716 233.7 56.2212 233.3 58.4117 232.951C59.9415 232.725 60.8802 233.422 61.6625 235.304C62.0262 236.269 62.3225 237.259 62.5492 238.266C63.401 242.326 59.4026 245.863 55.7518 245.602Z" fill="url(#paint53_linear_1_357)"/>
<path d="M55.7518 245.602C55.0448 245.56 54.3449 245.437 53.6656 245.236C53.0558 244.686 52.4755 244.104 51.9272 243.493C49.8758 241.315 49.3196 239.59 51.0406 238.161C53.4571 236.14 59.0722 235.617 61.6625 235.286C62.0262 236.252 62.3224 237.242 62.5491 238.248C63.401 242.326 59.4025 245.863 55.7518 245.602Z" fill="url(#paint54_radial_1_357)"/>
<path style="mix-blend-mode:multiply" opacity="0.3" d="M97.4745 221.085C74.9616 247.118 55.9083 289.686 55.9083 289.686L-0.03479 270.989C6.14935 258.719 13.5644 247.113 22.0956 236.349C21.2438 237.708 8.41405 258.025 5.40655 263.828L12.2908 264.769L57.9597 270.554C57.9597 270.554 81.3417 236.384 97.4745 221.085Z" fill="url(#paint55_linear_1_357)"/>
<defs>
<radialGradient id="paint0_radial_1_357" cx="0" cy="0" r="1" gradientUnits="userSpaceOnUse" gradientTransform="translate(168 333.16) scale(89.0218 19.7661)">
<stop stop-color="#655571"/>
<stop offset="0.39" stop-color="#7A6C7F"/>
<stop offset="1" stop-color="white"/>
</radialGradient>
<linearGradient id="paint1_linear_1_357" x1="137.146" y1="308.453" x2="145.004" y2="245.92" gradientUnits="userSpaceOnUse">
<stop stop-color="#CBC1F7"/>
<stop offset="1" stop-color="#E8DCF7"/>
</linearGradient>
<linearGradient id="paint2_linear_1_357" x1="125.376" y1="257.712" x2="162.597" y2="257.712" gradientUnits="userSpaceOnUse">
<stop stop-color="#8879EA"/>
<stop offset="1" stop-color="#9E8CEF"/>
</linearGradient>
<linearGradient id="paint3_linear_1_357" x1="143.439" y1="306.571" x2="143.439" y2="243.667" gradientUnits="userSpaceOnUse">
<stop stop-color="#9D68C2"/>
<stop offset="1" stop-color="#CCEDFF"/>
</linearGradient>
<linearGradient id="paint4_linear_1_357" x1="113.416" y1="220.824" x2="123.021" y2="144.613" gradientUnits="userSpaceOnUse">
<stop stop-color="#CBC1F7"/>
<stop offset="1" stop-color="#D4BEF1"/>
</linearGradient>
<linearGradient id="paint5_linear_1_357" x1="93.7369" y1="217.896" x2="91.5538" y2="196.657" gradientUnits="userSpaceOnUse">
<stop stop-color="#BE9DEA"/>
<stop offset="1" stop-color="#9E8CEF"/>
</linearGradient>
<linearGradient id="paint6_linear_1_357" x1="118.753" y1="218.123" x2="118.753" y2="148.006" gradientUnits="userSpaceOnUse">
<stop stop-color="#9D68C2"/>
<stop offset="1" stop-color="#CCEDFF"/>
</linearGradient>
<linearGradient id="paint7_linear_1_357" x1="110.582" y1="64.6631" x2="110.582" y2="19.9861" gradientUnits="userSpaceOnUse">
<stop stop-color="#45FFCD"/>
<stop offset="1" stop-color="#22E0FF"/>
</linearGradient>
<linearGradient id="paint8_linear_1_357" x1="123.099" y1="45.8619" x2="123.099" y2="7.71916" gradientUnits="userSpaceOnUse">
<stop stop-color="#B9ACF4"/>
<stop offset="1" stop-color="#E1D1F5"/>
</linearGradient>
<linearGradient id="paint9_linear_1_357" x1="161.258" y1="147.1" x2="179.333" y2="3.59979" gradientUnits="userSpaceOnUse">
<stop stop-color="#CBC1F7"/>
<stop offset="1" stop-color="#E8DCF7"/>
</linearGradient>
<linearGradient id="paint10_linear_1_357" x1="117.727" y1="129.292" x2="235.246" y2="129.292" gradientUnits="userSpaceOnUse">
<stop stop-color="#8879EA"/>
<stop offset="1" stop-color="#9E8CEF"/>
</linearGradient>
<linearGradient id="paint11_linear_1_357" x1="168.942" y1="143.928" x2="168.942" y2="50.218" gradientUnits="userSpaceOnUse">
<stop stop-color="#9D68C2"/>
<stop offset="1" stop-color="#CCEDFF"/>
</linearGradient>
<linearGradient id="paint12_linear_1_357" x1="176.487" y1="141.924" x2="176.487" y2="114.672" gradientUnits="userSpaceOnUse">
<stop stop-color="#8DA4E5"/>
<stop offset="1" stop-color="#755CBB"/>
</linearGradient>
<linearGradient id="paint13_linear_1_357" x1="175.294" y1="134.471" x2="175.194" y2="116.602" gradientUnits="userSpaceOnUse">
<stop stop-color="#5E36CC"/>
<stop offset="1" stop-color="#6C4A96"/>
</linearGradient>
<linearGradient id="paint14_linear_1_357" x1="147.316" y1="116.293" x2="147.316" y2="7.63202" gradientUnits="userSpaceOnUse">
<stop stop-color="#4B29B1"/>
<stop offset="1" stop-color="#260D6F"/>
</linearGradient>
<linearGradient id="paint15_linear_1_357" x1="162.562" y1="270.728" x2="179.676" y2="134.877" gradientUnits="userSpaceOnUse">
<stop stop-color="#CBC1F7"/>
<stop offset="1" stop-color="#E8DCF7"/>
</linearGradient>
<linearGradient id="paint16_linear_1_357" x1="226.971" y1="73.5498" x2="226.971" y2="-3.16755e-05" gradientUnits="userSpaceOnUse">
<stop stop-color="#B9ACF4"/>
<stop offset="1" stop-color="#E1D1F5"/>
</linearGradient>
<linearGradient id="paint17_linear_1_357" x1="202.581" y1="247.135" x2="202.581" y2="178.394" gradientUnits="userSpaceOnUse">
<stop stop-color="#9D68C2"/>
<stop offset="1" stop-color="#CCEDFF"/>
</linearGradient>
<linearGradient id="paint18_linear_1_357" x1="232.586" y1="70.7617" x2="232.586" y2="0.348381" gradientUnits="userSpaceOnUse">
<stop stop-color="#BE9DEA"/>
<stop offset="1" stop-color="#9E8CEF"/>
</linearGradient>
<linearGradient id="paint19_linear_1_357" x1="237.889" y1="72.5043" x2="237.889" y2="3.48495" gradientUnits="userSpaceOnUse">
<stop stop-color="#45FFCD"/>
<stop offset="1" stop-color="#22E0FF"/>
</linearGradient>
<linearGradient id="paint20_linear_1_357" x1="123.812" y1="227.724" x2="190.273" y2="227.724" gradientUnits="userSpaceOnUse">
<stop stop-color="#BE9DEA"/>
<stop offset="1" stop-color="#9E8CEF"/>
</linearGradient>
<radialGradient id="paint21_radial_1_357" cx="0" cy="0" r="1" gradientUnits="userSpaceOnUse" gradientTransform="translate(158.146 257.921) scale(50.241 50.3575)">
<stop stop-color="#45FFCD"/>
<stop offset="1" stop-color="#22E0FF"/>
</radialGradient>
<linearGradient id="paint22_linear_1_357" x1="195.644" y1="178.394" x2="212.768" y2="178.394" gradientUnits="userSpaceOnUse">
<stop stop-color="#8879EA"/>
<stop offset="1" stop-color="#9E8CEF"/>
</linearGradient>
<linearGradient id="paint23_linear_1_357" x1="223.442" y1="250.062" x2="236.33" y2="147.56" gradientUnits="userSpaceOnUse">
<stop stop-color="#CBC1F7"/>
<stop offset="1" stop-color="#E8DCF7"/>
</linearGradient>
<linearGradient id="paint24_linear_1_357" x1="191.75" y1="314.255" x2="201.862" y2="233.933" gradientUnits="userSpaceOnUse">
<stop stop-color="#CBC1F7"/>
<stop offset="1" stop-color="#E8DCF7"/>
</linearGradient>
<linearGradient id="paint25_linear_1_357" x1="244.582" y1="250.672" x2="244.582" y2="230.947" gradientUnits="userSpaceOnUse">
<stop stop-color="#BE9DEA"/>
<stop offset="1" stop-color="#9E8CEF"/>
</linearGradient>
<linearGradient id="paint26_linear_1_357" x1="69.7637" y1="235.966" x2="74.0074" y2="202.338" gradientUnits="userSpaceOnUse">
<stop stop-color="#CBC1F7"/>
<stop offset="1" stop-color="#E8DCF7"/>
</linearGradient>
<linearGradient id="paint27_linear_1_357" x1="41.4097" y1="283.256" x2="57.2129" y2="204.005" gradientUnits="userSpaceOnUse">
<stop stop-color="#C8FE67"/>
<stop offset="1" stop-color="#F4FFE0"/>
</linearGradient>
<linearGradient id="paint28_linear_1_357" x1="79.6903" y1="215.474" x2="78.7472" y2="206.327" gradientUnits="userSpaceOnUse">
<stop stop-color="#BE9DEA"/>
<stop offset="1" stop-color="#9E8CEF"/>
</linearGradient>
<linearGradient id="paint29_linear_1_357" x1="69.8333" y1="137.934" x2="74.8804" y2="97.7382" gradientUnits="userSpaceOnUse">
<stop stop-color="#BE9DEA"/>
<stop offset="1" stop-color="#9E8CEF"/>
</linearGradient>
<linearGradient id="paint30_linear_1_357" x1="80.5708" y1="137.684" x2="82.3174" y2="119.419" gradientUnits="userSpaceOnUse">
<stop stop-color="#C8FE67"/>
<stop offset="1" stop-color="#F7FFE8"/>
</linearGradient>
<linearGradient id="paint31_linear_1_357" x1="80.4313" y1="129.415" x2="79.2913" y2="121.112" gradientUnits="userSpaceOnUse">
<stop stop-color="#BBDF74"/>
<stop offset="1" stop-color="#EDFFCC"/>
</linearGradient>
<linearGradient id="paint32_linear_1_357" x1="109.904" y1="86.566" x2="109.904" y2="52.6052" gradientUnits="userSpaceOnUse">
<stop stop-color="#45FFCD"/>
<stop offset="1" stop-color="#22E0FF"/>
</linearGradient>
<linearGradient id="paint33_linear_1_357" x1="170.941" y1="60.1676" x2="170.941" y2="50.218" gradientUnits="userSpaceOnUse">
<stop stop-color="#45FFCD"/>
<stop offset="1" stop-color="#22E0FF"/>
</linearGradient>
<linearGradient id="paint34_linear_1_357" x1="103.055" y1="31.7827" x2="196.201" y2="31.7827" gradientUnits="userSpaceOnUse">
<stop/>
<stop offset="1" stop-color="#6A9BFF"/>
</linearGradient>
<linearGradient id="paint35_linear_1_357" x1="108.809" y1="107.197" x2="177.06" y2="107.197" gradientUnits="userSpaceOnUse">
<stop/>
<stop offset="1" stop-color="#6A9BFF"/>
</linearGradient>
<linearGradient id="paint36_linear_1_357" x1="93.3891" y1="107.197" x2="93.3891" y2="62.6071" gradientUnits="userSpaceOnUse">
<stop/>
<stop offset="1" stop-color="#6A9BFF"/>
</linearGradient>
<linearGradient id="paint37_linear_1_357" x1="236.567" y1="70.2565" x2="236.567" y2="50.0961" gradientUnits="userSpaceOnUse">
<stop stop-color="#D4E2FF"/>
<stop offset="1"/>
</linearGradient>
<linearGradient id="paint38_linear_1_357" x1="219.861" y1="16.1178" x2="259.254" y2="16.1178" gradientUnits="userSpaceOnUse">
<stop/>
<stop offset="1" stop-color="#D4E2FF"/>
</linearGradient>
<linearGradient id="paint39_linear_1_357" x1="173.671" y1="156.491" x2="173.671" y2="134.92" gradientUnits="userSpaceOnUse">
<stop stop-color="#8DA4E5"/>
<stop offset="1" stop-color="#755CBB"/>
</linearGradient>
<linearGradient id="paint40_linear_1_357" x1="232.447" y1="252.362" x2="232.447" y2="143.946" gradientUnits="userSpaceOnUse">
<stop stop-color="#9D68C2"/>
<stop offset="1" stop-color="#CCEDFF"/>
</linearGradient>
<linearGradient id="paint41_linear_1_357" x1="261.498" y1="288.108" x2="248.833" y2="233.04" gradientUnits="userSpaceOnUse">
<stop stop-color="#CBC1F7"/>
<stop offset="1" stop-color="#E8DCF7"/>
</linearGradient>
<linearGradient id="paint42_linear_1_357" x1="249.288" y1="290.128" x2="244.173" y2="239.604" gradientUnits="userSpaceOnUse">
<stop stop-color="#BE9DEA"/>
<stop offset="1" stop-color="#9E8CEF"/>
</linearGradient>
<linearGradient id="paint43_linear_1_357" x1="246.68" y1="274.604" x2="244.701" y2="255.06" gradientUnits="userSpaceOnUse">
<stop stop-color="#8DA4E5"/>
<stop offset="1" stop-color="#755CBB"/>
</linearGradient>
<linearGradient id="paint44_linear_1_357" x1="245.278" y1="273.805" x2="237.789" y2="241.23" gradientUnits="userSpaceOnUse">
<stop stop-color="#CBC1F7"/>
<stop offset="1" stop-color="#E8DCF7"/>
</linearGradient>
<linearGradient id="paint45_linear_1_357" x1="127.254" y1="204.322" x2="182.415" y2="204.322" gradientUnits="userSpaceOnUse">
<stop/>
<stop offset="1" stop-color="#D4E2FF"/>
</linearGradient>
<linearGradient id="paint46_linear_1_357" x1="157.347" y1="267.992" x2="157.347" y2="261.598" gradientUnits="userSpaceOnUse">
<stop stop-color="#D4E2FF"/>
<stop offset="1"/>
</linearGradient>
<linearGradient id="paint47_linear_1_357" x1="205.571" y1="316.573" x2="205.571" y2="235.338" gradientUnits="userSpaceOnUse">
<stop stop-color="#9D68C2"/>
<stop offset="1" stop-color="#CCEDFF"/>
</linearGradient>
<linearGradient id="paint48_linear_1_357" x1="61.7843" y1="217.67" x2="63.1814" y2="206.588" gradientUnits="userSpaceOnUse">
<stop stop-color="#8DA4E5"/>
<stop offset="1" stop-color="#755CBB"/>
</linearGradient>
<linearGradient id="paint49_linear_1_357" x1="45.7165" y1="236.931" x2="62.3915" y2="247.305" gradientUnits="userSpaceOnUse">
<stop stop-color="#8DA4E5"/>
<stop offset="1" stop-color="#755CBB"/>
</linearGradient>
<radialGradient id="paint50_radial_1_357" cx="0" cy="0" r="1" gradientUnits="userSpaceOnUse" gradientTransform="translate(54.0396 240.508) rotate(32.0044) scale(9.67102 9.68086)">
<stop stop-color="#45FFCD"/>
<stop offset="1" stop-color="#22E0FF"/>
</radialGradient>
<linearGradient id="paint51_linear_1_357" x1="72.6495" y1="213.383" x2="75.3564" y2="191.83" gradientUnits="userSpaceOnUse">
<stop stop-color="#CBC1F7"/>
<stop offset="1" stop-color="#E8DCF7"/>
</linearGradient>
<linearGradient id="paint52_linear_1_357" x1="81.7938" y1="206.013" x2="80.8332" y2="196.517" gradientUnits="userSpaceOnUse">
<stop stop-color="#BE9DEA"/>
<stop offset="1" stop-color="#9E8CEF"/>
</linearGradient>
<linearGradient id="paint53_linear_1_357" x1="53.4919" y1="245.323" x2="55.116" y2="232.395" gradientUnits="userSpaceOnUse">
<stop stop-color="#8DA4E5"/>
<stop offset="1" stop-color="#755CBB"/>
</linearGradient>
<radialGradient id="paint54_radial_1_357" cx="0" cy="0" r="1" gradientUnits="userSpaceOnUse" gradientTransform="translate(56.2733 240.444) scale(5.77163 5.78501)">
<stop stop-color="#45FFCD"/>
<stop offset="1" stop-color="#22E0FF"/>
</radialGradient>
<linearGradient id="paint55_linear_1_357" x1="43.4784" y1="288.118" x2="52.6295" y2="215.427" gradientUnits="userSpaceOnUse">
<stop stop-color="#9D68C2"/>
<stop offset="0.693991" stop-color="#CCEDFF"/>
</linearGradient>
</defs>
</svg>
