<svg width="36" height="36" viewBox="0 0 36 36" fill="none" xmlns="http://www.w3.org/2000/svg">
<path d="M26.0175 22.3984C23.6724 22.012 22.6213 19.6154 22.5779 19.5136L22.5734 19.504C22.5068 19.3951 22.4648 19.2729 22.4503 19.1461C22.4359 19.0192 22.4494 18.8907 22.4898 18.7696C22.6473 18.3985 23.1683 18.2331 23.5136 18.1235C23.5998 18.0962 23.6813 18.0703 23.7453 18.045C24.3693 17.7985 24.4962 17.5433 24.4931 17.3725C24.4768 17.266 24.429 17.1668 24.3559 17.0876C24.2828 17.0083 24.1878 16.9527 24.083 16.9278L24.0783 16.926C23.9856 16.8888 23.8866 16.8698 23.7868 16.8702C23.6988 16.8687 23.6115 16.886 23.5308 16.921C23.2871 17.0442 23.0215 17.1182 22.7492 17.1387C22.5923 17.1425 22.439 17.0911 22.316 16.9937C22.3234 16.8547 22.3323 16.7112 22.342 16.5597L22.3452 16.5062C22.5026 15.4039 22.4355 14.2811 22.1481 13.2053C21.8093 12.4329 21.2505 11.7774 20.5414 11.3206C19.8323 10.8638 19.0044 10.6259 18.161 10.6367C18.0513 10.6378 17.9416 10.6389 17.8318 10.6398C16.9896 10.6294 16.163 10.8673 15.4552 11.3238C14.7475 11.7803 14.1898 12.4352 13.852 13.2067C13.5646 14.2816 13.4974 15.4034 13.6546 16.5049C13.6651 16.6678 13.675 16.8308 13.684 16.9939C13.5484 17.1002 13.3782 17.1522 13.2064 17.1399C12.9172 17.1275 12.6342 17.0528 12.3767 16.9208C12.3136 16.8929 12.245 16.8792 12.176 16.8808C12.0338 16.8752 11.8934 16.9142 11.7745 16.9923C11.6556 17.0705 11.5641 17.1838 11.5128 17.3166C11.4458 17.6689 11.9488 17.9241 12.2546 18.0449C12.3193 18.0706 12.4004 18.0963 12.4862 18.1235C12.8312 18.233 13.3527 18.3984 13.5102 18.7697C13.5506 18.8909 13.564 19.0194 13.5496 19.1462C13.5351 19.2731 13.4932 19.3953 13.4266 19.5043L13.4222 19.5137C13.1961 20.006 12.9016 20.4638 12.5474 20.8736C11.9039 21.6741 10.9932 22.2156 9.98254 22.3986C9.93478 22.4065 9.89162 22.4318 9.86134 22.4695C9.83107 22.5073 9.81583 22.5549 9.81855 22.6032C9.82069 22.6398 9.82928 22.6757 9.84391 22.7093C9.98773 23.0457 10.7097 23.3234 11.9318 23.5119C12.046 23.5296 12.0944 23.7159 12.1611 24.021C12.1877 24.1432 12.2154 24.27 12.2539 24.4008C12.2664 24.4589 12.3001 24.5102 12.3484 24.5448C12.3966 24.5793 12.456 24.5948 12.515 24.588C12.6321 24.5815 12.7485 24.5648 12.8627 24.5382C13.1639 24.4725 13.4711 24.4377 13.7794 24.4345C14.0008 24.435 14.2219 24.4537 14.4403 24.4903C14.9018 24.6073 15.331 24.8265 15.6962 25.1319C16.3125 25.6583 17.0871 25.9636 17.8969 25.9993C17.9245 25.9993 17.952 25.9983 17.9787 25.996C18.0124 25.9976 18.0567 25.9993 18.103 25.9993C18.9132 25.9634 19.6882 25.6579 20.305 25.1313C20.6698 24.8262 21.0986 24.6072 21.5596 24.4904C21.7781 24.4538 21.9992 24.4352 22.2207 24.4346C22.5288 24.436 22.8359 24.4685 23.1374 24.5317C23.2518 24.5567 23.3681 24.5714 23.4851 24.5756H23.5043C23.5597 24.5801 23.6148 24.5642 23.6593 24.5309C23.7038 24.4976 23.7346 24.4492 23.746 24.3948C23.784 24.2657 23.8118 24.1428 23.8392 24.0174C23.9053 23.7138 23.9537 23.5284 24.0684 23.5107C25.2907 23.3219 26.0127 23.0445 26.1555 22.71C26.1704 22.6762 26.1792 22.6399 26.1815 22.603C26.1842 22.5547 26.1689 22.5071 26.1387 22.4693C26.1084 22.4316 26.0653 22.4063 26.0175 22.3984V22.3984Z" fill="#9D9D9D"/>
<circle cx="18" cy="18" r="17.5" stroke="#9D9D9D"/>
</svg>
