<svg width="116" height="109" viewBox="0 0 116 109" fill="none" xmlns="http://www.w3.org/2000/svg">
<path d="M58.9034 0C63.6012 0 79.8629 1.45333 87.4517 18.53C89.9813 24.3433 89.2586 34.1533 88.8972 42.1467V42.51C88.8972 43.2367 88.8972 44.3267 88.8972 45.0533C89.2586 45.4167 89.9813 45.4167 90.7041 45.4167C92.1495 45.4167 93.9564 44.69 95.7632 43.9633C96.486 43.6 97.5701 43.6 97.9315 43.6C98.6542 43.6 99.7383 43.6 100.461 43.9633C102.629 44.69 104.075 46.1433 104.075 47.96C104.075 50.14 102.268 51.9567 98.2928 53.7733C97.9315 53.7733 97.2087 54.1367 96.486 54.5C94.3178 55.2267 91.0654 56.3167 89.9813 58.4967C89.6199 59.5867 89.6199 61.04 90.7041 62.8567C91.0654 63.5833 97.9315 79.57 113.832 82.1133C114.916 82.4767 116 83.5667 116 84.6567C116 85.02 116 85.3833 115.639 85.7467C114.555 88.6533 109.495 90.47 100.461 91.9233C100.1 92.2867 99.7383 93.74 99.7383 94.83C99.7383 95.5567 99.3769 96.6467 99.0156 97.3733C98.6542 98.8267 97.5701 99.19 96.486 99.19C95.7632 99.19 95.0405 99.19 93.9564 98.8267C92.1495 98.4633 90.3427 98.1 87.8131 98.1C86.3676 98.1 84.9221 98.1 83.4766 98.4633C80.5857 98.8267 78.0561 100.643 75.1651 102.823C71.19 105.73 66.4922 109 59.2648 109C58.9034 109 58.5421 109 58.5421 109H57.8193C50.5919 109 46.2555 105.73 41.919 102.823C39.028 100.643 36.4984 99.19 33.6075 98.4633C32.162 98.1 30.7165 98.1 29.271 98.1C26.7414 98.1 24.5732 98.4633 23.1277 98.8267C22.0436 99.19 21.3209 99.19 20.5981 99.19C18.7913 99.19 18.0685 98.1 17.7072 97.01C17.3458 95.92 17.3458 95.1933 16.9844 94.1033C16.6231 93.3767 16.6231 91.56 16.2617 91.1967C6.86604 90.1067 2.16822 87.9267 0.722741 85.3833C0 84.6567 0 84.2933 0 83.93C0 82.84 0.722742 81.75 2.16822 81.3867C17.7072 78.8433 24.9346 62.4933 25.296 61.7667C26.0187 59.95 26.3801 58.4967 26.0187 57.4067C24.9346 55.2267 21.6822 54.1367 19.514 53.41C18.7913 53.41 18.4299 53.0467 17.7072 52.6833C12.2866 50.5033 11.5639 48.3233 11.9252 46.5067C12.2866 44.69 15.1776 43.2367 17.7072 43.2367C18.4299 43.2367 19.1526 43.2367 19.514 43.6C21.6822 44.69 23.4891 45.0533 24.9346 45.0533C26.0187 45.0533 26.7414 44.69 27.1028 44.69L26.7414 41.7833C26.3801 33.79 25.6573 23.98 28.1869 18.53C35.7757 1.45333 51.676 0 56.3738 0H58.9034Z" fill="#F6E701"/>
</svg>
