<svg width="168" height="51" viewBox="0 0 168 51" fill="none" xmlns="http://www.w3.org/2000/svg">
<path d="M108.962 37.5752V10.7002H113.387V12.8552C114.733 11.1213 116.729 10.1801 119.206 10.1801C124.304 10.1801 127.96 14.3661 127.96 20.3603C127.96 26.3546 124.28 30.6149 119.206 30.6149C116.705 30.6149 114.733 29.6241 113.387 27.8903V37.5752H108.962ZM113.387 17.8834V22.8373C114.324 24.8436 116.008 26.305 118.437 26.305C121.37 26.305 123.342 24.051 123.342 20.3356C123.342 16.6697 121.37 14.4404 118.437 14.4404C116.008 14.4652 114.324 15.8275 113.387 17.8834Z" fill="#02AA7C"/>
<path d="M130.822 24.5219C130.822 21.2524 132.793 18.9736 136.064 18.5525L143.591 17.5617V16.5957C143.591 15.4315 143.014 14.8123 141.956 14.8123H132.505V10.6758H142.124C145.948 10.6758 148.04 12.6078 148.04 16.026V30.0208H143.567V27.6677C142.268 29.5502 140.128 30.6153 137.363 30.6153C133.467 30.6153 130.822 28.1631 130.822 24.5219ZM138.445 26.8998C140.705 26.8998 142.797 25.587 143.567 23.655V21.2276L137.82 22.045C136.232 22.2679 135.343 23.1349 135.343 24.5467C135.343 26.0577 136.473 26.8998 138.445 26.8998Z" fill="#02AA7C"/>
<path d="M151.263 33.439H154.485C155.711 33.439 156.265 32.9188 156.673 31.7299L157.251 30.0208L150.421 10.6758H155.038L159.295 24.1504H159.391L163.455 10.6758H168L160.521 32.894C159.511 35.9407 158.164 37.5755 154.87 37.5755H151.263V33.439Z" fill="#02AA7C"/>
<path d="M16.2325 50.8766C21.3788 50.8766 25.6112 49.2171 28.4008 46.4429C30.493 44.3127 31.7194 41.4394 31.7194 38.1203C31.7194 35.1232 30.6373 32.4233 28.6413 30.3675C26.6453 28.3116 23.7836 26.8006 20.1764 26.0823L14.2605 24.8934C11.8076 24.4228 10.4128 23.1595 10.4128 21.4009C10.4128 19.0973 12.5772 17.5121 16.0401 17.5121C18.2044 17.5121 20.0561 18.2304 21.2826 19.4936C22.0521 20.3606 22.5812 21.4752 22.7495 22.7384L31.2866 20.7569C31.0461 18.2304 29.8918 16.0011 28.1363 14.1682C25.3226 11.3197 21.018 9.51151 15.9439 9.51151C11.2545 9.51151 7.33467 11.0968 4.61723 13.6232C2.30862 15.8525 1.01002 18.8496 1.01002 22.1935C1.01002 25.1163 1.92385 27.5933 3.77555 29.4757C5.62725 31.383 8.32064 32.7949 11.8557 33.6866L17.6994 35.1232C20.6333 35.8415 21.9319 36.9561 21.9319 38.9377C21.9319 41.3899 19.7675 42.8265 16.2325 42.8265C13.6834 42.8265 11.6152 41.9596 10.3166 40.523C9.40281 39.5817 8.8497 38.2937 8.77755 36.8818L0 38.8634C0.240481 41.5633 1.46693 43.9412 3.31864 45.8484C6.22846 48.9941 10.9419 50.8766 16.2325 50.8766ZM81.2104 50.8766C86.9098 50.8766 91.2866 48.7465 94.2926 45.7246C96.6733 43.3467 98.1403 40.5725 98.9098 37.724L89.9158 34.6278C89.531 36.0644 88.7615 37.5754 87.535 38.7396C86.0681 40.1762 84.0721 41.1917 81.2104 41.1917C78.5892 41.1917 76.1363 40.1514 74.3567 38.3432C72.5771 36.436 71.495 33.6618 71.495 30.1693C71.495 26.6025 72.5771 23.9026 74.3567 21.9954C76.1122 20.1624 78.517 19.2212 81.1383 19.2212C83.9038 19.2212 85.8276 20.1624 87.2224 21.599C88.3767 22.788 89.0741 24.2989 89.531 25.8099L98.6934 22.6394C97.996 19.8652 96.529 17.091 94.3888 14.7874C91.3106 11.6912 86.8377 9.48674 80.9218 9.48674C75.4629 9.48674 70.533 11.6169 66.998 15.2828C63.4629 18.9982 61.2986 24.1751 61.2986 30.1941C61.2986 36.2131 63.5351 41.3651 67.1423 45.1053C70.6533 48.7465 75.6553 50.8766 81.2104 50.8766ZM50.1162 50.8766C54.1082 50.8766 56.9699 49.6134 58.1964 48.4987V39.9285C57.2585 40.6468 55.4309 41.5137 53.026 41.5137C51.3186 41.5137 50.0922 41.1174 49.1784 40.2505C48.4088 39.4579 48.024 38.0955 48.024 36.2874V0H37.8517V10.7004H58.1723V20.856H37.8517V38.8634C37.8517 42.5045 38.9339 45.4521 40.8577 47.508C43.022 49.6877 46.1964 50.8766 50.1162 50.8766Z" fill="#502C84"/>
</svg>
