<svg width="81" height="76" viewBox="0 0 81 76" fill="none" xmlns="http://www.w3.org/2000/svg">
<path fill-rule="evenodd" clip-rule="evenodd" d="M3.3992 0.864014C1.54007 0.864014 0.032959 2.37113 0.032959 4.23025V21.0614C0.032959 22.9206 1.54007 24.4277 3.3992 24.4277H6.76543V64.8225C6.76543 66.6816 8.27255 68.1888 10.1317 68.1888H53.0013C55.7215 72.3494 60.4214 75.0984 65.7633 75.0984C74.1783 75.0984 81 68.2767 81 59.8618C81 54.5198 78.2508 49.8199 74.0902 47.0996V24.4277H77.4564C79.3155 24.4277 80.8227 22.9206 80.8227 21.0614V4.23025C80.8227 2.37113 79.3155 0.864014 77.4564 0.864014H3.3992ZM65.7633 44.6251C66.3018 44.6251 66.8337 44.6531 67.3577 44.7075V24.4277H13.4979V61.4563H50.6091C50.5546 60.9322 50.5267 60.4003 50.5267 59.8618C50.5267 51.4468 57.3483 44.6251 65.7633 44.6251ZM70.724 17.6952H74.0902V7.59649H6.76543V17.6952H10.1317H70.724ZM30.3291 34.5264C30.3291 32.6673 31.8362 31.1602 33.6953 31.1602H47.1603C49.0194 31.1602 50.5265 32.6673 50.5265 34.5264C50.5265 36.3855 49.0194 37.8926 47.1603 37.8926H33.6953C31.8362 37.8926 30.3291 36.3855 30.3291 34.5264Z" fill="#C8FE67"/>
</svg>
