<svg width="16" height="16" viewBox="0 0 16 16" fill="none" xmlns="http://www.w3.org/2000/svg">
<g clip-path="url(#clip0_14_53)">
<path d="M7.99996 12.3334C9.14923 12.3334 10.2514 11.8769 11.0641 11.0642C11.8767 10.2516 12.3333 9.14935 12.3333 8.00008C12.3333 6.85081 11.8767 5.74861 11.0641 4.93595C10.2514 4.12329 9.14923 3.66675 7.99996 3.66675C6.85069 3.66675 5.74849 4.12329 4.93583 4.93595C4.12317 5.74861 3.66663 6.85081 3.66663 8.00008C3.66663 9.14935 4.12317 10.2516 4.93583 11.0642C5.74849 11.8769 6.85069 12.3334 7.99996 12.3334V12.3334Z" stroke="white" stroke-linecap="round" stroke-linejoin="round"/>
<path d="M12.76 12.7599L12.6734 12.6733M12.6734 3.32659L12.76 3.23992L12.6734 3.32659ZM3.24004 12.7599L3.32671 12.6733L3.24004 12.7599ZM8.00004 1.38659V1.33325V1.38659ZM8.00004 14.6666V14.6133V14.6666ZM1.38671 7.99992H1.33337H1.38671ZM14.6667 7.99992H14.6134H14.6667ZM3.32671 3.32659L3.24004 3.23992L3.32671 3.32659Z" stroke="white" stroke-width="2" stroke-linecap="round" stroke-linejoin="round"/>
</g>
<defs>
<clipPath id="clip0_14_53">
<rect width="16" height="16" fill="white"/>
</clipPath>
</defs>
</svg>
