<svg width="200" height="55" viewBox="0 0 200 55" fill="none" xmlns="http://www.w3.org/2000/svg">
<path d="M27.2261 54.4521C42.2626 54.4521 54.4521 42.2626 54.4521 27.2261C54.4521 12.1895 42.2626 0 27.2261 0C12.1895 0 0 12.1895 0 27.2261C0 42.2626 12.1895 54.4521 27.2261 54.4521Z" fill="#26A17B"/>
<path d="M30.1282 29.7385V29.7341C29.9399 29.7472 28.9682 29.8041 26.8059 29.8041C25.0769 29.8041 23.8644 29.756 23.4354 29.7341V29.7385C16.7865 29.4452 11.8272 28.2896 11.8272 26.9021C11.8272 25.5189 16.7909 24.3589 23.4354 24.0657V28.5873C23.8688 28.6179 25.1163 28.6923 26.8365 28.6923C28.9025 28.6923 29.9356 28.6048 30.1282 28.5873V24.07C36.764 24.3677 41.7102 25.5233 41.7102 26.9064C41.7102 28.2896 36.7596 29.4452 30.1282 29.7429M30.1282 23.6017V19.5572H39.3859V13.3897H14.1821V19.5572H23.4398V23.6017C15.9154 23.9475 10.2601 25.4357 10.2601 27.2216C10.2601 29.0075 15.9198 30.4957 23.4398 30.8459V43.8111H30.1325V30.8459C37.6438 30.5001 43.2903 29.0119 43.2903 27.226C43.2903 25.4445 37.6438 23.9518 30.1325 23.6061" fill="white"/>
<path d="M77.579 15.075V21.6146H83.9347V26.5214H77.5353V36.4707C77.5353 38.6681 78.7477 39.7405 80.5249 39.7405C81.4135 39.7405 82.4421 39.4603 83.2825 39.0401L84.8714 43.8988C83.2387 44.551 81.8818 44.8311 80.1528 44.8793C75.1541 45.0675 71.8843 42.218 71.8843 36.4707V26.5214H67.5859V21.6146H71.8843V15.6835L77.579 15.075ZM187.153 21.3082L187.573 23.9695C189.35 21.1199 191.732 20.6997 194.069 20.6997C196.45 20.6997 198.739 21.6321 200 22.8927L197.431 27.8433C196.262 26.8628 195.19 26.3463 193.32 26.3463C190.331 26.3463 187.573 27.9352 187.573 32.1854V44.3321H181.874V21.2994L187.153 21.3082ZM173.185 30.1369C172.813 27.1473 170.476 25.6503 167.206 25.6503C164.125 25.6503 161.599 27.1473 160.759 30.1369H173.185ZM160.667 34.8555C161.039 37.7051 163.516 39.7623 167.535 39.7623C169.636 39.7623 172.393 38.9657 173.702 37.6132L177.344 41.2112C174.914 43.7325 170.944 44.9493 167.438 44.9493C159.498 44.9493 154.775 40.0425 154.775 32.6626C154.775 25.6547 159.542 20.6078 167.018 20.6078C174.726 20.6078 179.541 25.3746 178.653 34.8555H160.667ZM135.533 11.6346V24.4335C137.59 21.7721 140.111 20.9755 142.729 20.9755C149.269 20.9755 152.166 25.414 152.166 32.1898V44.3365H146.467V32.238C146.467 28.0315 144.27 26.2587 141.232 26.2587C137.866 26.2587 135.533 29.1083 135.533 32.5663V44.3409H129.834V11.639L135.533 11.6346ZM120.397 14.8124V21.3519H126.752V26.2587H120.353V36.2081C120.353 38.4054 121.57 39.4778 123.342 39.4778C124.231 39.4778 125.26 39.1977 126.1 38.7775L127.689 43.6362C126.056 44.2884 124.699 44.5685 122.97 44.6166C117.972 44.8049 114.702 41.9509 114.702 36.2081V26.2587H110.404V21.3519H114.702V15.4208L120.397 14.8124ZM104.652 30.1369C104.28 27.1473 101.942 25.6503 98.6727 25.6503C95.5911 25.6503 93.0655 27.1473 92.2251 30.1369H104.652ZM92.1332 34.8555C92.5052 37.7051 94.9827 39.7623 99.001 39.7623C101.102 39.7623 103.86 38.9657 105.168 37.6132L108.81 41.2112C106.381 43.7325 102.411 44.9493 98.9047 44.9493C90.9601 44.9493 86.2415 40.0425 86.2415 32.6626C86.2415 25.6547 91.0082 20.6078 98.4801 20.6078C106.188 20.6078 110.999 25.3746 110.115 34.8555H92.1332Z" fill="#5B5A5D"/>
</svg>
