<svg width="36" height="36" viewBox="0 0 36 36" fill="none" xmlns="http://www.w3.org/2000/svg">
<path d="M26.1819 13.0275C25.5691 13.2992 24.919 13.4773 24.2534 13.5561C24.9548 13.1367 25.4797 12.4766 25.7302 11.6988C25.0713 12.0903 24.3501 12.3659 23.5981 12.5137C23.1372 12.0232 22.5397 11.6824 21.8829 11.5355C21.226 11.3887 20.5402 11.4425 19.9144 11.6902C19.2885 11.9378 18.7515 12.3677 18.373 12.9242C17.9944 13.4807 17.7918 14.1381 17.7914 14.8112C17.791 15.0686 17.8198 15.3253 17.8773 15.5762C16.5427 15.5092 15.237 15.1623 14.0451 14.558C12.8532 13.9537 11.8017 13.1056 10.9588 12.0686C10.5295 12.8077 10.3979 13.6827 10.591 14.5154C10.784 15.348 11.2871 16.0758 11.9979 16.5506C11.4644 16.5343 10.9425 16.3904 10.4761 16.1309V16.1734C10.4762 16.9486 10.7445 17.6999 11.2354 18.2999C11.7263 18.8998 12.4097 19.3115 13.1695 19.465C12.8813 19.5434 12.5838 19.5827 12.2851 19.582C12.0729 19.5821 11.8611 19.5624 11.6526 19.5231C11.867 20.19 12.2845 20.7733 12.8466 21.1914C13.4087 21.6095 14.0874 21.8414 14.7879 21.8549C13.3801 22.9567 11.5932 23.456 9.81824 23.2434C11.3532 24.2301 13.1398 24.7539 14.9646 24.7521C16.2211 24.7606 17.4668 24.5193 18.6294 24.0423C19.7919 23.5654 20.8481 22.8622 21.7365 21.9736C22.625 21.0851 23.3281 20.0288 23.805 18.8663C24.2819 17.7037 24.523 16.458 24.5144 15.2014C24.5144 15.0558 24.5109 14.9113 24.5038 14.7678C25.162 14.292 25.7303 13.7027 26.1819 13.0275Z" fill="#9D9D9D"/>
<circle cx="18" cy="18" r="17.5" stroke="#9D9D9D"/>
</svg>
