<svg width="89" height="70" viewBox="0 0 89 70" fill="none" xmlns="http://www.w3.org/2000/svg">
<path d="M89 8.34615C85.652 9.69231 82.3041 10.7692 78.3981 11.0385C82.3041 8.88462 85.094 5.38462 86.489 1.34615C82.8621 3.23077 78.9561 4.84615 74.7712 5.65385C71.7022 2.15385 66.9593 0 61.6583 0C51.6144 0 43.2445 7.80769 43.2445 17.7692C43.2445 19.1154 43.5235 20.4615 43.8025 21.8077C28.7367 21 15.0658 14 6.13793 3.23077C4.46395 5.92308 3.62696 8.88462 3.62696 12.1154C3.62696 18.3077 6.97492 23.6923 11.7179 26.9231C8.6489 26.9231 5.85893 26.1154 3.34796 24.7692V25.0385C3.34796 33.6538 9.76489 40.6538 18.1348 42.2692C16.7398 42.5385 15.0658 42.8077 13.3919 42.8077C12.2759 42.8077 11.1599 42.8077 10.0439 42.5385C12.2759 49.5385 19.2508 54.6538 27.0627 54.9231C20.9248 59.7692 12.8339 62.4615 4.46395 62.4615C3.06897 62.4615 1.67398 62.4615 0 62.1923C8.09091 67.0385 17.8558 70 28.1787 70C61.9373 70 80.3511 43.0769 80.3511 19.6538C80.3511 18.8462 80.3511 18.0385 80.3511 17.5C83.6991 15.0769 86.768 11.8462 89 8.34615Z" fill="#1DA1F2"/>
</svg>
