<svg width="60" height="60" viewBox="0 0 60 60" fill="none" xmlns="http://www.w3.org/2000/svg">
<path d="M8.5249 55C8.5249 45.325 18.1499 37.5 29.9999 37.5C32.3999 37.5 34.7249 37.825 36.8999 38.425M29.9999 30C33.3151 30 36.4945 28.683 38.8387 26.3388C41.1829 23.9946 42.4999 20.8152 42.4999 17.5C42.4999 14.1848 41.1829 11.0054 38.8387 8.66117C36.4945 6.31696 33.3151 5 29.9999 5C26.6847 5 23.5053 6.31696 21.1611 8.66117C18.8169 11.0054 17.4999 14.1848 17.4999 17.5C17.4999 20.8152 18.8169 23.9946 21.1611 26.3388C23.5053 28.683 26.6847 30 29.9999 30V30Z" stroke="white" stroke-width="2.5" stroke-linecap="round" stroke-linejoin="round"/>
<path d="M55 45C55 46.875 54.475 48.65 53.55 50.15C53.025 51.05 52.35 51.85 51.575 52.5C49.825 54.075 47.525 55 45 55C43.2764 55.0036 41.5816 54.5582 40.0824 53.7078C38.5832 52.8574 37.3314 51.6312 36.45 50.15C35.4984 48.6011 34.9963 46.8179 35 45C35 41.85 36.45 39.025 38.75 37.2C40.22 36.0218 41.993 35.2829 43.8646 35.0685C45.7363 34.8541 47.6304 35.1729 49.3288 35.9881C51.0271 36.8033 52.4606 38.0818 53.464 39.6762C54.4674 41.2706 54.9998 43.1161 55 45V45Z" stroke="white" stroke-width="2.5" stroke-miterlimit="10" stroke-linecap="round" stroke-linejoin="round"/>
<path d="M41.1001 45L43.5751 47.475L48.9001 42.55" stroke="white" stroke-width="2.5" stroke-linecap="round" stroke-linejoin="round"/>
</svg>
