<svg width="88" height="88" viewBox="0 0 88 88" fill="none" xmlns="http://www.w3.org/2000/svg">
<path fill-rule="evenodd" clip-rule="evenodd" d="M5.36971 56.703C8.80787 53.2648 13.471 51.3333 18.3333 51.3333H47.6667C52.529 51.3333 57.1921 53.2648 60.6303 56.703C64.0685 60.1411 66 64.8043 66 69.6666V76.9999C66 79.025 64.3584 80.6666 62.3333 80.6666C60.3083 80.6666 58.6667 79.025 58.6667 76.9999V69.6666C58.6667 66.7492 57.5077 63.9513 55.4448 61.8884C53.3819 59.8255 50.584 58.6666 47.6667 58.6666H18.3333C15.416 58.6666 12.6181 59.8255 10.5552 61.8884C8.49226 63.9513 7.33333 66.7492 7.33333 69.6666V76.9999C7.33333 79.025 5.69171 80.6666 3.66667 80.6666C1.64162 80.6666 0 79.025 0 76.9999V69.6666C0 64.8043 1.93154 60.1411 5.36971 56.703Z" fill="#C8FE67"/>
<path fill-rule="evenodd" clip-rule="evenodd" d="M33 14.6666C26.9248 14.6666 22 19.5915 22 25.6666C22 31.7417 26.9248 36.6666 33 36.6666C39.0751 36.6666 44 31.7417 44 25.6666C44 19.5915 39.0751 14.6666 33 14.6666ZM14.6666 25.6666C14.6666 15.5414 22.8747 7.33325 33 7.33325C43.1252 7.33325 51.3333 15.5414 51.3333 25.6666C51.3333 35.7918 43.1252 43.9999 33 43.9999C22.8747 43.9999 14.6666 35.7918 14.6666 25.6666Z" fill="#C8FE67"/>
<path fill-rule="evenodd" clip-rule="evenodd" d="M69.7831 54.56C70.2894 52.5992 72.2893 51.4201 74.25 51.9264C78.1831 52.9419 81.6675 55.2349 84.1562 58.4453C86.645 61.6558 87.997 65.6018 88 69.6639L88 77C88 79.025 86.3584 80.6666 84.3333 80.6666C82.3083 80.6666 80.6667 79.025 80.6667 77L80.6667 69.6694C80.6667 69.669 80.6667 69.6697 80.6667 69.6694C80.6646 67.2325 79.8534 64.8642 78.3604 62.9382C76.8672 61.012 74.7765 59.6362 72.4167 59.0269C70.4559 58.5206 69.2768 56.5207 69.7831 54.56Z" fill="#C8FE67"/>
<path fill-rule="evenodd" clip-rule="evenodd" d="M55.1146 10.5672C55.6169 8.60539 57.6144 7.42226 59.5762 7.92455C63.5197 8.93426 67.0151 11.2278 69.5112 14.4435C72.0073 17.6592 73.3621 21.6142 73.3621 25.685C73.3621 29.7557 72.0073 33.7108 69.5112 36.9265C67.0151 40.1422 63.5197 42.4357 59.5762 43.4454C57.6144 43.9477 55.6169 42.7645 55.1146 40.8028C54.6123 38.841 55.7955 36.8435 57.7572 36.3412C60.1234 35.7354 62.2206 34.3593 63.7182 32.4299C65.2159 30.5004 66.0288 28.1274 66.0288 25.685C66.0288 23.2425 65.2159 20.8695 63.7182 18.9401C62.2206 17.0106 60.1234 15.6345 57.7572 15.0287C55.7955 14.5264 54.6123 12.5289 55.1146 10.5672Z" fill="#C8FE67"/>
</svg>
