<svg width="152" height="50" viewBox="0 0 152 50" fill="none" xmlns="http://www.w3.org/2000/svg">
<path d="M78.6108 15.692C78.5241 22.5293 84.7041 26.3451 89.3597 28.6135C94.1431 30.9413 95.7497 32.4338 95.7314 34.5152C95.6949 37.701 91.9157 39.1068 88.3784 39.1616C82.2074 39.2575 78.6199 37.4956 75.7672 36.1629L73.5444 46.5649C76.4062 47.884 81.7054 49.0342 87.2008 49.0844C100.099 49.0844 108.539 42.7172 108.584 32.8446C108.635 20.3157 91.2539 19.6219 91.3725 14.0215C91.4136 12.3236 93.0339 10.5116 96.5849 10.0506C98.3422 9.81779 103.194 9.63979 108.694 12.173L110.853 2.1087C107.895 1.03153 104.093 3.8147e-06 99.36 3.8147e-06C87.219 3.8147e-06 78.6792 6.45391 78.6108 15.692ZM131.598 0.867218C129.242 0.867218 127.257 2.24107 126.372 4.34977L107.945 48.345H120.835L123.4 41.2566H139.152L140.639 48.345H152L142.086 0.867218H131.598ZM133.401 13.6929L137.12 31.521H126.933L133.401 13.6929ZM62.9826 0.867218L52.8225 48.345H65.105L75.2606 0.867218H62.9826ZM44.8122 0.867218L32.0276 33.1824L26.8563 5.70536C26.2492 2.63816 23.853 0.867218 21.192 0.867218H0.292115L0 2.24563C4.29043 3.17675 9.1651 4.6784 12.1182 6.28503C13.9257 7.26635 14.4414 8.12444 15.0348 10.4568L24.8297 48.345H37.8106L57.7109 0.867218H44.8122Z" fill="url(#paint0_linear_1_468)"/>
<defs>
<linearGradient id="paint0_linear_1_468" x1="69.8808" y1="50.0691" x2="71.3015" y2="-0.341336" gradientUnits="userSpaceOnUse">
<stop stop-color="#222357"/>
<stop offset="1" stop-color="#254AA5"/>
</linearGradient>
</defs>
</svg>
