<svg width="18" height="18" viewBox="0 0 18 18" fill="none" xmlns="http://www.w3.org/2000/svg">
<path fill-rule="evenodd" clip-rule="evenodd" d="M15.3775 2.6158C13.6854 0.929881 11.4351 0.000947594 9.03759 0C4.09763 0 0.0771246 4.00098 0.0751477 8.91885C0.0744887 10.4909 0.487203 12.0254 1.27146 13.378L0 18L4.75112 16.7597C6.06014 17.4702 7.534 17.8447 9.034 17.8453H9.03768C13.9771 17.8453 17.998 13.8439 18 8.92597C18.0009 6.5427 17.0696 4.30171 15.3775 2.6158ZM9.03768 16.3389H9.03463C7.69799 16.3384 6.38694 15.981 5.24325 15.3056L4.97122 15.1449L2.15187 15.8809L2.90442 13.1452L2.72728 12.8648C1.98161 11.6844 1.58777 10.3201 1.58835 8.91941C1.58999 4.83188 4.9317 1.50643 9.04064 1.50643C11.0303 1.50718 12.9006 2.27933 14.307 3.6806C15.7135 5.08187 16.4876 6.9445 16.4868 8.92538C16.4851 13.0132 13.1434 16.3389 9.03768 16.3389ZM13.1237 10.7866C12.8997 10.6751 11.7988 10.1359 11.5935 10.0615C11.3882 9.98715 11.239 9.94997 11.0896 10.1731C10.9404 10.3962 10.5112 10.8982 10.3805 11.0469C10.2499 11.1957 10.1193 11.2143 9.89535 11.1027C9.67142 10.9912 8.94987 10.7558 8.09449 9.99655C7.42881 9.40564 6.97933 8.67575 6.84871 8.45266C6.71809 8.22953 6.83482 8.1089 6.94692 7.99781C7.04765 7.89795 7.17085 7.73751 7.28283 7.60735C7.39478 7.47722 7.4321 7.38426 7.50674 7.23553C7.5814 7.08678 7.54408 6.95662 7.48809 6.84507C7.4321 6.73353 6.98427 5.63655 6.79763 5.19033C6.61587 4.75575 6.43124 4.81455 6.29378 4.80775C6.1633 4.80129 6.01386 4.7999 5.86459 4.7999C5.7153 4.7999 5.4727 4.85569 5.26741 5.07879C5.06216 5.30191 4.48367 5.84109 4.48367 6.93804C4.48367 8.03499 5.28608 9.09474 5.39806 9.24348C5.51001 9.39223 6.97714 11.6433 9.22356 12.6087C9.75785 12.8383 10.175 12.9754 10.5002 13.0782C11.0367 13.2478 11.5249 13.2238 11.9107 13.1665C12.341 13.1025 13.2356 12.6273 13.4223 12.1067C13.6089 11.5861 13.6089 11.1399 13.5529 11.0469C13.4969 10.954 13.3476 10.8982 13.1237 10.7866Z" fill="#9D68C2"/>
</svg>
