<svg width="323" height="79" viewBox="0 0 323 79" fill="none" xmlns="http://www.w3.org/2000/svg">
<path d="M38.3625 58.016L40.8585 44.576C45.4665 44.576 49.8825 44.352 54.1065 43.904C58.3945 43.456 62.4585 42.56 66.2985 41.216C70.2025 39.872 73.8505 37.888 77.2425 35.264C80.6345 32.64 83.7065 29.12 86.4585 24.704L97.2105 29.6C96.8265 30.816 96.5065 32 96.2505 33.152C95.9945 34.24 95.8665 35.136 95.8665 35.84C95.8665 37.312 96.2185 38.592 96.9225 39.68C97.6905 40.768 98.9705 41.6 100.763 42.176C102.555 42.752 105.019 43.04 108.155 43.04C110.587 43.04 112.315 43.68 113.339 44.96C114.363 46.176 114.875 47.712 114.875 49.568C114.875 51.552 114.203 53.216 112.859 54.56C111.579 55.84 109.691 56.48 107.195 56.48C102.779 56.48 98.9385 55.872 95.6745 54.656C92.4745 53.44 89.9465 51.744 88.0905 49.568C86.2985 47.328 85.2425 44.768 84.9225 41.888L88.7625 42.272C86.4585 45.024 83.5785 47.392 80.1225 49.376C76.7305 51.36 72.8585 52.992 68.5065 54.272C64.2185 55.552 59.5145 56.48 54.3945 57.056C49.3385 57.696 43.9945 58.016 38.3625 58.016ZM38.2665 58.016C31.3545 58.016 25.4985 57.472 20.6985 56.384C15.9625 55.36 12.0905 53.888 9.0825 51.968C6.1385 49.984 3.9945 47.68 2.6505 45.056C1.3065 42.432 0.6345 39.552 0.6345 36.416C0.6345 34.368 0.7945 32.32 1.1145 30.272C1.4985 28.16 1.9465 26.112 2.4585 24.128C3.0345 22.144 3.5465 20.352 3.9945 18.752L15.9945 21.536C15.7385 22.688 15.4505 23.936 15.1305 25.28C14.8105 26.624 14.5545 27.936 14.3625 29.216C14.1705 30.432 14.0745 31.552 14.0745 32.576C14.0745 34.944 14.9065 37.056 16.5705 38.912C18.2985 40.704 21.1145 42.112 25.0185 43.136C28.9225 44.096 34.1705 44.576 40.7625 44.576L42.6825 54.944L38.2665 58.016ZM56.1225 14.144C54.2665 14.144 52.6665 13.504 51.3225 12.224C50.0425 10.88 49.4025 9.312 49.4025 7.52C49.4025 5.664 50.0425 4.064 51.3225 2.72C52.6665 1.376 54.2665 0.703997 56.1225 0.703997C57.9145 0.703997 59.4505 1.376 60.7305 2.72C62.0105 4.064 62.6505 5.664 62.6505 7.52C62.6505 9.312 62.0105 10.88 60.7305 12.224C59.4505 13.504 57.9145 14.144 56.1225 14.144ZM39.5145 14.048C37.6585 14.048 36.0585 13.408 34.7145 12.128C33.4345 10.784 32.7945 9.216 32.7945 7.424C32.7945 5.568 33.4345 3.968 34.7145 2.62399C36.0585 1.28 37.6585 0.607998 39.5145 0.607998C41.3065 0.607998 42.8425 1.28 44.1225 2.62399C45.4025 3.968 46.0425 5.568 46.0425 7.424C46.0425 9.216 45.4025 10.784 44.1225 12.128C42.8425 13.408 41.3065 14.048 39.5145 14.048ZM107.156 56.48L108.116 43.04C110.228 43.04 111.956 42.88 113.3 42.56C114.644 42.176 115.732 41.376 116.564 40.16C117.46 38.88 118.228 36.992 118.868 34.496C119.572 31.936 120.34 28.48 121.172 24.128L133.652 26.432C133.46 27.392 133.236 28.512 132.98 29.792C132.724 31.072 132.5 32.384 132.308 33.728C132.116 35.008 132.02 36.16 132.02 37.184C132.02 38.976 132.596 40.416 133.748 41.504C134.9 42.528 137.076 43.04 140.276 43.04C141.876 43.04 143.252 42.88 144.404 42.56C145.62 42.176 146.644 41.376 147.476 40.16C148.372 38.88 149.14 36.928 149.78 34.304C150.484 31.616 151.156 28 151.796 23.456L164.468 25.472C164.212 26.944 163.956 28.512 163.7 30.176C163.444 31.84 163.22 33.376 163.028 34.784C162.836 36.192 162.74 37.344 162.74 38.24C162.74 39.072 162.964 39.872 163.412 40.64C163.924 41.344 164.82 41.92 166.1 42.368C167.444 42.816 169.332 43.04 171.764 43.04C173.492 43.04 174.964 42.816 176.18 42.368C177.46 41.92 178.42 41.184 179.06 40.16C179.764 39.136 180.116 37.792 180.116 36.128C180.116 33.76 179.572 30.656 178.484 26.816C177.396 22.976 176.116 18.944 174.644 14.72L188.18 10.688C189.204 13.44 190.1 16.384 190.868 19.52C191.7 22.592 192.34 25.6 192.788 28.544C193.3 31.424 193.556 33.952 193.556 36.128C193.556 39.392 193.044 42.304 192.02 44.864C190.996 47.36 189.556 49.472 187.7 51.2C185.844 52.928 183.636 54.24 181.076 55.136C178.516 56.032 175.7 56.48 172.628 56.48C168.916 56.48 165.876 56.128 163.508 55.424C161.14 54.656 159.316 53.408 158.036 51.68C156.82 49.888 156.02 47.456 155.636 44.384H158.9C157.556 48.16 156.052 50.912 154.388 52.64C152.724 54.304 150.74 55.36 148.436 55.808C146.196 56.256 143.38 56.48 139.988 56.48C137.876 56.48 135.7 56.256 133.46 55.808C131.284 55.296 129.332 54.144 127.604 52.352C125.876 50.56 124.596 47.776 123.764 44L128.948 43.808C127.604 47.584 125.844 50.368 123.668 52.16C121.556 53.952 119.124 55.136 116.372 55.712C113.62 56.224 110.548 56.48 107.156 56.48ZM203.847 78.08L201.063 64.64C205.607 64.064 209.575 63.36 212.967 62.528C216.359 61.76 219.207 60.672 221.511 59.264C223.815 57.856 225.543 55.936 226.695 53.504C227.847 51.008 228.423 47.808 228.423 43.904C228.423 42.496 228.295 41.088 228.039 39.68C227.783 38.208 227.399 36.864 226.887 35.648C226.375 34.432 225.703 33.44 224.871 32.672C224.103 31.904 223.175 31.52 222.087 31.52C220.935 31.52 219.911 31.936 219.015 32.768C218.119 33.536 217.415 34.528 216.903 35.744C216.391 36.896 216.135 38.08 216.135 39.296C216.135 40.192 216.359 40.96 216.807 41.6C217.255 42.176 217.927 42.624 218.823 42.944C219.719 43.2 220.839 43.328 222.183 43.328C223.719 43.328 225.287 43.168 226.887 42.848C228.551 42.464 230.055 41.952 231.399 41.312L231.783 51.776C230.247 52.992 228.487 54.08 226.503 55.04C224.519 55.936 222.119 56.384 219.303 56.384C216.999 56.384 214.855 56.128 212.871 55.616C210.887 55.04 209.127 54.176 207.591 53.024C206.119 51.872 204.967 50.4 204.135 48.608C203.303 46.752 202.887 44.544 202.887 41.984C202.887 38.848 203.399 35.808 204.423 32.864C205.447 29.92 206.855 27.296 208.647 24.992C210.503 22.624 212.615 20.768 214.983 19.424C217.415 18.016 219.975 17.312 222.663 17.312C225.863 17.312 228.647 18.112 231.015 19.712C233.447 21.312 235.463 23.424 237.063 26.048C238.663 28.608 239.879 31.392 240.711 34.4C241.543 37.408 241.959 40.288 241.959 43.04C241.959 50.272 240.423 56.416 237.351 61.472C234.279 66.528 229.895 70.432 224.199 73.184C218.503 76 211.719 77.632 203.847 78.08ZM251.66 78.08L248.876 64.64C253.42 64.064 257.388 63.36 260.78 62.528C264.172 61.76 267.02 60.672 269.324 59.264C271.628 57.856 273.356 55.936 274.508 53.504C275.66 51.008 276.236 47.808 276.236 43.904C276.236 40.128 275.66 37.12 274.508 34.88C273.356 32.64 271.82 31.52 269.9 31.52C268.556 31.52 267.436 32 266.54 32.96C265.644 33.856 264.972 34.944 264.524 36.224C264.14 37.44 263.948 38.528 263.948 39.488C263.948 40.064 264.108 40.672 264.428 41.312C264.748 41.952 265.452 42.496 266.54 42.944C267.628 43.392 269.324 43.648 271.628 43.712C273.996 43.776 277.196 43.552 281.228 43.04H297.356C299.788 43.04 301.516 43.68 302.54 44.96C303.628 46.176 304.172 47.712 304.172 49.568C304.172 51.552 303.5 53.216 302.156 54.56C300.812 55.84 298.892 56.48 296.396 56.48H269.996C265.964 56.48 262.508 56 259.628 55.04C256.748 54.08 254.54 52.544 253.004 50.432C251.468 48.256 250.7 45.376 250.7 41.792C250.7 38.912 251.18 36.032 252.14 33.152C253.164 30.272 254.572 27.648 256.364 25.28C258.156 22.848 260.236 20.928 262.604 19.52C265.036 18.048 267.66 17.312 270.476 17.312C274.316 17.312 277.676 18.496 280.556 20.864C283.436 23.232 285.676 26.368 287.276 30.272C288.94 34.176 289.772 38.432 289.772 43.04C289.772 50.272 288.236 56.416 285.164 61.472C282.092 66.528 277.708 70.432 272.012 73.184C266.316 76 259.532 77.632 251.66 78.08ZM296.531 56.48L297.491 43.04C300.307 43.04 302.515 42.848 304.115 42.464C305.779 42.08 306.963 41.376 307.667 40.352C308.371 39.264 308.723 37.728 308.723 35.744C308.723 33.952 308.467 31.808 307.955 29.312C307.507 26.816 306.899 24.224 306.131 21.536C305.363 18.848 304.595 16.384 303.827 14.144L317.075 10.496C317.843 12.672 318.611 15.2 319.379 18.08C320.147 20.96 320.787 23.936 321.299 27.008C321.875 30.016 322.163 32.928 322.163 35.744C322.163 39.264 321.715 42.24 320.819 44.672C319.923 47.04 318.675 49.024 317.075 50.624C315.539 52.16 313.683 53.376 311.507 54.272C309.395 55.104 307.059 55.68 304.499 56C301.939 56.32 299.283 56.48 296.531 56.48ZM308.339 78.56C306.483 78.56 304.883 77.92 303.539 76.64C302.259 75.36 301.619 73.792 301.619 71.936C301.619 70.08 302.259 68.448 303.539 67.04C304.883 65.696 306.483 65.024 308.339 65.024C310.195 65.024 311.763 65.696 313.043 67.04C314.387 68.448 315.059 70.08 315.059 71.936C315.059 73.792 314.387 75.36 313.043 76.64C311.763 77.92 310.195 78.56 308.339 78.56Z" fill="url(#paint0_linear_1_225)"/>
<defs>
<linearGradient id="paint0_linear_1_225" x1="-78.5" y1="-8.99996" x2="327" y2="56" gradientUnits="userSpaceOnUse">
<stop stop-color="#C8FE67"/>
<stop offset="0.0001" stop-color="#BE9DEA"/>
<stop offset="0.9995" stop-color="#792FEB"/>
<stop offset="0.9996" stop-color="#43099C"/>
<stop offset="0.9997" stop-color="#6633FF"/>
<stop offset="0.9998" stop-color="#FAF2F0" stop-opacity="0.0154723"/>
<stop offset="0.9999" stop-color="#FAF2F1" stop-opacity="0.01"/>
</linearGradient>
</defs>
</svg>
