<svg width="513" height="49" viewBox="0 0 513 49" fill="none" xmlns="http://www.w3.org/2000/svg">
<path d="M10.032 23.904V22.704C10.032 22.192 9.92 21.744 9.696 21.36C9.472 20.976 9.088 20.576 8.544 20.16C8.032 19.744 7.296 19.232 6.336 18.624C5.024 17.76 3.952 16.896 3.12 16.032C2.288 15.136 1.68 14.176 1.296 13.152C0.944 12.128 0.768 11.008 0.768 9.792C0.768 7.232 1.744 5.168 3.696 3.6C5.648 2.032 8.4 1.248 11.952 1.248C14.32 1.248 16.496 1.552 18.48 2.16C20.496 2.736 22.384 3.536 24.144 4.56L20.88 10.944C19.312 10.112 17.84 9.488 16.464 9.072C15.088 8.656 13.808 8.448 12.624 8.448C11.664 8.448 10.88 8.64 10.272 9.024C9.696 9.408 9.408 9.92 9.408 10.56C9.408 10.976 9.472 11.392 9.6 11.808C9.76 12.224 10.096 12.688 10.608 13.2C11.12 13.68 11.904 14.256 12.96 14.928C14.08 15.632 14.944 16.336 15.552 17.04C16.192 17.744 16.624 18.496 16.848 19.296C17.104 20.064 17.232 20.928 17.232 21.888V23.904H10.032ZM13.296 36.576C11.984 36.576 10.848 36.224 9.888 35.52C8.928 34.816 8.448 33.68 8.448 32.112C8.448 30.448 8.928 29.28 9.888 28.608C10.848 27.936 11.984 27.6 13.296 27.6C14.672 27.6 15.84 27.936 16.8 28.608C17.76 29.28 18.24 30.448 18.24 32.112C18.24 33.68 17.76 34.816 16.8 35.52C15.84 36.224 14.672 36.576 13.296 36.576ZM44.9625 37.008L46.2105 30.288C48.5145 30.288 50.7225 30.176 52.8345 29.952C54.9785 29.728 57.0105 29.28 58.9305 28.608C60.8825 27.936 62.7065 26.944 64.4025 25.632C66.0985 24.32 67.6345 22.56 69.0105 20.352L74.3865 22.8C74.1945 23.408 74.0345 24 73.9065 24.576C73.7785 25.12 73.7145 25.568 73.7145 25.92C73.7145 26.656 73.8905 27.296 74.2425 27.84C74.6265 28.384 75.2665 28.8 76.1625 29.088C77.0585 29.376 78.2905 29.52 79.8585 29.52C81.0745 29.52 81.9385 29.84 82.4505 30.48C82.9625 31.088 83.2185 31.856 83.2185 32.784C83.2185 33.776 82.8825 34.608 82.2105 35.28C81.5705 35.92 80.6265 36.24 79.3785 36.24C77.1705 36.24 75.2505 35.936 73.6185 35.328C72.0185 34.72 70.7545 33.872 69.8265 32.784C68.9305 31.664 68.4025 30.384 68.2425 28.944L70.1625 29.136C69.0105 30.512 67.5705 31.696 65.8425 32.688C64.1465 33.68 62.2105 34.496 60.0345 35.136C57.8905 35.776 55.5385 36.24 52.9785 36.528C50.4505 36.848 47.7785 37.008 44.9625 37.008ZM44.9145 37.008C41.4585 37.008 38.5305 36.736 36.1305 36.192C33.7625 35.68 31.8265 34.944 30.3225 33.984C28.8505 32.992 27.7785 31.84 27.1065 30.528C26.4345 29.216 26.0985 27.776 26.0985 26.208C26.0985 25.184 26.1785 24.16 26.3385 23.136C26.5305 22.08 26.7545 21.056 27.0105 20.064C27.2985 19.072 27.5545 18.176 27.7785 17.376L33.7785 18.768C33.6505 19.344 33.5065 19.968 33.3465 20.64C33.1865 21.312 33.0585 21.968 32.9625 22.608C32.8665 23.216 32.8185 23.776 32.8185 24.288C32.8185 25.472 33.2345 26.528 34.0665 27.456C34.9305 28.352 36.3385 29.056 38.2905 29.568C40.2425 30.048 42.8665 30.288 46.1625 30.288L47.1225 35.472L44.9145 37.008ZM53.8425 15.072C52.9145 15.072 52.1145 14.752 51.4425 14.112C50.8025 13.44 50.4825 12.656 50.4825 11.76C50.4825 10.832 50.8025 10.032 51.4425 9.36C52.1145 8.688 52.9145 8.352 53.8425 8.352C54.7385 8.352 55.5065 8.688 56.1465 9.36C56.7865 10.032 57.1065 10.832 57.1065 11.76C57.1065 12.656 56.7865 13.44 56.1465 14.112C55.5065 14.752 54.7385 15.072 53.8425 15.072ZM45.5385 15.024C44.6105 15.024 43.8105 14.704 43.1385 14.064C42.4985 13.392 42.1785 12.608 42.1785 11.712C42.1785 10.784 42.4985 9.984 43.1385 9.312C43.8105 8.64 44.6105 8.304 45.5385 8.304C46.4345 8.304 47.2025 8.64 47.8425 9.312C48.4825 9.984 48.8025 10.784 48.8025 11.712C48.8025 12.608 48.4825 13.392 47.8425 14.064C47.2025 14.704 46.4345 15.024 45.5385 15.024ZM79.3594 36.24L79.8394 29.52C80.8954 29.52 81.7594 29.44 82.4314 29.28C83.1034 29.088 83.6474 28.688 84.0634 28.08C84.5114 27.44 84.8954 26.496 85.2154 25.248C85.5674 23.968 85.9514 22.24 86.3674 20.064L92.6074 21.216C92.5114 21.696 92.3994 22.256 92.2714 22.896C92.1434 23.536 92.0314 24.192 91.9354 24.864C91.8394 25.504 91.7914 26.08 91.7914 26.592C91.7914 27.488 92.0794 28.208 92.6554 28.752C93.2314 29.264 94.3194 29.52 95.9194 29.52C96.7194 29.52 97.4074 29.44 97.9834 29.28C98.5914 29.088 99.1034 28.688 99.5194 28.08C99.9674 27.44 100.351 26.464 100.671 25.152C101.023 23.808 101.359 22 101.679 19.728L108.015 20.736C107.887 21.472 107.759 22.256 107.631 23.088C107.503 23.92 107.391 24.688 107.295 25.392C107.199 26.096 107.151 26.672 107.151 27.12C107.151 27.536 107.263 27.936 107.487 28.32C107.743 28.672 108.191 28.96 108.831 29.184C109.503 29.408 110.447 29.52 111.663 29.52C112.527 29.52 113.263 29.408 113.871 29.184C114.511 28.96 114.991 28.592 115.311 28.08C115.663 27.568 115.839 26.896 115.839 26.064C115.839 24.88 115.567 23.328 115.023 21.408C114.479 19.488 113.839 17.472 113.103 15.36L119.871 13.344C120.383 14.72 120.831 16.192 121.215 17.76C121.631 19.296 121.951 20.8 122.175 22.272C122.431 23.712 122.559 24.976 122.559 26.064C122.559 27.696 122.303 29.152 121.791 30.432C121.279 31.68 120.559 32.736 119.631 33.6C118.703 34.464 117.599 35.12 116.319 35.568C115.039 36.016 113.631 36.24 112.095 36.24C110.239 36.24 108.719 36.064 107.535 35.712C106.351 35.328 105.439 34.704 104.799 33.84C104.191 32.944 103.791 31.728 103.599 30.192H105.231C104.559 32.08 103.807 33.456 102.975 34.32C102.143 35.152 101.151 35.68 99.9994 35.904C98.8794 36.128 97.4714 36.24 95.7754 36.24C94.7194 36.24 93.6314 36.128 92.5114 35.904C91.4234 35.648 90.4474 35.072 89.5834 34.176C88.7194 33.28 88.0794 31.888 87.6634 30L90.2554 29.904C89.5834 31.792 88.7034 33.184 87.6154 34.08C86.5594 34.976 85.3434 35.568 83.9674 35.856C82.5914 36.112 81.0554 36.24 79.3594 36.24ZM127.705 47.04L126.313 40.32C128.585 40.032 130.569 39.68 132.265 39.264C133.961 38.88 135.385 38.336 136.537 37.632C137.689 36.928 138.553 35.968 139.129 34.752C139.705 33.504 139.993 31.904 139.993 29.952C139.993 29.248 139.929 28.544 139.801 27.84C139.673 27.104 139.481 26.432 139.225 25.824C138.969 25.216 138.633 24.72 138.217 24.336C137.833 23.952 137.369 23.76 136.825 23.76C136.249 23.76 135.737 23.968 135.289 24.384C134.841 24.768 134.489 25.264 134.233 25.872C133.977 26.448 133.849 27.04 133.849 27.648C133.849 28.096 133.961 28.48 134.185 28.8C134.409 29.088 134.745 29.312 135.193 29.472C135.641 29.6 136.201 29.664 136.873 29.664C137.641 29.664 138.425 29.584 139.225 29.424C140.057 29.232 140.809 28.976 141.481 28.656L141.673 33.888C140.905 34.496 140.025 35.04 139.033 35.52C138.041 35.968 136.841 36.192 135.433 36.192C134.281 36.192 133.209 36.064 132.217 35.808C131.225 35.52 130.345 35.088 129.577 34.512C128.841 33.936 128.265 33.2 127.849 32.304C127.433 31.376 127.225 30.272 127.225 28.992C127.225 27.424 127.481 25.904 127.993 24.432C128.505 22.96 129.209 21.648 130.105 20.496C131.033 19.312 132.089 18.384 133.273 17.712C134.489 17.008 135.769 16.656 137.113 16.656C138.713 16.656 140.105 17.056 141.289 17.856C142.505 18.656 143.513 19.712 144.313 21.024C145.113 22.304 145.721 23.696 146.137 25.2C146.553 26.704 146.761 28.144 146.761 29.52C146.761 33.136 145.993 36.208 144.457 38.736C142.921 41.264 140.729 43.216 137.881 44.592C135.033 46 131.641 46.816 127.705 47.04ZM151.611 47.04L150.219 40.32C152.491 40.032 154.475 39.68 156.171 39.264C157.867 38.88 159.291 38.336 160.443 37.632C161.595 36.928 162.459 35.968 163.035 34.752C163.611 33.504 163.899 31.904 163.899 29.952C163.899 28.064 163.611 26.56 163.035 25.44C162.459 24.32 161.691 23.76 160.731 23.76C160.059 23.76 159.499 24 159.051 24.48C158.603 24.928 158.267 25.472 158.043 26.112C157.851 26.72 157.755 27.264 157.755 27.744C157.755 28.032 157.835 28.336 157.995 28.656C158.155 28.976 158.507 29.248 159.051 29.472C159.595 29.696 160.443 29.824 161.595 29.856C162.779 29.888 164.379 29.776 166.395 29.52H174.459C175.675 29.52 176.539 29.84 177.051 30.48C177.595 31.088 177.867 31.856 177.867 32.784C177.867 33.776 177.531 34.608 176.859 35.28C176.187 35.92 175.227 36.24 173.979 36.24H160.779C158.763 36.24 157.035 36 155.595 35.52C154.155 35.04 153.051 34.272 152.283 33.216C151.515 32.128 151.131 30.688 151.131 28.896C151.131 27.456 151.371 26.016 151.851 24.576C152.363 23.136 153.067 21.824 153.963 20.64C154.859 19.424 155.899 18.464 157.083 17.76C158.299 17.024 159.611 16.656 161.019 16.656C162.939 16.656 164.619 17.248 166.059 18.432C167.499 19.616 168.619 21.184 169.419 23.136C170.251 25.088 170.667 27.216 170.667 29.52C170.667 33.136 169.899 36.208 168.363 38.736C166.827 41.264 164.635 43.216 161.787 44.592C158.939 46 155.547 46.816 151.611 47.04ZM174.047 36.24L174.527 29.52C175.935 29.52 177.039 29.424 177.839 29.232C178.671 29.04 179.263 28.688 179.615 28.176C179.967 27.632 180.143 26.864 180.143 25.872C180.143 24.976 180.015 23.904 179.759 22.656C179.535 21.408 179.231 20.112 178.847 18.768C178.463 17.424 178.079 16.192 177.695 15.072L184.319 13.248C184.703 14.336 185.087 15.6 185.471 17.04C185.855 18.48 186.175 19.968 186.431 21.504C186.719 23.008 186.863 24.464 186.863 25.872C186.863 27.632 186.639 29.12 186.191 30.336C185.743 31.52 185.119 32.512 184.319 33.312C183.551 34.08 182.623 34.688 181.535 35.136C180.479 35.552 179.311 35.84 178.031 36C176.751 36.16 175.423 36.24 174.047 36.24ZM179.951 47.28C179.023 47.28 178.223 46.96 177.551 46.32C176.911 45.68 176.591 44.896 176.591 43.968C176.591 43.04 176.911 42.224 177.551 41.52C178.223 40.848 179.023 40.512 179.951 40.512C180.879 40.512 181.663 40.848 182.303 41.52C182.975 42.224 183.311 43.04 183.311 43.968C183.311 44.896 182.975 45.68 182.303 46.32C181.663 46.96 180.879 47.28 179.951 47.28ZM202.436 34.656C202.436 33.536 202.58 32.144 202.868 30.48C203.188 28.784 203.876 26.768 204.932 24.432L210.836 26.496C210.292 28 209.876 29.296 209.588 30.384C209.3 31.44 209.156 32.48 209.156 33.504C209.156 34.944 209.476 36.176 210.116 37.2C210.788 38.224 211.764 39.008 213.044 39.552C214.356 40.096 215.956 40.368 217.844 40.368C219.764 40.368 221.364 40.16 222.644 39.744C223.924 39.328 224.932 38.736 225.668 37.968C226.404 37.232 226.932 36.368 227.252 35.376C227.572 34.384 227.732 33.312 227.732 32.16C227.732 31.264 227.62 30.256 227.396 29.136C227.204 28.016 226.916 26.8 226.531 25.488C226.148 24.144 225.716 22.736 225.236 21.264L231.956 19.536C232.276 20.752 232.532 21.792 232.724 22.656C232.948 23.52 233.14 24.24 233.3 24.816C233.46 25.36 233.588 25.808 233.684 26.16C234.004 27.12 234.436 27.84 234.98 28.32C235.524 28.8 236.228 29.12 237.092 29.28C237.988 29.44 239.06 29.52 240.308 29.52C241.524 29.52 242.388 29.84 242.9 30.48C243.412 31.088 243.668 31.856 243.668 32.784C243.668 33.776 243.332 34.608 242.66 35.28C241.988 35.92 241.044 36.24 239.828 36.24C238.74 36.24 237.652 36.096 236.564 35.808C235.508 35.488 234.596 34.976 233.828 34.272C233.06 33.568 232.564 32.624 232.34 31.44L234.116 33.36C234.052 35.536 233.62 37.472 232.82 39.168C232.02 40.864 230.9 42.304 229.46 43.488C228.052 44.672 226.34 45.568 224.324 46.176C222.34 46.784 220.116 47.088 217.652 47.088C215.508 47.088 213.508 46.848 211.652 46.368C209.828 45.92 208.212 45.184 206.804 44.16C205.428 43.168 204.356 41.888 203.588 40.32C202.82 38.752 202.436 36.864 202.436 34.656ZM218.084 16.416C217.092 16.416 216.244 16.08 215.54 15.408C214.868 14.736 214.532 13.904 214.532 12.912C214.532 11.92 214.868 11.072 215.54 10.368C216.244 9.664 217.092 9.312 218.084 9.312C219.044 9.312 219.86 9.664 220.532 10.368C221.236 11.072 221.588 11.92 221.588 12.912C221.588 13.904 221.236 14.736 220.532 15.408C219.86 16.08 219.044 16.416 218.084 16.416ZM239.812 36.24L240.293 29.52C241.029 29.52 241.653 29.344 242.165 28.992C242.709 28.608 243.269 27.984 243.845 27.12C244.421 26.224 245.093 25.024 245.861 23.52C246.821 21.6 247.813 20.096 248.837 19.008C249.893 17.92 250.965 17.152 252.053 16.704C253.173 16.224 254.293 15.984 255.413 15.984C256.821 15.984 258.133 16.288 259.349 16.896C260.565 17.504 261.621 18.336 262.517 19.392C263.413 20.416 264.101 21.6 264.581 22.944C265.093 24.256 265.349 25.616 265.349 27.024C265.349 28.72 264.981 30.256 264.245 31.632C263.541 32.976 262.549 34.048 261.269 34.848C260.021 35.616 258.581 36 256.949 36C255.573 36 253.973 35.76 252.148 35.28C250.325 34.8 248.405 33.792 246.389 32.256L248.837 26.448C250.277 27.44 251.621 28.16 252.869 28.608C254.149 29.056 255.205 29.28 256.037 29.28C256.677 29.28 257.205 29.216 257.621 29.088C258.037 28.96 258.341 28.752 258.533 28.464C258.725 28.176 258.821 27.792 258.821 27.312C258.821 26.64 258.661 25.952 258.341 25.248C258.021 24.544 257.589 23.952 257.045 23.472C256.533 22.96 255.925 22.704 255.221 22.704C254.549 22.704 253.973 22.96 253.493 23.472C253.045 23.952 252.597 24.656 252.148 25.584C251.733 26.48 251.221 27.536 250.613 28.752C249.877 30.224 249.157 31.456 248.453 32.448C247.749 33.408 246.997 34.176 246.197 34.752C245.429 35.296 244.517 35.68 243.461 35.904C242.437 36.128 241.221 36.24 239.812 36.24ZM300.056 37.008L301.304 30.288C303.608 30.288 305.816 30.176 307.928 29.952C310.072 29.728 312.104 29.28 314.024 28.608C315.976 27.936 317.8 26.944 319.496 25.632C321.192 24.32 322.728 22.56 324.104 20.352L329.48 22.8C329.288 23.408 329.128 24 329 24.576C328.872 25.12 328.808 25.568 328.808 25.92C328.808 26.656 328.984 27.296 329.336 27.84C329.72 28.384 330.36 28.8 331.256 29.088C332.152 29.376 333.384 29.52 334.952 29.52C336.168 29.52 337.032 29.84 337.544 30.48C338.056 31.088 338.312 31.856 338.312 32.784C338.312 33.776 337.976 34.608 337.304 35.28C336.664 35.92 335.72 36.24 334.472 36.24C332.264 36.24 330.344 35.936 328.712 35.328C327.112 34.72 325.848 33.872 324.92 32.784C324.024 31.664 323.496 30.384 323.336 28.944L325.256 29.136C324.104 30.512 322.664 31.696 320.936 32.688C319.24 33.68 317.304 34.496 315.128 35.136C312.984 35.776 310.632 36.24 308.072 36.528C305.544 36.848 302.872 37.008 300.056 37.008ZM300.008 37.008C296.552 37.008 293.624 36.736 291.224 36.192C288.856 35.68 286.92 34.944 285.416 33.984C283.944 32.992 282.872 31.84 282.2 30.528C281.528 29.216 281.192 27.776 281.192 26.208C281.192 25.184 281.272 24.16 281.432 23.136C281.624 22.08 281.848 21.056 282.104 20.064C282.392 19.072 282.648 18.176 282.872 17.376L288.872 18.768C288.744 19.344 288.6 19.968 288.44 20.64C288.28 21.312 288.152 21.968 288.056 22.608C287.96 23.216 287.912 23.776 287.912 24.288C287.912 25.472 288.328 26.528 289.16 27.456C290.024 28.352 291.432 29.056 293.384 29.568C295.336 30.048 297.96 30.288 301.256 30.288L302.216 35.472L300.008 37.008ZM303.464 48.24C302.536 48.24 301.736 47.92 301.064 47.28C300.424 46.64 300.104 45.856 300.104 44.928C300.104 44 300.424 43.184 301.064 42.48C301.736 41.808 302.536 41.472 303.464 41.472C304.392 41.472 305.176 41.808 305.816 42.48C306.488 43.184 306.824 44 306.824 44.928C306.824 45.856 306.488 46.64 305.816 47.28C305.176 47.92 304.392 48.24 303.464 48.24ZM334.453 36.24L334.933 29.52C336.437 29.52 337.493 29.376 338.101 29.088C338.741 28.768 339.125 28.192 339.253 27.36C339.381 26.496 339.413 25.248 339.349 23.616L338.581 0.863997H345.397L346.213 23.568C346.277 25.168 346.469 26.4 346.789 27.264C347.109 28.128 347.637 28.72 348.373 29.04C349.141 29.36 350.165 29.52 351.445 29.52C352.661 29.52 353.525 29.84 354.037 30.48C354.549 31.088 354.805 31.856 354.805 32.784C354.805 33.776 354.469 34.608 353.797 35.28C353.125 35.92 352.181 36.24 350.965 36.24C349.557 36.24 348.245 36.08 347.029 35.76C345.813 35.44 344.805 34.832 344.005 33.936C343.205 33.04 342.677 31.744 342.421 30.048L344.533 30.096C343.989 31.76 343.285 33.04 342.421 33.936C341.557 34.8 340.469 35.408 339.157 35.76C337.877 36.08 336.309 36.24 334.453 36.24ZM387.481 36.24C385.849 36.24 384.281 36.096 382.777 35.808C381.273 35.488 379.913 35.072 378.697 34.56C377.513 34.048 376.537 33.472 375.769 32.832L380.089 28.176C381.241 28.656 382.425 29.008 383.641 29.232C384.857 29.424 386.297 29.52 387.961 29.52C389.177 29.52 390.041 29.84 390.553 30.48C391.097 31.088 391.369 31.856 391.369 32.784C391.369 33.776 391.033 34.608 390.361 35.28C389.689 35.92 388.729 36.24 387.481 36.24ZM350.953 36.24L351.433 29.52H362.185C365.193 29.52 367.689 29.408 369.673 29.184C371.689 28.96 373.289 28.64 374.473 28.224C375.657 27.776 376.489 27.264 376.969 26.688C377.481 26.112 377.737 25.488 377.737 24.816C377.737 24.208 377.593 23.632 377.305 23.088C377.017 22.512 376.585 22.048 376.009 21.696C375.433 21.344 374.681 21.168 373.753 21.168C372.569 21.168 371.385 21.456 370.201 22.032C369.017 22.576 367.865 23.328 366.745 24.288C365.625 25.216 364.553 26.256 363.529 27.408C362.537 28.56 361.625 29.728 360.793 30.912L353.545 29.904C354.889 27.824 356.345 25.856 357.913 24C359.513 22.112 361.193 20.464 362.953 19.056C364.745 17.616 366.585 16.496 368.473 15.696C370.393 14.864 372.345 14.448 374.329 14.448C376.441 14.448 378.249 14.88 379.753 15.744C381.257 16.608 382.409 17.792 383.209 19.296C384.041 20.8 384.457 22.544 384.457 24.528C384.457 26.608 383.865 28.48 382.681 30.144C381.529 31.808 379.561 33.184 376.777 34.272C375.593 34.72 374.313 35.088 372.937 35.376C371.561 35.664 369.945 35.872 368.089 36C366.233 36.16 364.009 36.24 361.417 36.24H350.953ZM355.945 31.344L354.937 0.863997H361.657L362.521 23.904L355.945 31.344ZM387.516 36.24L387.996 29.52C389.916 29.52 391.388 29.424 392.412 29.232C393.436 29.04 394.14 28.688 394.524 28.176C394.94 27.632 395.148 26.864 395.148 25.872C395.148 24.976 395.02 23.904 394.764 22.656C394.54 21.408 394.236 20.112 393.852 18.768C393.5 17.424 393.116 16.192 392.7 15.072L399.324 13.248C399.74 14.336 400.14 15.6 400.524 17.04C400.908 18.48 401.228 19.968 401.484 21.504C401.74 23.008 401.868 24.464 401.868 25.872C401.868 28.048 401.516 29.824 400.812 31.2C400.108 32.544 399.116 33.584 397.836 34.32C396.588 35.056 395.084 35.568 393.324 35.856C391.564 36.112 389.628 36.24 387.516 36.24ZM400.524 9.36C399.596 9.36 398.796 9.04 398.124 8.4C397.484 7.728 397.164 6.944 397.164 6.048C397.164 5.12 397.484 4.32 398.124 3.648C398.796 2.976 399.596 2.64 400.524 2.64C401.42 2.64 402.188 2.976 402.828 3.648C403.468 4.32 403.788 5.12 403.788 6.048C403.788 6.944 403.468 7.728 402.828 8.4C402.188 9.04 401.42 9.36 400.524 9.36ZM392.22 9.312C391.292 9.312 390.492 8.992 389.82 8.352C389.18 7.68 388.86 6.896 388.86 6C388.86 5.072 389.18 4.272 389.82 3.6C390.492 2.928 391.292 2.592 392.22 2.592C393.116 2.592 393.884 2.928 394.524 3.6C395.164 4.272 395.484 5.072 395.484 6C395.484 6.896 395.164 7.68 394.524 8.352C393.884 8.992 393.116 9.312 392.22 9.312ZM437.024 37.008L438.272 30.288C440.256 30.288 442.144 30.224 443.936 30.096C445.728 29.968 447.376 29.808 448.88 29.616C450.416 29.424 451.744 29.216 452.864 28.992C454.016 28.768 454.896 28.56 455.504 28.368C456.592 28.016 457.52 27.584 458.288 27.072C459.056 26.56 459.648 25.984 460.064 25.344C460.48 24.704 460.688 24.064 460.688 23.424C460.688 22.976 460.608 22.528 460.448 22.08C460.288 21.632 460.064 21.216 459.776 20.832C459.52 20.448 459.2 20.144 458.816 19.92C458.464 19.664 458.096 19.536 457.712 19.536C457.2 19.536 456.688 19.728 456.176 20.112C455.696 20.496 455.296 21.008 454.976 21.648C454.688 22.256 454.544 22.944 454.544 23.712C454.544 24.256 454.704 24.832 455.024 25.44C455.344 26.048 455.792 26.64 456.368 27.216C456.976 27.76 457.664 28.24 458.432 28.656L452.048 31.104C451.344 30.432 450.672 29.744 450.032 29.04C449.424 28.304 448.912 27.488 448.496 26.592C448.112 25.696 447.92 24.688 447.92 23.568C447.92 22.096 448.208 20.736 448.784 19.488C449.392 18.208 450.176 17.088 451.136 16.128C452.128 15.168 453.2 14.432 454.352 13.92C455.536 13.376 456.704 13.104 457.856 13.104C459.712 13.104 461.344 13.6 462.752 14.592C464.16 15.552 465.264 16.8 466.064 18.336C466.896 19.872 467.312 21.488 467.312 23.184C467.312 24.688 467.024 26.032 466.448 27.216C465.872 28.4 465.088 29.44 464.096 30.336C463.136 31.2 462.064 31.968 460.88 32.64C459.728 33.312 458.56 33.888 457.376 34.368C456.544 34.72 455.392 35.056 453.92 35.376C452.48 35.696 450.816 35.968 448.928 36.192C447.072 36.448 445.12 36.64 443.072 36.768C441.024 36.928 439.008 37.008 437.024 37.008ZM470.144 36.24C468.288 36.24 466.464 36.144 464.672 35.952C462.88 35.76 461.216 35.472 459.68 35.088C458.176 34.704 456.864 34.24 455.744 33.696L459.056 28.512C460.016 28.768 461.136 28.976 462.416 29.136C463.728 29.264 465.088 29.36 466.496 29.424C467.936 29.488 469.312 29.52 470.624 29.52C471.84 29.52 472.704 29.84 473.216 30.48C473.76 31.088 474.032 31.856 474.032 32.784C474.032 33.776 473.696 34.608 473.024 35.28C472.352 35.92 471.392 36.24 470.144 36.24ZM437.024 37.008C433.568 37.008 430.64 36.736 428.24 36.192C425.872 35.68 423.936 34.944 422.432 33.984C420.96 32.992 419.888 31.84 419.216 30.528C418.544 29.216 418.208 27.776 418.208 26.208C418.208 25.184 418.288 24.16 418.448 23.136C418.64 22.08 418.864 21.056 419.12 20.064C419.408 19.072 419.664 18.176 419.888 17.376L425.888 18.768C425.76 19.344 425.616 19.968 425.456 20.64C425.296 21.312 425.168 21.968 425.072 22.608C424.976 23.216 424.928 23.776 424.928 24.288C424.928 25.472 425.344 26.528 426.176 27.456C427.04 28.352 428.448 29.056 430.4 29.568C432.352 30.048 434.976 30.288 438.272 30.288L439.232 35.472L437.024 37.008ZM457.904 8.64C456.912 8.64 456.064 8.304 455.36 7.632C454.688 6.96 454.352 6.128 454.352 5.136C454.352 4.144 454.688 3.296 455.36 2.592C456.064 1.888 456.912 1.536 457.904 1.536C458.864 1.536 459.68 1.888 460.352 2.592C461.056 3.296 461.408 4.144 461.408 5.136C461.408 6.128 461.056 6.96 460.352 7.632C459.68 8.304 458.864 8.64 457.904 8.64ZM470.203 36.24L470.683 29.52C471.835 29.52 472.827 29.408 473.659 29.184C474.491 28.96 475.195 28.512 475.771 27.84C476.347 27.136 476.827 26.112 477.211 24.768C477.627 23.424 477.995 21.632 478.315 19.392L484.603 20.448C484.539 20.928 484.443 21.488 484.315 22.128C484.219 22.768 484.123 23.424 484.027 24.096C483.963 24.736 483.931 25.344 483.931 25.92C483.931 26.496 484.043 27.008 484.267 27.456C484.491 27.904 484.843 28.288 485.323 28.608C485.835 28.896 486.491 29.12 487.291 29.28C488.123 29.44 489.131 29.52 490.315 29.52C491.531 29.52 492.395 29.84 492.907 30.48C493.419 31.088 493.675 31.856 493.675 32.784C493.675 33.776 493.339 34.608 492.667 35.28C492.027 35.92 491.083 36.24 489.835 36.24C488.395 36.24 487.083 36.128 485.899 35.904C484.747 35.68 483.739 35.312 482.875 34.8C482.043 34.256 481.355 33.552 480.811 32.688C480.299 31.792 479.979 30.704 479.851 29.424H482.155C481.579 30.96 480.843 32.192 479.947 33.12C479.083 34.016 478.107 34.688 477.019 35.136C475.931 35.584 474.795 35.872 473.611 36C472.459 36.16 471.323 36.24 470.203 36.24ZM483.595 47.376C482.667 47.376 481.867 47.04 481.195 46.368C480.555 45.728 480.235 44.96 480.235 44.064C480.235 43.136 480.555 42.336 481.195 41.664C481.867 40.992 482.667 40.656 483.595 40.656C484.491 40.656 485.259 40.992 485.899 41.664C486.539 42.336 486.859 43.136 486.859 44.064C486.859 44.96 486.539 45.728 485.899 46.368C485.259 47.04 484.491 47.376 483.595 47.376ZM475.291 47.376C474.363 47.376 473.563 47.04 472.891 46.368C472.251 45.728 471.931 44.96 471.931 44.064C471.931 43.136 472.251 42.336 472.891 41.664C473.563 40.992 474.363 40.656 475.291 40.656C476.187 40.656 476.955 40.992 477.595 41.664C478.235 42.336 478.555 43.136 478.555 44.064C478.555 44.96 478.235 45.728 477.595 46.368C476.955 47.04 476.187 47.376 475.291 47.376ZM489.844 36.24L490.324 29.52H497.188C497.86 29.52 498.452 29.488 498.964 29.424C499.476 29.328 499.892 29.184 500.212 28.992C500.564 28.8 500.82 28.56 500.98 28.272C501.14 27.984 501.22 27.648 501.22 27.264C501.22 26.88 501.012 26.272 500.596 25.44C500.212 24.576 499.364 23.536 498.052 22.32C497.348 21.68 496.58 21.008 495.748 20.304C494.948 19.568 494.18 18.88 493.444 18.24C492.708 17.568 492.1 16.976 491.62 16.464C491.14 15.952 490.9 15.584 490.9 15.36C490.9 14.88 490.932 14.352 490.996 13.776C491.06 13.2 491.156 12.672 491.284 12.192C491.444 11.712 491.652 11.36 491.908 11.136C492.452 10.624 493.252 10.032 494.308 9.36C495.396 8.656 496.692 7.904 498.196 7.104C499.7 6.272 501.38 5.408 503.236 4.512C505.124 3.584 507.14 2.656 509.284 1.728L512.02 7.584C510.26 8.352 508.596 9.104 507.028 9.84C505.46 10.544 503.988 11.248 502.612 11.952C501.268 12.624 500.02 13.296 498.868 13.968C497.748 14.608 496.756 15.248 495.892 15.888L496.516 12.336C499.236 14.416 501.396 16.288 502.996 17.952C504.628 19.616 505.844 21.104 506.644 22.416C507.444 23.696 507.972 24.848 508.228 25.872C508.484 26.864 508.612 27.744 508.612 28.512C508.612 29.28 508.42 30.112 508.036 31.008C507.684 31.872 507.028 32.704 506.068 33.504C505.14 34.304 503.828 34.96 502.132 35.472C500.436 35.984 498.26 36.24 495.604 36.24H489.844Z" fill="url(#paint0_linear_1_491)"/>
<defs>
<linearGradient id="paint0_linear_1_491" x1="559.686" y1="18.2564" x2="-82.8235" y2="18.2563" gradientUnits="userSpaceOnUse">
<stop stop-color="#FFB800"/>
<stop offset="1" stop-color="#CA33FF"/>
</linearGradient>
</defs>
</svg>
