<svg width="325" height="110" viewBox="0 0 325 110" fill="none" xmlns="http://www.w3.org/2000/svg">
<path d="M213.098 35.608C212.138 35.608 211.124 35.512 210.058 35.32C208.991 35.1493 207.988 34.808 207.05 34.296C206.132 33.8053 205.375 33.1013 204.778 32.184C204.202 31.288 203.914 30.1253 203.914 28.696C203.914 27.2453 204.18 25.976 204.714 24.888C205.268 23.8213 205.972 22.8827 206.826 22.072C207.7 21.24 208.618 20.4933 209.578 19.832C210.538 19.1707 211.444 18.552 212.298 17.976C213.172 17.4 213.876 16.824 214.41 16.248C214.964 15.6507 215.242 15 215.242 14.296C215.242 14.0187 215.146 13.7413 214.954 13.464C214.783 13.1653 214.495 12.92 214.09 12.728C213.706 12.536 213.183 12.44 212.522 12.44C212.052 12.44 211.53 12.504 210.954 12.632C210.378 12.76 209.823 12.9413 209.29 13.176C208.778 13.3893 208.351 13.6347 208.01 13.912C208.586 14.3813 209.119 14.84 209.61 15.288C210.122 15.736 210.644 16.2267 211.178 16.76C211.711 17.272 212.287 17.8587 212.906 18.52C213.439 18.8187 213.962 19.096 214.474 19.352C215.007 19.5867 215.572 19.8 216.17 19.992C216.767 20.1627 217.45 20.3013 218.218 20.408C218.986 20.4933 219.882 20.536 220.906 20.536C221.354 20.536 221.674 20.664 221.866 20.92C222.079 21.1547 222.186 21.4427 222.186 21.784C222.186 22.1253 222.036 22.4453 221.738 22.744C221.439 23.0213 221.055 23.16 220.586 23.16C218.815 23.16 217.343 23.0213 216.17 22.744C215.018 22.4667 214.036 22.0933 213.226 21.624C212.415 21.1547 211.636 20.632 210.89 20.056C210.527 19.5867 210.122 19.1173 209.674 18.648C209.226 18.1787 208.735 17.7093 208.202 17.24C207.69 16.7493 207.135 16.2907 206.538 15.864C206.41 15.7573 206.282 15.5653 206.154 15.288C206.026 15.0107 205.919 14.7227 205.834 14.424C205.748 14.1253 205.706 13.9013 205.706 13.752C205.706 13.432 205.908 13.048 206.314 12.6C206.719 12.152 207.263 11.7253 207.946 11.32C208.628 10.8933 209.407 10.5413 210.282 10.264C211.156 9.98667 212.063 9.848 213.002 9.848C214.516 9.848 215.69 10.2213 216.522 10.968C217.354 11.7147 217.77 12.5893 217.77 13.592C217.77 14.68 217.492 15.6507 216.938 16.504C216.404 17.3573 215.711 18.136 214.858 18.84C214.004 19.544 213.098 20.2267 212.138 20.888C211.199 21.5493 210.303 22.2427 209.45 22.968C208.596 23.672 207.892 24.4507 207.338 25.304C206.804 26.1573 206.538 27.1493 206.538 28.28C206.538 29.2613 206.772 30.0613 207.242 30.68C207.711 31.2987 208.298 31.768 209.002 32.088C209.706 32.4293 210.431 32.664 211.178 32.792C211.924 32.92 212.564 32.984 213.098 32.984C213.844 32.984 214.602 32.9307 215.37 32.824C216.159 32.7173 216.97 32.5467 217.802 32.312C218.655 32.0773 219.508 31.7893 220.362 31.448L221.194 33.496C220.575 33.8587 219.818 34.2 218.922 34.52C218.026 34.8613 217.076 35.128 216.074 35.32C215.071 35.512 214.079 35.608 213.098 35.608ZM220.594 23.16L220.914 20.536C221.511 20.536 222.012 20.408 222.418 20.152C222.823 19.896 223.218 19.4693 223.602 18.872C223.986 18.2747 224.402 17.4747 224.85 16.472C225.468 15.1067 226.076 14.072 226.674 13.368C227.292 12.664 227.9 12.184 228.498 11.928C229.116 11.672 229.724 11.544 230.322 11.544C231.047 11.544 231.719 11.736 232.338 12.12C232.956 12.4827 233.5 12.9733 233.97 13.592C234.439 14.2107 234.802 14.8933 235.058 15.64C235.335 16.3653 235.474 17.0907 235.474 17.816C235.474 19.096 235.25 20.12 234.802 20.888C234.354 21.6347 233.778 22.1787 233.074 22.52C232.391 22.84 231.676 23 230.93 23C230.268 23 229.415 22.872 228.37 22.616C227.346 22.36 226.044 21.7093 224.466 20.664L225.714 18.648C226.759 19.3093 227.698 19.768 228.53 20.024C229.383 20.2587 230.087 20.376 230.642 20.376C231.26 20.376 231.751 20.2907 232.114 20.12C232.476 19.928 232.743 19.6613 232.914 19.32C233.084 18.9787 233.17 18.5947 233.17 18.168C233.17 17.5493 233.02 16.9307 232.722 16.312C232.423 15.6933 232.039 15.1813 231.57 14.776C231.122 14.3707 230.642 14.168 230.13 14.168C229.746 14.168 229.372 14.2747 229.01 14.488C228.647 14.7013 228.274 15.096 227.89 15.672C227.506 16.248 227.068 17.08 226.578 18.168C226.066 19.32 225.575 20.2373 225.106 20.92C224.658 21.5813 224.199 22.072 223.73 22.392C223.26 22.712 222.77 22.9147 222.258 23C221.767 23.1067 221.212 23.16 220.594 23.16Z" fill="white"/>
<path d="M109.543 23.672L110.375 21.048C111.676 21.048 113.052 20.9733 114.503 20.824C115.953 20.6533 117.393 20.3653 118.823 19.96C120.273 19.5333 121.649 18.9573 122.951 18.232C124.252 17.5067 125.393 16.5893 126.375 15.48L128.391 16.664C128.199 17.1547 128.071 17.5493 128.007 17.848C127.943 18.1253 127.911 18.3813 127.911 18.616C127.911 18.936 128.028 19.2453 128.263 19.544C128.497 19.8213 128.935 20.056 129.575 20.248C130.236 20.44 131.164 20.536 132.359 20.536C132.807 20.536 133.127 20.664 133.319 20.92C133.532 21.1547 133.639 21.4427 133.639 21.784C133.639 22.1253 133.489 22.4453 133.191 22.744C132.892 23.0213 132.508 23.16 132.039 23.16C130.673 23.16 129.468 23.0213 128.423 22.744C127.399 22.4453 126.631 21.9867 126.119 21.368C125.628 20.728 125.468 19.9067 125.639 18.904L126.215 19.096C125.361 19.864 124.337 20.536 123.143 21.112C121.969 21.6667 120.657 22.136 119.207 22.52C117.777 22.904 116.241 23.192 114.599 23.384C112.977 23.576 111.292 23.672 109.543 23.672ZM109.543 23.672C107.644 23.672 105.969 23.544 104.519 23.288C103.089 23.0533 101.895 22.68 100.935 22.168C99.9745 21.656 99.2492 20.9947 98.7585 20.184C98.2678 19.352 98.0225 18.3493 98.0225 17.176C98.0225 16.6427 98.0652 16.0987 98.1505 15.544C98.2358 14.968 98.3425 14.392 98.4705 13.816C98.6198 13.24 98.7692 12.6853 98.9185 12.152L101.319 12.76C101.233 13.08 101.137 13.464 101.031 13.912C100.924 14.3387 100.828 14.776 100.743 15.224C100.679 15.672 100.647 16.0773 100.647 16.44C100.647 17.5493 100.924 18.4453 101.479 19.128C102.055 19.7893 103.047 20.28 104.455 20.6C105.863 20.8987 107.836 21.048 110.375 21.048L111.015 22.648L109.543 23.672ZM114.919 10.168C114.471 10.168 114.087 10.0187 113.767 9.72C113.468 9.4 113.319 9.02667 113.319 8.6C113.319 8.17333 113.468 7.8 113.767 7.48C114.087 7.16 114.471 7 114.919 7C115.345 7 115.708 7.16 116.007 7.48C116.327 7.8 116.487 8.17333 116.487 8.6C116.487 9.02667 116.327 9.4 116.007 9.72C115.708 10.0187 115.345 10.168 114.919 10.168ZM110.535 10.168C110.087 10.168 109.703 10.0187 109.383 9.72C109.084 9.4 108.935 9.02667 108.935 8.6C108.935 8.17333 109.084 7.8 109.383 7.48C109.703 7.16 110.087 7 110.535 7C110.961 7 111.324 7.16 111.623 7.48C111.943 7.8 112.103 8.17333 112.103 8.6C112.103 9.02667 111.943 9.4 111.623 9.72C111.324 10.0187 110.961 10.168 110.535 10.168ZM132.031 23.16L132.351 20.536C133.034 20.536 133.589 20.4933 134.015 20.408C134.442 20.3013 134.794 20.056 135.071 19.672C135.37 19.2667 135.647 18.6373 135.903 17.784C136.159 16.9307 136.458 15.736 136.799 14.2L139.199 14.872C139.114 15.2347 139.018 15.6507 138.911 16.12C138.805 16.568 138.709 17.0373 138.623 17.528C138.538 17.9973 138.495 18.4347 138.495 18.84C138.495 19.3733 138.698 19.7893 139.103 20.088C139.509 20.3867 140.245 20.536 141.311 20.536C141.951 20.536 142.474 20.4827 142.879 20.376C143.285 20.2693 143.615 20.0133 143.871 19.608C144.149 19.2027 144.394 18.552 144.607 17.656C144.821 16.76 145.045 15.5333 145.279 13.976L147.711 14.424C147.647 14.808 147.573 15.2773 147.487 15.832C147.402 16.3867 147.317 16.9413 147.231 17.496C147.167 18.0293 147.135 18.4773 147.135 18.84C147.135 19.1387 147.199 19.4267 147.327 19.704C147.477 19.96 147.754 20.1627 148.159 20.312C148.586 20.4613 149.215 20.536 150.047 20.536C150.666 20.536 151.199 20.4613 151.647 20.312C152.117 20.1627 152.469 19.8853 152.703 19.48C152.959 19.0747 153.087 18.5093 153.087 17.784C153.087 16.9733 152.895 15.96 152.511 14.744C152.149 13.5067 151.733 12.28 151.263 11.064L153.855 10.104C154.133 10.7867 154.389 11.5653 154.623 12.44C154.879 13.3147 155.093 14.1787 155.263 15.032C155.434 15.8853 155.519 16.632 155.519 17.272C155.519 18.2533 155.391 19.1173 155.135 19.864C154.879 20.6107 154.517 21.2293 154.047 21.72C153.578 22.1893 153.002 22.552 152.319 22.808C151.637 23.0427 150.869 23.16 150.015 23.16C149.013 23.16 148.191 23.0427 147.551 22.808C146.911 22.5733 146.421 22.2213 146.079 21.752C145.738 21.2613 145.514 20.6427 145.407 19.896H146.495C146.09 20.8133 145.663 21.5067 145.215 21.976C144.767 22.4453 144.213 22.7653 143.551 22.936C142.89 23.0853 142.015 23.16 140.927 23.16C140.394 23.16 139.818 23.0747 139.199 22.904C138.602 22.7333 138.079 22.4027 137.631 21.912C137.183 21.4 136.917 20.6427 136.831 19.64L137.791 19.448C137.429 20.536 136.981 21.3467 136.447 21.88C135.935 22.392 135.317 22.7333 134.591 22.904C133.866 23.0747 133.013 23.16 132.031 23.16ZM158.981 30.36L158.405 27.736C159.685 27.5653 160.858 27.32 161.925 27C163.013 26.7013 163.941 26.264 164.709 25.688C165.498 25.112 166.106 24.3547 166.533 23.416C166.96 22.4773 167.173 21.304 167.173 19.896C167.173 19.2347 167.109 18.6053 166.981 18.008C166.853 17.3893 166.661 16.8453 166.405 16.376C166.149 15.9067 165.84 15.5333 165.477 15.256C165.136 14.9787 164.741 14.84 164.293 14.84C163.802 14.84 163.354 15.032 162.949 15.416C162.565 15.7787 162.256 16.248 162.021 16.824C161.808 17.4 161.701 17.976 161.701 18.552C161.701 19 161.786 19.3947 161.957 19.736C162.149 20.056 162.458 20.3013 162.885 20.472C163.312 20.6427 163.866 20.728 164.549 20.728C165.168 20.728 165.786 20.664 166.405 20.536C167.045 20.408 167.589 20.2373 168.037 20.024L168.165 22.264C167.653 22.6267 167.045 22.8827 166.341 23.032C165.658 23.1813 164.965 23.256 164.261 23.256C163.45 23.256 162.725 23.1707 162.085 23C161.466 22.8293 160.933 22.584 160.485 22.264C160.058 21.9227 159.728 21.496 159.493 20.984C159.28 20.472 159.173 19.8747 159.173 19.192C159.173 18.3813 159.301 17.5707 159.557 16.76C159.813 15.928 160.176 15.1707 160.645 14.488C161.114 13.8053 161.68 13.2613 162.341 12.856C163.002 12.4293 163.738 12.216 164.549 12.216C165.402 12.216 166.149 12.44 166.789 12.888C167.429 13.3147 167.962 13.9013 168.389 14.648C168.816 15.3947 169.136 16.2373 169.349 17.176C169.562 18.1147 169.669 19.0853 169.669 20.088C169.669 22.072 169.264 23.7787 168.453 25.208C167.664 26.6587 166.469 27.8107 164.869 28.664C163.29 29.5173 161.328 30.0827 158.981 30.36ZM174.113 8.376L173.825 6.84C175.276 6.73333 176.449 6.50933 177.345 6.168C178.263 5.82667 178.924 5.42133 179.329 4.952C179.756 4.46133 179.969 3.97067 179.969 3.48C179.969 3.096 179.884 2.776 179.713 2.52C179.543 2.264 179.287 2.136 178.945 2.136C178.625 2.136 178.359 2.25333 178.145 2.488C177.932 2.70133 177.825 2.968 177.825 3.288C177.825 3.69333 177.996 4.07733 178.337 4.44C178.679 4.78133 179.105 5.03733 179.617 5.208L178.625 6.232C177.943 5.976 177.356 5.60267 176.865 5.112C176.396 4.62133 176.161 4.01333 176.161 3.288C176.161 2.54133 176.417 1.89067 176.929 1.336C177.463 0.781331 178.156 0.503998 179.009 0.503998C179.863 0.503998 180.503 0.802665 180.929 1.4C181.377 1.976 181.601 2.63733 181.601 3.384C181.601 4.32267 181.292 5.15467 180.673 5.88C180.055 6.60533 179.18 7.18133 178.049 7.608C176.94 8.03467 175.628 8.29067 174.113 8.376ZM173.294 30.36L172.718 27.736C173.998 27.5653 175.171 27.32 176.238 27C177.326 26.7013 178.254 26.264 179.022 25.688C179.811 25.112 180.419 24.3547 180.845 23.416C181.272 22.4773 181.486 21.304 181.486 19.896C181.486 18.4453 181.219 17.24 180.686 16.28C180.152 15.32 179.459 14.84 178.606 14.84C178.158 14.84 177.742 15.0107 177.358 15.352C176.974 15.6933 176.654 16.152 176.398 16.728C176.163 17.304 176.046 17.9333 176.046 18.616C176.046 19 176.131 19.32 176.302 19.576C176.472 19.8107 176.718 20.0027 177.038 20.152C177.379 20.28 177.806 20.376 178.318 20.44C178.83 20.504 179.427 20.536 180.11 20.536H186.862C187.31 20.536 187.63 20.664 187.822 20.92C188.035 21.1547 188.142 21.4427 188.142 21.784C188.142 22.1253 187.992 22.4453 187.694 22.744C187.395 23.0213 187.011 23.16 186.542 23.16H178.894C177.934 23.16 177.038 23.0213 176.206 22.744C175.395 22.4667 174.734 22.04 174.222 21.464C173.731 20.8667 173.486 20.088 173.486 19.128C173.486 18.232 173.624 17.3787 173.902 16.568C174.179 15.736 174.552 15 175.022 14.36C175.512 13.6987 176.078 13.176 176.718 12.792C177.379 12.408 178.094 12.216 178.862 12.216C179.843 12.216 180.718 12.504 181.486 13.08C182.254 13.656 182.862 14.5307 183.31 15.704C183.758 16.856 183.982 18.3173 183.982 20.088C183.982 22.072 183.576 23.7787 182.766 25.208C181.976 26.6587 180.782 27.8107 179.182 28.664C177.603 29.5173 175.64 30.0827 173.294 30.36ZM186.531 23.16L186.851 20.536C187.897 20.536 188.729 20.472 189.347 20.344C189.966 20.216 190.414 19.96 190.691 19.576C190.969 19.1707 191.107 18.5733 191.107 17.784C191.107 17.2507 191.022 16.6213 190.851 15.896C190.681 15.1493 190.457 14.36 190.179 13.528C189.902 12.696 189.603 11.8747 189.283 11.064L191.875 10.104C192.153 10.7867 192.409 11.5653 192.643 12.44C192.899 13.3147 193.113 14.1787 193.283 15.032C193.454 15.8853 193.539 16.632 193.539 17.272C193.539 18.1253 193.443 18.8827 193.251 19.544C193.081 20.184 192.814 20.7387 192.451 21.208C192.089 21.656 191.619 22.0293 191.043 22.328C190.489 22.6053 189.838 22.8187 189.091 22.968C188.345 23.096 187.491 23.16 186.531 23.16ZM189.955 29.112C189.507 29.112 189.123 28.952 188.803 28.632C188.505 28.3333 188.355 27.9707 188.355 27.544C188.355 27.1173 188.505 26.744 188.803 26.424C189.123 26.104 189.507 25.944 189.955 25.944C190.382 25.944 190.745 26.104 191.043 26.424C191.363 26.744 191.523 27.1173 191.523 27.544C191.523 27.9707 191.363 28.3333 191.043 28.632C190.745 28.952 190.382 29.112 189.955 29.112Z" fill="#FFB800"/>
<path d="M10.0399 91.144C8.24794 91.144 6.63194 90.84 5.19194 90.232C3.78394 89.592 2.66394 88.648 1.83194 87.4C1.03194 86.12 0.631938 84.536 0.631938 82.648C0.631938 80.76 1.27194 78.664 2.55194 76.36C3.83194 74.024 5.97594 71.688 8.98394 69.352L8.50394 73.768L4.18394 70.408L8.69594 64.888C11.1279 66.744 13.2079 68.552 14.9359 70.312C16.6959 72.04 18.0399 73.816 18.9679 75.64C19.8959 77.464 20.3599 79.4 20.3599 81.448C20.3599 82.44 20.1999 83.512 19.8799 84.664C19.5599 85.784 19.0159 86.84 18.2479 87.832C17.4799 88.792 16.4239 89.592 15.0799 90.232C13.7679 90.84 12.0879 91.144 10.0399 91.144ZM10.5679 84.52C11.3679 84.52 12.0079 84.36 12.4879 84.04C12.9999 83.72 13.3839 83.304 13.6399 82.792C13.8959 82.28 14.0239 81.736 14.0239 81.16C14.0239 80.584 13.8959 79.96 13.6399 79.288C13.3839 78.616 12.8879 77.864 12.1519 77.032C11.4159 76.2 10.3279 75.24 8.88794 74.152L12.5359 73.672C11.2239 74.568 10.1679 75.48 9.36794 76.408C8.56794 77.336 7.99194 78.232 7.63994 79.096C7.31994 79.928 7.15994 80.696 7.15994 81.4C7.15994 82.424 7.49594 83.208 8.16794 83.752C8.83994 84.264 9.63994 84.52 10.5679 84.52ZM14.5039 61.288C13.5759 61.288 12.7759 60.968 12.1039 60.328C11.4639 59.656 11.1439 58.872 11.1439 57.976C11.1439 57.048 11.4639 56.248 12.1039 55.576C12.7759 54.904 13.5759 54.568 14.5039 54.568C15.3999 54.568 16.1679 54.904 16.8079 55.576C17.4479 56.248 17.7679 57.048 17.7679 57.976C17.7679 58.872 17.4479 59.656 16.8079 60.328C16.1679 60.968 15.3999 61.288 14.5039 61.288ZM6.19994 61.24C5.27194 61.24 4.47194 60.92 3.79994 60.28C3.15994 59.608 2.83994 58.824 2.83994 57.928C2.83994 57 3.15994 56.2 3.79994 55.528C4.47194 54.856 5.27194 54.52 6.19994 54.52C7.09594 54.52 7.86394 54.856 8.50394 55.528C9.14394 56.2 9.46394 57 9.46394 57.928C9.46394 58.824 9.14394 59.608 8.50394 60.28C7.86394 60.92 7.09594 61.24 6.19994 61.24ZM20.7758 102.088L18.3278 96.136C20.0238 95.56 21.5758 94.888 22.9838 94.12C24.4238 93.352 25.6718 92.504 26.7278 91.576C27.7838 90.648 28.5998 89.64 29.1758 88.552C29.7518 87.432 30.0398 86.232 30.0398 84.952C30.0398 83.608 29.7358 82.136 29.1278 80.536C28.5198 78.936 27.7838 77.304 26.9198 75.64L33.2078 72.616C33.7838 73.608 34.2798 74.68 34.6958 75.832C35.1438 76.952 35.5118 77.96 35.7998 78.856C36.0878 79.752 36.2798 80.36 36.3758 80.68C36.8238 82.216 37.4318 83.24 38.1998 83.752C38.9998 84.264 40.2798 84.52 42.0398 84.52C43.2558 84.52 44.1198 84.84 44.6318 85.48C45.1758 86.088 45.4478 86.856 45.4478 87.784C45.4478 88.776 45.1118 89.608 44.4398 90.28C43.7678 90.92 42.8078 91.24 41.5598 91.24C40.2478 91.24 39.0958 91.048 38.1038 90.664C37.1118 90.28 36.3118 89.72 35.7038 88.984C35.1278 88.248 34.7598 87.384 34.5998 86.392L36.3758 87.4C36.1838 89.096 35.6238 90.696 34.6958 92.2C33.7998 93.736 32.6318 95.144 31.1918 96.424C29.7518 97.704 28.1358 98.824 26.3438 99.784C24.5518 100.744 22.6958 101.512 20.7758 102.088ZM41.6172 91.24L42.0972 84.52C43.2492 84.52 44.2412 84.408 45.0732 84.184C45.9052 83.96 46.6092 83.512 47.1852 82.84C47.7612 82.136 48.2412 81.112 48.6252 79.768C49.0412 78.424 49.4092 76.632 49.7292 74.392L56.0172 75.448C55.9532 75.928 55.8572 76.488 55.7292 77.128C55.6332 77.768 55.5372 78.424 55.4412 79.096C55.3772 79.736 55.3452 80.344 55.3452 80.92C55.3452 81.496 55.4572 82.008 55.6812 82.456C55.9052 82.904 56.2572 83.288 56.7372 83.608C57.2492 83.896 57.9052 84.12 58.7052 84.28C59.5372 84.44 60.5452 84.52 61.7292 84.52C62.9452 84.52 63.8092 84.84 64.3212 85.48C64.8332 86.088 65.0892 86.856 65.0892 87.784C65.0892 88.776 64.7532 89.608 64.0812 90.28C63.4412 90.92 62.4972 91.24 61.2492 91.24C59.8092 91.24 58.4972 91.128 57.3132 90.904C56.1612 90.68 55.1532 90.312 54.2892 89.8C53.4572 89.256 52.7692 88.552 52.2252 87.688C51.7132 86.792 51.3932 85.704 51.2652 84.424H53.5692C52.9932 85.96 52.2572 87.192 51.3612 88.12C50.4972 89.016 49.5212 89.688 48.4332 90.136C47.3452 90.584 46.2092 90.872 45.0252 91C43.8732 91.16 42.7372 91.24 41.6172 91.24ZM55.0092 102.376C54.0812 102.376 53.2812 102.04 52.6092 101.368C51.9692 100.728 51.6492 99.96 51.6492 99.064C51.6492 98.136 51.9692 97.336 52.6092 96.664C53.2812 95.992 54.0812 95.656 55.0092 95.656C55.9052 95.656 56.6732 95.992 57.3132 96.664C57.9532 97.336 58.2732 98.136 58.2732 99.064C58.2732 99.96 57.9532 100.728 57.3132 101.368C56.6732 102.04 55.9052 102.376 55.0092 102.376ZM46.7052 102.376C45.7772 102.376 44.9772 102.04 44.3052 101.368C43.6652 100.728 43.3452 99.96 43.3452 99.064C43.3452 98.136 43.6652 97.336 44.3052 96.664C44.9772 95.992 45.7772 95.656 46.7052 95.656C47.6012 95.656 48.3692 95.992 49.0092 96.664C49.6492 97.336 49.9692 98.136 49.9692 99.064C49.9692 99.96 49.6492 100.728 49.0092 101.368C48.3692 102.04 47.6012 102.376 46.7052 102.376ZM61.2578 91.24L61.7378 84.52C62.8898 84.52 63.8818 84.408 64.7138 84.184C65.5458 83.96 66.2498 83.512 66.8258 82.84C67.4018 82.136 67.8818 81.112 68.2658 79.768C68.6818 78.424 69.0498 76.632 69.3698 74.392L75.6578 75.448C75.5938 75.928 75.4978 76.488 75.3698 77.128C75.2738 77.768 75.1778 78.424 75.0818 79.096C75.0178 79.736 74.9858 80.344 74.9858 80.92C74.9858 81.496 75.0978 82.008 75.3218 82.456C75.5458 82.904 75.8978 83.288 76.3778 83.608C76.8898 83.896 77.5458 84.12 78.3458 84.28C79.1778 84.44 80.1858 84.52 81.3698 84.52C82.5858 84.52 83.4498 84.84 83.9618 85.48C84.4738 86.088 84.7298 86.856 84.7298 87.784C84.7298 88.776 84.3938 89.608 83.7218 90.28C83.0818 90.92 82.1378 91.24 80.8898 91.24C79.4498 91.24 78.1378 91.128 76.9538 90.904C75.8018 90.68 74.7938 90.312 73.9298 89.8C73.0978 89.256 72.4098 88.552 71.8658 87.688C71.3538 86.792 71.0338 85.704 70.9058 84.424H73.2098C72.6338 85.96 71.8978 87.192 71.0018 88.12C70.1378 89.016 69.1618 89.688 68.0738 90.136C66.9858 90.584 65.8498 90.872 64.6658 91C63.5138 91.16 62.3778 91.24 61.2578 91.24ZM72.8258 63.64C72.0258 63.64 71.3218 63.336 70.7138 62.728C70.1378 62.12 69.8498 61.4 69.8498 60.568C69.8498 59.736 70.1378 59.032 70.7138 58.456C71.3218 57.88 72.0258 57.592 72.8258 57.592C73.6578 57.592 74.3618 57.88 74.9378 58.456C75.5138 59.032 75.8018 59.736 75.8018 60.568C75.8018 61.4 75.5138 62.12 74.9378 62.728C74.3618 63.336 73.6578 63.64 72.8258 63.64ZM68.9858 69.976C68.1858 69.976 67.4818 69.672 66.8738 69.064C66.2978 68.456 66.0098 67.736 66.0098 66.904C66.0098 66.072 66.2978 65.368 66.8738 64.792C67.4818 64.216 68.1858 63.928 68.9858 63.928C69.8178 63.928 70.5218 64.216 71.0978 64.792C71.6738 65.368 71.9618 66.072 71.9618 66.904C71.9618 67.736 71.6738 68.456 71.0978 69.064C70.5218 69.672 69.8178 69.976 68.9858 69.976ZM76.4258 69.976C75.6258 69.976 74.9218 69.672 74.3138 69.064C73.7378 68.456 73.4498 67.736 73.4498 66.904C73.4498 66.072 73.7378 65.368 74.3138 64.792C74.9218 64.216 75.6258 63.928 76.4258 63.928C77.2578 63.928 77.9618 64.216 78.5378 64.792C79.1138 65.368 79.4018 66.072 79.4018 66.904C79.4018 67.736 79.1138 68.456 78.5378 69.064C77.9618 69.672 77.2578 69.976 76.4258 69.976ZM80.8984 91.24L81.3784 84.52H88.2424C88.9144 84.52 89.5064 84.488 90.0184 84.424C90.5304 84.328 90.9464 84.184 91.2664 83.992C91.6184 83.8 91.8744 83.56 92.0344 83.272C92.1944 82.984 92.2744 82.648 92.2744 82.264C92.2744 81.88 92.0664 81.272 91.6504 80.44C91.2664 79.576 90.4184 78.536 89.1064 77.32C88.4024 76.68 87.6344 76.008 86.8024 75.304C86.0024 74.568 85.2344 73.88 84.4984 73.24C83.7624 72.568 83.1544 71.976 82.6744 71.464C82.1944 70.952 81.9544 70.584 81.9544 70.36C81.9544 69.88 81.9864 69.352 82.0504 68.776C82.1144 68.2 82.2104 67.672 82.3384 67.192C82.4984 66.712 82.7064 66.36 82.9624 66.136C83.5064 65.624 84.3064 65.032 85.3624 64.36C86.4504 63.656 87.7464 62.904 89.2504 62.104C90.7544 61.272 92.4344 60.408 94.2904 59.512C96.1784 58.584 98.1944 57.656 100.338 56.728L103.074 62.584C101.314 63.352 99.6504 64.104 98.0824 64.84C96.5144 65.544 95.0424 66.248 93.6664 66.952C92.3224 67.624 91.0744 68.296 89.9224 68.968C88.8024 69.608 87.8104 70.248 86.9464 70.888L87.5704 67.336C90.2904 69.416 92.4504 71.288 94.0504 72.952C95.6824 74.616 96.8984 76.104 97.6984 77.416C98.4984 78.696 99.0264 79.848 99.2824 80.872C99.5384 81.864 99.6664 82.744 99.6664 83.512C99.6664 84.28 99.4744 85.112 99.0904 86.008C98.7384 86.872 98.0824 87.704 97.1224 88.504C96.1944 89.304 94.8824 89.96 93.1864 90.472C91.4904 90.984 89.3144 91.24 86.6584 91.24H80.8984ZM128.656 109.912C126.544 109.912 124.56 109.688 122.704 109.24C120.848 108.792 119.216 108.104 117.808 107.176C116.432 106.248 115.344 105.048 114.544 103.576C113.776 102.104 113.392 100.36 113.392 98.344C113.392 96.264 113.824 94.424 114.688 92.824C115.552 91.256 116.656 89.88 118 88.696C119.344 87.48 120.768 86.392 122.272 85.432C123.808 84.44 125.248 83.496 126.592 82.6C127.936 81.704 129.04 80.792 129.904 79.864C130.768 78.904 131.2 77.848 131.2 76.696C131.2 76.28 131.088 75.896 130.864 75.544C130.672 75.16 130.336 74.856 129.856 74.632C129.408 74.376 128.768 74.248 127.936 74.248C127.392 74.248 126.832 74.312 126.256 74.44C125.68 74.536 125.12 74.68 124.576 74.872C124.032 75.032 123.52 75.24 123.04 75.496C123.872 76.168 124.688 76.92 125.488 77.752C126.32 78.552 127.072 79.336 127.744 80.104C128.448 80.84 128.992 81.48 129.376 82.024C130.112 82.408 130.912 82.76 131.776 83.08C132.64 83.368 133.552 83.624 134.512 83.848C135.504 84.072 136.528 84.248 137.584 84.376C138.64 84.472 139.728 84.52 140.848 84.52C142.064 84.52 142.928 84.84 143.44 85.48C143.952 86.088 144.208 86.856 144.208 87.784C144.208 88.776 143.872 89.608 143.2 90.28C142.528 90.92 141.584 91.24 140.368 91.24C137.712 91.24 135.44 91.048 133.552 90.664C131.696 90.28 130.016 89.704 128.512 88.936C127.04 88.136 125.52 87.16 123.952 86.008C123.568 85.336 123.008 84.6 122.272 83.8C121.536 82.968 120.784 82.184 120.016 81.448C119.28 80.712 118.656 80.136 118.144 79.72C118.048 79.624 117.888 79.304 117.664 78.76C117.44 78.184 117.232 77.576 117.04 76.936C116.88 76.296 116.8 75.848 116.8 75.592C116.8 74.952 117.104 74.232 117.712 73.432C118.32 72.6 119.168 71.816 120.256 71.08C121.376 70.312 122.672 69.688 124.144 69.208C125.616 68.696 127.216 68.44 128.944 68.44C132.08 68.44 134.336 69.112 135.712 70.456C137.12 71.768 137.824 73.464 137.824 75.544C137.824 77.464 137.392 79.176 136.528 80.68C135.696 82.184 134.608 83.56 133.264 84.808C131.92 86.056 130.496 87.208 128.992 88.264C127.52 89.32 126.112 90.344 124.768 91.336C123.424 92.36 122.32 93.384 121.456 94.408C120.624 95.464 120.208 96.6 120.208 97.816C120.208 98.84 120.464 99.688 120.976 100.36C121.52 101.064 122.208 101.624 123.04 102.04C123.872 102.456 124.784 102.744 125.776 102.904C126.8 103.096 127.792 103.192 128.752 103.192C129.744 103.192 130.768 103.112 131.824 102.952C132.912 102.792 134.032 102.536 135.184 102.184C136.368 101.864 137.584 101.448 138.832 100.936L140.848 106.696C139.632 107.336 138.336 107.896 136.96 108.376C135.584 108.888 134.192 109.272 132.784 109.528C131.376 109.784 130 109.912 128.656 109.912ZM140.383 91.24L140.863 84.568C143.519 84.568 145.647 84.552 147.247 84.52C148.879 84.488 150.143 84.424 151.039 84.328C151.967 84.2 152.655 84.056 153.103 83.896C153.551 83.704 153.935 83.496 154.255 83.272C154.639 82.984 154.959 82.6 155.215 82.12C155.503 81.608 155.727 80.936 155.887 80.104C156.047 79.272 156.127 78.232 156.127 76.984C156.127 75.416 155.983 74.104 155.695 73.048C155.439 71.96 155.055 71.144 154.543 70.6C154.063 70.056 153.471 69.784 152.767 69.784C152.255 69.784 151.775 69.96 151.327 70.312C150.879 70.632 150.511 71.08 150.223 71.656C149.935 72.232 149.791 72.888 149.791 73.624C149.791 74.04 149.903 74.408 150.127 74.728C150.351 75.048 150.703 75.288 151.183 75.448C151.663 75.608 152.271 75.688 153.007 75.688C153.711 75.688 154.447 75.608 155.215 75.448C156.015 75.256 156.751 75 157.423 74.68L157.615 80.392C157.103 80.744 156.511 81.064 155.839 81.352C155.167 81.64 154.447 81.864 153.679 82.024C152.943 82.152 152.191 82.216 151.423 82.216C149.727 82.216 148.255 81.992 147.007 81.544C145.791 81.064 144.847 80.296 144.175 79.24C143.503 78.184 143.167 76.744 143.167 74.92C143.167 73.512 143.407 72.12 143.887 70.744C144.367 69.336 145.055 68.072 145.951 66.952C146.847 65.8 147.903 64.888 149.119 64.216C150.335 63.512 151.679 63.16 153.151 63.16C155.327 63.16 157.119 63.8 158.527 65.08C159.967 66.328 161.023 68.024 161.695 70.168C162.399 72.28 162.751 74.632 162.751 77.224C162.751 79.496 162.415 81.48 161.743 83.176C161.071 84.84 160.271 86.152 159.343 87.112C158.575 87.912 157.695 88.584 156.703 89.128C155.711 89.672 154.495 90.104 153.055 90.424C151.647 90.712 149.903 90.92 147.823 91.048C145.775 91.176 143.295 91.24 140.383 91.24ZM153.055 58.696C152.063 58.696 151.215 58.36 150.511 57.688C149.839 57.016 149.503 56.184 149.503 55.192C149.503 54.2 149.839 53.352 150.511 52.648C151.215 51.944 152.063 51.592 153.055 51.592C154.015 51.592 154.831 51.944 155.503 52.648C156.207 53.352 156.559 54.2 156.559 55.192C156.559 56.184 156.207 57.016 155.503 57.688C154.831 58.36 154.015 58.696 153.055 58.696ZM175.081 84.52C176.521 84.52 177.625 84.392 178.393 84.136C179.161 83.88 179.689 83.544 179.977 83.128C180.265 82.712 180.409 82.264 180.409 81.784C180.409 81.016 180.185 80.12 179.737 79.096C179.321 78.072 178.793 77 178.153 75.88C177.513 74.76 176.841 73.688 176.137 72.664C175.465 71.64 174.857 70.744 174.313 69.976L180.025 66.184C181.401 68.04 182.585 69.88 183.577 71.704C184.569 73.496 185.369 75.16 185.977 76.696C186.617 78.232 187.065 79.544 187.321 80.632C187.577 81.656 187.961 82.456 188.473 83.032C189.017 83.576 189.641 83.96 190.345 84.184C191.049 84.408 191.753 84.52 192.457 84.52C193.673 84.52 194.537 84.84 195.049 85.48C195.593 86.088 195.865 86.856 195.865 87.784C195.865 88.776 195.529 89.608 194.857 90.28C194.217 90.92 193.257 91.24 191.977 91.24C190.569 91.24 189.337 91.048 188.281 90.664C187.225 90.28 186.329 89.672 185.593 88.84C184.857 88.008 184.233 86.952 183.721 85.672L186.649 86.296C186.393 87.192 185.801 88.024 184.873 88.792C183.977 89.528 182.777 90.136 181.273 90.616C179.801 91.064 178.057 91.288 176.041 91.288C175.081 91.288 174.009 91.208 172.825 91.048C171.673 90.888 170.521 90.648 169.369 90.328C168.249 90.008 167.225 89.592 166.297 89.08L168.649 82.984C169.833 83.496 170.969 83.88 172.057 84.136C173.177 84.392 174.185 84.52 175.081 84.52ZM192.039 91.24L192.519 84.52C193.991 84.52 195.047 84.376 195.687 84.088C196.327 83.768 196.711 83.192 196.839 82.36C196.967 81.496 196.999 80.248 196.935 78.616L196.071 55.864H202.839L203.799 79.096C203.863 80.952 203.783 82.632 203.559 84.136C203.367 85.608 202.871 86.872 202.071 87.928C201.303 88.984 200.103 89.8 198.471 90.376C196.871 90.952 194.727 91.24 192.039 91.24ZM210.129 91L209.121 55.864H215.841L216.849 91H210.129ZM246.479 100.024C244.335 100.024 242.319 99.784 240.431 99.304C238.575 98.856 236.927 98.136 235.487 97.144C234.079 96.184 232.975 94.92 232.175 93.352C231.375 91.816 230.975 89.96 230.975 87.784C230.975 87.048 231.023 86.216 231.119 85.288C231.247 84.36 231.503 83.256 231.887 81.976C232.271 80.664 232.863 79.144 233.663 77.416L239.519 79.672C239.039 80.824 238.671 81.8 238.415 82.6C238.159 83.368 237.967 84.072 237.839 84.712C237.743 85.32 237.695 85.96 237.695 86.632C237.695 87.688 237.919 88.632 238.367 89.464C238.847 90.296 239.503 91 240.335 91.576C241.199 92.152 242.239 92.584 243.455 92.872C244.703 93.16 246.095 93.304 247.631 93.304C249.615 93.304 251.343 93.176 252.815 92.92C254.287 92.696 255.519 92.36 256.511 91.912C257.535 91.496 258.351 90.984 258.959 90.376C259.567 89.768 259.999 89.112 260.255 88.408C260.575 87.576 260.783 86.712 260.879 85.816C261.007 84.888 261.071 83.832 261.071 82.648C261.071 81.24 260.943 80.04 260.687 79.048C260.463 78.024 260.111 77.24 259.631 76.696C259.151 76.152 258.559 75.88 257.855 75.88C257.279 75.88 256.751 76.072 256.271 76.456C255.823 76.84 255.471 77.32 255.215 77.896C254.959 78.44 254.831 79 254.831 79.576C254.831 80.056 254.943 80.456 255.167 80.776C255.423 81.096 255.791 81.352 256.271 81.544C256.751 81.704 257.343 81.784 258.047 81.784C258.751 81.784 259.535 81.704 260.399 81.544C261.263 81.352 262.031 81.064 262.703 80.68L263.183 86.488C262.415 87.096 261.375 87.56 260.063 87.88C258.783 88.168 257.583 88.312 256.463 88.312C254.799 88.312 253.343 88.088 252.095 87.64C250.879 87.16 249.935 86.376 249.263 85.288C248.591 84.2 248.255 82.728 248.255 80.872C248.255 79.528 248.495 78.184 248.975 76.84C249.455 75.464 250.127 74.2 250.991 73.048C251.855 71.896 252.895 70.984 254.111 70.312C255.327 69.608 256.671 69.256 258.143 69.256C260.223 69.256 261.967 69.864 263.375 71.08C264.815 72.264 265.903 73.848 266.639 75.832C267.407 77.784 267.791 79.912 267.791 82.216C267.791 84.36 267.567 86.248 267.119 87.88C266.703 89.48 266.159 90.904 265.487 92.152C264.687 93.56 263.679 94.76 262.463 95.752C261.279 96.776 259.887 97.592 258.287 98.2C256.719 98.84 254.943 99.304 252.959 99.592C250.975 99.88 248.815 100.024 246.479 100.024ZM262.415 64.888C261.487 64.888 260.687 64.568 260.015 63.928C259.375 63.256 259.055 62.472 259.055 61.576C259.055 60.648 259.375 59.848 260.015 59.176C260.687 58.504 261.487 58.168 262.415 58.168C263.311 58.168 264.079 58.504 264.719 59.176C265.359 59.848 265.679 60.648 265.679 61.576C265.679 62.472 265.359 63.256 264.719 63.928C264.079 64.568 263.311 64.888 262.415 64.888ZM254.111 64.84C253.183 64.84 252.383 64.52 251.711 63.88C251.071 63.208 250.751 62.424 250.751 61.528C250.751 60.6 251.071 59.8 251.711 59.128C252.383 58.456 253.183 58.12 254.111 58.12C255.007 58.12 255.775 58.456 256.415 59.128C257.055 59.8 257.375 60.6 257.375 61.528C257.375 62.424 257.055 63.208 256.415 63.88C255.775 64.52 255.007 64.84 254.111 64.84ZM270.432 102.088L267.984 96.136C269.68 95.56 271.232 94.888 272.64 94.12C274.08 93.352 275.328 92.504 276.384 91.576C277.44 90.648 278.256 89.64 278.832 88.552C279.408 87.432 279.696 86.232 279.696 84.952C279.696 83.608 279.392 82.136 278.784 80.536C278.176 78.936 277.44 77.304 276.576 75.64L282.864 72.616C283.44 73.608 283.936 74.68 284.352 75.832C284.8 76.952 285.168 77.96 285.456 78.856C285.744 79.752 285.936 80.36 286.032 80.68C286.48 82.216 287.088 83.24 287.856 83.752C288.656 84.264 289.936 84.52 291.696 84.52C292.912 84.52 293.776 84.84 294.288 85.48C294.832 86.088 295.104 86.856 295.104 87.784C295.104 88.776 294.768 89.608 294.096 90.28C293.424 90.92 292.464 91.24 291.216 91.24C289.904 91.24 288.752 91.048 287.76 90.664C286.768 90.28 285.968 89.72 285.36 88.984C284.784 88.248 284.416 87.384 284.256 86.392L286.032 87.4C285.84 89.096 285.28 90.696 284.352 92.2C283.456 93.736 282.288 95.144 280.848 96.424C279.408 97.704 277.792 98.824 276 99.784C274.208 100.744 272.352 101.512 270.432 102.088ZM291.273 91.24L291.753 84.52H302.505C305.513 84.52 308.009 84.408 309.993 84.184C312.009 83.96 313.609 83.64 314.793 83.224C315.977 82.776 316.809 82.264 317.289 81.688C317.801 81.112 318.057 80.488 318.057 79.816C318.057 79.208 317.913 78.632 317.625 78.088C317.337 77.512 316.905 77.048 316.329 76.696C315.753 76.344 315.001 76.168 314.073 76.168C312.889 76.168 311.705 76.456 310.521 77.032C309.337 77.576 308.185 78.328 307.065 79.288C305.945 80.216 304.873 81.256 303.849 82.408C302.857 83.56 301.945 84.728 301.113 85.912L293.865 84.904C295.209 82.824 296.665 80.856 298.233 79C299.833 77.112 301.513 75.464 303.273 74.056C305.065 72.616 306.905 71.496 308.793 70.696C310.713 69.864 312.665 69.448 314.649 69.448C316.761 69.448 318.569 69.88 320.073 70.744C321.577 71.608 322.729 72.792 323.529 74.296C324.361 75.8 324.777 77.544 324.777 79.528C324.777 81.608 324.185 83.48 323.001 85.144C321.849 86.808 319.881 88.184 317.097 89.272C315.913 89.72 314.633 90.088 313.257 90.376C311.881 90.664 310.265 90.872 308.409 91C306.553 91.16 304.329 91.24 301.737 91.24H291.273ZM296.265 86.344L295.257 55.864H301.977L302.841 78.904L296.265 86.344Z" fill="url(#paint0_linear_14_90)"/>
<defs>
<linearGradient id="paint0_linear_14_90" x1="357.549" y1="46.9743" x2="-54.0588" y2="46.9743" gradientUnits="userSpaceOnUse">
<stop stop-color="#DB00FF"/>
<stop offset="1" stop-color="#6633FF"/>
</linearGradient>
</defs>
</svg>
